<mxfile host="app.diagrams.net" modified="2021-11-14T20:01:10.923Z" agent="5.0 (Windows NT 10.0; Win64; x64) AppleWebKit/537.36 (KHTML, like Gecko) Chrome/95.0.4638.69 Safari/537.36" etag="rKEBxBUrUAEWBOS4hiiU" version="15.7.3" type="github">
  <diagram id="C5RBs43oDa-KdzZeNtuy" name="Page-1">
    <mxGraphModel dx="4348" dy="4071" grid="1" gridSize="10" guides="1" tooltips="1" connect="1" arrows="1" fold="1" page="1" pageScale="1" pageWidth="827" pageHeight="1169" math="0" shadow="0">
      <root>
        <mxCell id="WIyWlLk6GJQsqaUBKTNV-0" />
        <mxCell id="WIyWlLk6GJQsqaUBKTNV-1" parent="WIyWlLk6GJQsqaUBKTNV-0" />
        <mxCell id="yHoqbMhk2SUwJ_CR07r3-291" value="" style="rounded=0;whiteSpace=wrap;html=1;fillColor=#1A1A1A;" vertex="1" parent="WIyWlLk6GJQsqaUBKTNV-1">
          <mxGeometry x="-2700" y="-3050" width="6650" height="1430" as="geometry" />
        </mxCell>
        <mxCell id="yHoqbMhk2SUwJ_CR07r3-178" value="" style="rounded=0;whiteSpace=wrap;html=1;fillColor=#1A1A1A;" vertex="1" parent="WIyWlLk6GJQsqaUBKTNV-1">
          <mxGeometry x="-2691" y="-1560" width="6650" height="1450" as="geometry" />
        </mxCell>
        <mxCell id="yHoqbMhk2SUwJ_CR07r3-75" value="" style="rounded=0;whiteSpace=wrap;html=1;fillColor=#1A1A1A;" vertex="1" parent="WIyWlLk6GJQsqaUBKTNV-1">
          <mxGeometry x="-2690" y="-40" width="6650" height="940" as="geometry" />
        </mxCell>
        <mxCell id="yHoqbMhk2SUwJ_CR07r3-190" style="edgeStyle=orthogonalEdgeStyle;rounded=0;sketch=0;jumpStyle=arc;orthogonalLoop=1;jettySize=auto;html=1;exitX=0.5;exitY=0;exitDx=0;exitDy=0;entryX=0.499;entryY=0.996;entryDx=0;entryDy=0;entryPerimeter=0;fontSize=14;endArrow=none;endFill=0;endSize=20;strokeColor=#FFFFFF;strokeWidth=3;" edge="1" parent="WIyWlLk6GJQsqaUBKTNV-1" source="yHoqbMhk2SUwJ_CR07r3-12" target="yHoqbMhk2SUwJ_CR07r3-185">
          <mxGeometry relative="1" as="geometry" />
        </mxCell>
        <mxCell id="yHoqbMhk2SUwJ_CR07r3-78" value="" style="rounded=0;whiteSpace=wrap;html=1;fillColor=#1A1A1A;" vertex="1" parent="WIyWlLk6GJQsqaUBKTNV-1">
          <mxGeometry x="-2730" y="940" width="6690" height="1990" as="geometry" />
        </mxCell>
        <mxCell id="yHoqbMhk2SUwJ_CR07r3-10" style="edgeStyle=orthogonalEdgeStyle;rounded=0;orthogonalLoop=1;jettySize=auto;html=1;exitX=0.5;exitY=0;exitDx=0;exitDy=0;entryX=0.394;entryY=1.013;entryDx=0;entryDy=0;entryPerimeter=0;endArrow=block;endFill=0;endSize=20;strokeWidth=3;" edge="1" parent="WIyWlLk6GJQsqaUBKTNV-1" source="yHoqbMhk2SUwJ_CR07r3-6" target="yHoqbMhk2SUwJ_CR07r3-5">
          <mxGeometry relative="1" as="geometry" />
        </mxCell>
        <mxCell id="yHoqbMhk2SUwJ_CR07r3-11" value="&amp;lt;Announcement , Long&amp;gt;" style="edgeLabel;html=1;align=center;verticalAlign=middle;resizable=0;points=[];" vertex="1" connectable="0" parent="yHoqbMhk2SUwJ_CR07r3-10">
          <mxGeometry x="-0.2574" y="3" relative="1" as="geometry">
            <mxPoint as="offset" />
          </mxGeometry>
        </mxCell>
        <mxCell id="yHoqbMhk2SUwJ_CR07r3-173" style="edgeStyle=orthogonalEdgeStyle;rounded=0;sketch=0;jumpStyle=arc;orthogonalLoop=1;jettySize=auto;html=1;exitX=0.5;exitY=1;exitDx=0;exitDy=0;entryX=0.5;entryY=0;entryDx=0;entryDy=0;dashed=1;fontSize=14;endArrow=open;endFill=0;endSize=20;strokeColor=#FFFFFF;strokeWidth=3;" edge="1" parent="WIyWlLk6GJQsqaUBKTNV-1" source="yHoqbMhk2SUwJ_CR07r3-6" target="yHoqbMhk2SUwJ_CR07r3-99">
          <mxGeometry relative="1" as="geometry" />
        </mxCell>
        <mxCell id="yHoqbMhk2SUwJ_CR07r3-197" style="edgeStyle=orthogonalEdgeStyle;rounded=0;sketch=0;jumpStyle=arc;orthogonalLoop=1;jettySize=auto;html=1;exitX=0.5;exitY=0;exitDx=0;exitDy=0;entryX=0.495;entryY=1;entryDx=0;entryDy=0;entryPerimeter=0;fontSize=14;endArrow=none;endFill=0;endSize=20;strokeColor=#FFFFFF;strokeWidth=3;" edge="1" parent="WIyWlLk6GJQsqaUBKTNV-1" source="yHoqbMhk2SUwJ_CR07r3-6" target="yHoqbMhk2SUwJ_CR07r3-196">
          <mxGeometry relative="1" as="geometry">
            <Array as="points">
              <mxPoint x="-235" y="10" />
              <mxPoint x="-237" y="10" />
            </Array>
          </mxGeometry>
        </mxCell>
        <mxCell id="yHoqbMhk2SUwJ_CR07r3-6" value="(I) AnnouncementRepository" style="swimlane;fontStyle=0;childLayout=stackLayout;horizontal=1;startSize=26;fillColor=none;horizontalStack=0;resizeParent=1;resizeParentMax=0;resizeLast=0;collapsible=1;marginBottom=0;" vertex="1" parent="WIyWlLk6GJQsqaUBKTNV-1">
          <mxGeometry x="-320" y="620" width="170" height="52" as="geometry" />
        </mxCell>
        <mxCell id="yHoqbMhk2SUwJ_CR07r3-13" style="edgeStyle=orthogonalEdgeStyle;rounded=0;orthogonalLoop=1;jettySize=auto;html=1;exitX=0.5;exitY=0;exitDx=0;exitDy=0;entryX=0.5;entryY=1;entryDx=0;entryDy=0;endArrow=block;endFill=0;endSize=20;strokeWidth=3;" edge="1" parent="WIyWlLk6GJQsqaUBKTNV-1" source="yHoqbMhk2SUwJ_CR07r3-12" target="zkfFHV4jXpPFQw0GAbJ--13">
          <mxGeometry relative="1" as="geometry" />
        </mxCell>
        <mxCell id="yHoqbMhk2SUwJ_CR07r3-14" value="&amp;lt;AppUser , Long&amp;gt;" style="edgeLabel;html=1;align=center;verticalAlign=middle;resizable=0;points=[];" vertex="1" connectable="0" parent="yHoqbMhk2SUwJ_CR07r3-13">
          <mxGeometry x="-0.3563" y="2" relative="1" as="geometry">
            <mxPoint x="2" y="-23" as="offset" />
          </mxGeometry>
        </mxCell>
        <mxCell id="yHoqbMhk2SUwJ_CR07r3-172" style="edgeStyle=orthogonalEdgeStyle;rounded=0;sketch=0;jumpStyle=arc;orthogonalLoop=1;jettySize=auto;html=1;entryX=0.5;entryY=0;entryDx=0;entryDy=0;dashed=1;fontSize=14;endArrow=open;endFill=0;endSize=20;strokeColor=#FFFFFF;strokeWidth=3;" edge="1" parent="WIyWlLk6GJQsqaUBKTNV-1" source="yHoqbMhk2SUwJ_CR07r3-12" target="yHoqbMhk2SUwJ_CR07r3-93">
          <mxGeometry relative="1" as="geometry" />
        </mxCell>
        <mxCell id="yHoqbMhk2SUwJ_CR07r3-12" value="(I) AppUserRepository" style="swimlane;fontStyle=0;childLayout=stackLayout;horizontal=1;startSize=26;fillColor=none;horizontalStack=0;resizeParent=1;resizeParentMax=0;resizeLast=0;collapsible=1;marginBottom=0;" vertex="1" parent="WIyWlLk6GJQsqaUBKTNV-1">
          <mxGeometry x="276.5" y="620" width="315" height="156" as="geometry" />
        </mxCell>
        <mxCell id="yHoqbMhk2SUwJ_CR07r3-17" value="existsByEmail(email:String); boolean" style="text;align=left;verticalAlign=top;spacingLeft=4;spacingRight=4;overflow=hidden;rotatable=0;points=[[0,0.5],[1,0.5]];portConstraint=eastwest;" vertex="1" parent="yHoqbMhk2SUwJ_CR07r3-12">
          <mxGeometry y="26" width="315" height="26" as="geometry" />
        </mxCell>
        <mxCell id="yHoqbMhk2SUwJ_CR07r3-19" value="existsByUsername(username:String); boolean" style="text;align=left;verticalAlign=top;spacingLeft=4;spacingRight=4;overflow=hidden;rotatable=0;points=[[0,0.5],[1,0.5]];portConstraint=eastwest;" vertex="1" parent="yHoqbMhk2SUwJ_CR07r3-12">
          <mxGeometry y="52" width="315" height="26" as="geometry" />
        </mxCell>
        <mxCell id="yHoqbMhk2SUwJ_CR07r3-20" value="findByUsername(username:String); Optional&lt;AppUser&gt;" style="text;align=left;verticalAlign=top;spacingLeft=4;spacingRight=4;overflow=hidden;rotatable=0;points=[[0,0.5],[1,0.5]];portConstraint=eastwest;" vertex="1" parent="yHoqbMhk2SUwJ_CR07r3-12">
          <mxGeometry y="78" width="315" height="26" as="geometry" />
        </mxCell>
        <mxCell id="yHoqbMhk2SUwJ_CR07r3-18" value="getByEmail(email:String); AppUser" style="text;align=left;verticalAlign=top;spacingLeft=4;spacingRight=4;overflow=hidden;rotatable=0;points=[[0,0.5],[1,0.5]];portConstraint=eastwest;" vertex="1" parent="yHoqbMhk2SUwJ_CR07r3-12">
          <mxGeometry y="104" width="315" height="26" as="geometry" />
        </mxCell>
        <mxCell id="yHoqbMhk2SUwJ_CR07r3-21" value="getByUsername(username:String); AppUser" style="text;align=left;verticalAlign=top;spacingLeft=4;spacingRight=4;overflow=hidden;rotatable=0;points=[[0,0.5],[1,0.5]];portConstraint=eastwest;" vertex="1" parent="yHoqbMhk2SUwJ_CR07r3-12">
          <mxGeometry y="130" width="315" height="26" as="geometry" />
        </mxCell>
        <mxCell id="yHoqbMhk2SUwJ_CR07r3-23" style="edgeStyle=orthogonalEdgeStyle;rounded=0;orthogonalLoop=1;jettySize=auto;html=1;exitX=0.5;exitY=0;exitDx=0;exitDy=0;entryX=0;entryY=0.5;entryDx=0;entryDy=0;endArrow=block;endFill=0;endSize=20;strokeWidth=3;jumpStyle=gap;" edge="1" parent="WIyWlLk6GJQsqaUBKTNV-1" source="yHoqbMhk2SUwJ_CR07r3-22" target="yHoqbMhk2SUwJ_CR07r3-5">
          <mxGeometry relative="1" as="geometry" />
        </mxCell>
        <mxCell id="yHoqbMhk2SUwJ_CR07r3-24" value="&amp;lt;Client , Login &amp;gt;" style="edgeLabel;html=1;align=center;verticalAlign=middle;resizable=0;points=[];" vertex="1" connectable="0" parent="yHoqbMhk2SUwJ_CR07r3-23">
          <mxGeometry x="-0.3502" y="4" relative="1" as="geometry">
            <mxPoint as="offset" />
          </mxGeometry>
        </mxCell>
        <mxCell id="yHoqbMhk2SUwJ_CR07r3-174" style="edgeStyle=orthogonalEdgeStyle;rounded=0;sketch=0;jumpStyle=arc;orthogonalLoop=1;jettySize=auto;html=1;entryX=0.5;entryY=0;entryDx=0;entryDy=0;dashed=1;fontSize=14;endArrow=open;endFill=0;endSize=20;strokeColor=#FFFFFF;strokeWidth=3;" edge="1" parent="WIyWlLk6GJQsqaUBKTNV-1" source="yHoqbMhk2SUwJ_CR07r3-22" target="yHoqbMhk2SUwJ_CR07r3-106">
          <mxGeometry relative="1" as="geometry" />
        </mxCell>
        <mxCell id="yHoqbMhk2SUwJ_CR07r3-203" style="edgeStyle=orthogonalEdgeStyle;rounded=0;sketch=0;jumpStyle=arc;orthogonalLoop=1;jettySize=auto;html=1;exitX=0.5;exitY=0;exitDx=0;exitDy=0;entryX=0.502;entryY=1.003;entryDx=0;entryDy=0;entryPerimeter=0;fontSize=14;endArrow=none;endFill=0;endSize=20;strokeColor=#FFFFFF;strokeWidth=3;" edge="1" parent="WIyWlLk6GJQsqaUBKTNV-1" source="yHoqbMhk2SUwJ_CR07r3-22" target="yHoqbMhk2SUwJ_CR07r3-202">
          <mxGeometry relative="1" as="geometry" />
        </mxCell>
        <mxCell id="yHoqbMhk2SUwJ_CR07r3-233" style="edgeStyle=orthogonalEdgeStyle;rounded=0;sketch=0;jumpStyle=arc;orthogonalLoop=1;jettySize=auto;html=1;exitX=0.25;exitY=0;exitDx=0;exitDy=0;entryX=0.484;entryY=1.002;entryDx=0;entryDy=0;entryPerimeter=0;fontSize=14;endArrow=none;endFill=0;endSize=20;strokeColor=#FFFFFF;strokeWidth=3;fillColor=#b0e3e6;" edge="1" parent="WIyWlLk6GJQsqaUBKTNV-1" source="yHoqbMhk2SUwJ_CR07r3-22" target="yHoqbMhk2SUwJ_CR07r3-230">
          <mxGeometry relative="1" as="geometry">
            <Array as="points">
              <mxPoint x="-930" y="620" />
              <mxPoint x="-930" y="130" />
              <mxPoint x="-1663" y="130" />
            </Array>
          </mxGeometry>
        </mxCell>
        <mxCell id="yHoqbMhk2SUwJ_CR07r3-22" value="(I) ClientRepository" style="swimlane;fontStyle=0;childLayout=stackLayout;horizontal=1;startSize=26;fillColor=none;horizontalStack=0;resizeParent=1;resizeParentMax=0;resizeLast=0;collapsible=1;marginBottom=0;" vertex="1" parent="WIyWlLk6GJQsqaUBKTNV-1">
          <mxGeometry x="-1030" y="620" width="390" height="156" as="geometry" />
        </mxCell>
        <mxCell id="yHoqbMhk2SUwJ_CR07r3-25" value="existsByPersonalNumber(personalNumber:String); boolean" style="text;align=left;verticalAlign=top;spacingLeft=4;spacingRight=4;overflow=hidden;rotatable=0;points=[[0,0.5],[1,0.5]];portConstraint=eastwest;" vertex="1" parent="yHoqbMhk2SUwJ_CR07r3-22">
          <mxGeometry y="26" width="390" height="26" as="geometry" />
        </mxCell>
        <mxCell id="yHoqbMhk2SUwJ_CR07r3-26" value="existsByIdentificationNumber(identificationNumber:String); boolean" style="text;align=left;verticalAlign=top;spacingLeft=4;spacingRight=4;overflow=hidden;rotatable=0;points=[[0,0.5],[1,0.5]];portConstraint=eastwest;" vertex="1" parent="yHoqbMhk2SUwJ_CR07r3-22">
          <mxGeometry y="52" width="390" height="26" as="geometry" />
        </mxCell>
        <mxCell id="yHoqbMhk2SUwJ_CR07r3-27" value="existsByAccountNumber(accountNumber:String); boolean" style="text;align=left;verticalAlign=top;spacingLeft=4;spacingRight=4;overflow=hidden;rotatable=0;points=[[0,0.5],[1,0.5]];portConstraint=eastwest;" vertex="1" parent="yHoqbMhk2SUwJ_CR07r3-22">
          <mxGeometry y="78" width="390" height="26" as="geometry" />
        </mxCell>
        <mxCell id="yHoqbMhk2SUwJ_CR07r3-29" value="findByAccountNumber(accountNumber:String); Client" style="text;align=left;verticalAlign=top;spacingLeft=4;spacingRight=4;overflow=hidden;rotatable=0;points=[[0,0.5],[1,0.5]];portConstraint=eastwest;" vertex="1" parent="yHoqbMhk2SUwJ_CR07r3-22">
          <mxGeometry y="104" width="390" height="26" as="geometry" />
        </mxCell>
        <mxCell id="yHoqbMhk2SUwJ_CR07r3-28" value="getByUser(user:AppUser); Client" style="text;align=left;verticalAlign=top;spacingLeft=4;spacingRight=4;overflow=hidden;rotatable=0;points=[[0,0.5],[1,0.5]];portConstraint=eastwest;" vertex="1" parent="yHoqbMhk2SUwJ_CR07r3-22">
          <mxGeometry y="130" width="390" height="26" as="geometry" />
        </mxCell>
        <mxCell id="yHoqbMhk2SUwJ_CR07r3-31" style="edgeStyle=orthogonalEdgeStyle;rounded=0;orthogonalLoop=1;jettySize=auto;html=1;exitX=0;exitY=0.5;exitDx=0;exitDy=0;exitPerimeter=0;entryX=0.75;entryY=0;entryDx=0;entryDy=0;endArrow=none;endFill=0;endSize=6;strokeWidth=2;" edge="1" parent="WIyWlLk6GJQsqaUBKTNV-1" source="yHoqbMhk2SUwJ_CR07r3-30" target="zkfFHV4jXpPFQw0GAbJ--13">
          <mxGeometry relative="1" as="geometry" />
        </mxCell>
        <mxCell id="yHoqbMhk2SUwJ_CR07r3-30" value="Spring Interface" style="shape=note;size=20;whiteSpace=wrap;html=1;" vertex="1" parent="WIyWlLk6GJQsqaUBKTNV-1">
          <mxGeometry x="544" y="40" width="100" height="60" as="geometry" />
        </mxCell>
        <mxCell id="yHoqbMhk2SUwJ_CR07r3-33" style="edgeStyle=orthogonalEdgeStyle;rounded=0;orthogonalLoop=1;jettySize=auto;html=1;exitX=0.5;exitY=0;exitDx=0;exitDy=0;entryX=-0.009;entryY=0.09;entryDx=0;entryDy=0;entryPerimeter=0;endArrow=block;endFill=0;endSize=20;strokeWidth=3;jumpStyle=gap;" edge="1" parent="WIyWlLk6GJQsqaUBKTNV-1" source="yHoqbMhk2SUwJ_CR07r3-32" target="yHoqbMhk2SUwJ_CR07r3-4">
          <mxGeometry relative="1" as="geometry" />
        </mxCell>
        <mxCell id="yHoqbMhk2SUwJ_CR07r3-34" value="&amp;lt;CreditCard , Long&amp;gt;" style="edgeLabel;html=1;align=center;verticalAlign=middle;resizable=0;points=[];" vertex="1" connectable="0" parent="yHoqbMhk2SUwJ_CR07r3-33">
          <mxGeometry x="-0.6896" y="2" relative="1" as="geometry">
            <mxPoint as="offset" />
          </mxGeometry>
        </mxCell>
        <mxCell id="yHoqbMhk2SUwJ_CR07r3-175" style="edgeStyle=orthogonalEdgeStyle;rounded=0;sketch=0;jumpStyle=arc;orthogonalLoop=1;jettySize=auto;html=1;entryX=0.5;entryY=0;entryDx=0;entryDy=0;dashed=1;fontSize=14;endArrow=open;endFill=0;endSize=20;strokeColor=#FFFFFF;strokeWidth=3;" edge="1" parent="WIyWlLk6GJQsqaUBKTNV-1" source="yHoqbMhk2SUwJ_CR07r3-32" target="yHoqbMhk2SUwJ_CR07r3-111">
          <mxGeometry relative="1" as="geometry" />
        </mxCell>
        <mxCell id="yHoqbMhk2SUwJ_CR07r3-236" style="edgeStyle=orthogonalEdgeStyle;rounded=0;sketch=0;jumpStyle=gap;orthogonalLoop=1;jettySize=auto;html=1;exitX=0.5;exitY=0;exitDx=0;exitDy=0;entryX=0.5;entryY=1;entryDx=0;entryDy=0;entryPerimeter=0;fontSize=14;endArrow=none;endFill=0;endSize=20;strokeColor=#FFFFFF;strokeWidth=3;" edge="1" parent="WIyWlLk6GJQsqaUBKTNV-1" source="yHoqbMhk2SUwJ_CR07r3-32" target="yHoqbMhk2SUwJ_CR07r3-209">
          <mxGeometry relative="1" as="geometry" />
        </mxCell>
        <mxCell id="yHoqbMhk2SUwJ_CR07r3-32" value="(I) CreditCardRepository" style="swimlane;fontStyle=0;childLayout=stackLayout;horizontal=1;startSize=26;fillColor=none;horizontalStack=0;resizeParent=1;resizeParentMax=0;resizeLast=0;collapsible=1;marginBottom=0;" vertex="1" parent="WIyWlLk6GJQsqaUBKTNV-1">
          <mxGeometry x="-1560" y="620" width="320" height="52" as="geometry" />
        </mxCell>
        <mxCell id="yHoqbMhk2SUwJ_CR07r3-35" value="findAllByClient_clientId(clientId: Long); List&lt;CreditCard&gt;" style="text;align=left;verticalAlign=top;spacingLeft=4;spacingRight=4;overflow=hidden;rotatable=0;points=[[0,0.5],[1,0.5]];portConstraint=eastwest;" vertex="1" parent="yHoqbMhk2SUwJ_CR07r3-32">
          <mxGeometry y="26" width="320" height="26" as="geometry" />
        </mxCell>
        <mxCell id="yHoqbMhk2SUwJ_CR07r3-38" style="edgeStyle=orthogonalEdgeStyle;rounded=0;orthogonalLoop=1;jettySize=auto;html=1;exitX=0.5;exitY=0;exitDx=0;exitDy=0;entryX=0;entryY=0.5;entryDx=0;entryDy=0;endArrow=block;endFill=0;endSize=20;strokeWidth=3;jumpStyle=gap;" edge="1" parent="WIyWlLk6GJQsqaUBKTNV-1" source="yHoqbMhk2SUwJ_CR07r3-36" target="yHoqbMhk2SUwJ_CR07r3-2">
          <mxGeometry relative="1" as="geometry" />
        </mxCell>
        <mxCell id="yHoqbMhk2SUwJ_CR07r3-39" value="&amp;lt;CyclicalTransfer , Long&amp;gt;" style="edgeLabel;html=1;align=center;verticalAlign=middle;resizable=0;points=[];" vertex="1" connectable="0" parent="yHoqbMhk2SUwJ_CR07r3-38">
          <mxGeometry x="-0.7597" y="2" relative="1" as="geometry">
            <mxPoint as="offset" />
          </mxGeometry>
        </mxCell>
        <mxCell id="yHoqbMhk2SUwJ_CR07r3-176" style="edgeStyle=orthogonalEdgeStyle;rounded=0;sketch=0;jumpStyle=arc;orthogonalLoop=1;jettySize=auto;html=1;entryX=0.5;entryY=0;entryDx=0;entryDy=0;dashed=1;fontSize=14;endArrow=open;endFill=0;endSize=20;strokeColor=#FFFFFF;strokeWidth=3;" edge="1" parent="WIyWlLk6GJQsqaUBKTNV-1" source="yHoqbMhk2SUwJ_CR07r3-36" target="yHoqbMhk2SUwJ_CR07r3-115">
          <mxGeometry relative="1" as="geometry" />
        </mxCell>
        <mxCell id="yHoqbMhk2SUwJ_CR07r3-217" style="edgeStyle=orthogonalEdgeStyle;rounded=0;sketch=0;jumpStyle=arc;orthogonalLoop=1;jettySize=auto;html=1;exitX=0.5;exitY=0;exitDx=0;exitDy=0;fontSize=14;endArrow=none;endFill=0;endSize=20;strokeColor=#FFFFFF;strokeWidth=3;entryX=0.455;entryY=0.996;entryDx=0;entryDy=0;entryPerimeter=0;" edge="1" parent="WIyWlLk6GJQsqaUBKTNV-1" source="yHoqbMhk2SUwJ_CR07r3-36" target="yHoqbMhk2SUwJ_CR07r3-215">
          <mxGeometry relative="1" as="geometry">
            <mxPoint x="-1911" y="-610" as="targetPoint" />
          </mxGeometry>
        </mxCell>
        <mxCell id="yHoqbMhk2SUwJ_CR07r3-36" value="(I) CyclicalTransferRepository" style="swimlane;fontStyle=0;childLayout=stackLayout;horizontal=1;startSize=26;fillColor=none;horizontalStack=0;resizeParent=1;resizeParentMax=0;resizeLast=0;collapsible=1;marginBottom=0;" vertex="1" parent="WIyWlLk6GJQsqaUBKTNV-1">
          <mxGeometry x="-2100" y="620" width="330" height="52" as="geometry" />
        </mxCell>
        <mxCell id="yHoqbMhk2SUwJ_CR07r3-37" value="findAllByClient_clientId(clientId: Long); List&lt;CyclicalTransfer&gt;" style="text;align=left;verticalAlign=top;spacingLeft=4;spacingRight=4;overflow=hidden;rotatable=0;points=[[0,0.5],[1,0.5]];portConstraint=eastwest;" vertex="1" parent="yHoqbMhk2SUwJ_CR07r3-36">
          <mxGeometry y="26" width="330" height="26" as="geometry" />
        </mxCell>
        <mxCell id="yHoqbMhk2SUwJ_CR07r3-46" style="edgeStyle=orthogonalEdgeStyle;rounded=0;orthogonalLoop=1;jettySize=auto;html=1;exitX=0.5;exitY=0;exitDx=0;exitDy=0;entryX=0;entryY=0.077;entryDx=0;entryDy=0;entryPerimeter=0;endArrow=block;endFill=0;endSize=20;strokeWidth=3;jumpStyle=gap;" edge="1" parent="WIyWlLk6GJQsqaUBKTNV-1" source="yHoqbMhk2SUwJ_CR07r3-40" target="yHoqbMhk2SUwJ_CR07r3-1">
          <mxGeometry relative="1" as="geometry" />
        </mxCell>
        <mxCell id="yHoqbMhk2SUwJ_CR07r3-47" value="&amp;lt;Employee , Long&amp;gt;" style="edgeLabel;html=1;align=center;verticalAlign=middle;resizable=0;points=[];" vertex="1" connectable="0" parent="yHoqbMhk2SUwJ_CR07r3-46">
          <mxGeometry x="-0.7937" y="2" relative="1" as="geometry">
            <mxPoint as="offset" />
          </mxGeometry>
        </mxCell>
        <mxCell id="yHoqbMhk2SUwJ_CR07r3-177" style="edgeStyle=orthogonalEdgeStyle;rounded=0;sketch=0;jumpStyle=arc;orthogonalLoop=1;jettySize=auto;html=1;entryX=0.5;entryY=0;entryDx=0;entryDy=0;dashed=1;fontSize=14;endArrow=open;endFill=0;endSize=20;strokeColor=#FFFFFF;strokeWidth=3;" edge="1" parent="WIyWlLk6GJQsqaUBKTNV-1" source="yHoqbMhk2SUwJ_CR07r3-40" target="yHoqbMhk2SUwJ_CR07r3-119">
          <mxGeometry relative="1" as="geometry" />
        </mxCell>
        <mxCell id="yHoqbMhk2SUwJ_CR07r3-223" style="edgeStyle=orthogonalEdgeStyle;rounded=0;sketch=0;jumpStyle=arc;orthogonalLoop=1;jettySize=auto;html=1;exitX=0.5;exitY=0;exitDx=0;exitDy=0;entryX=0.412;entryY=1.003;entryDx=0;entryDy=0;entryPerimeter=0;fontSize=14;endArrow=none;endFill=0;endSize=20;strokeColor=#FFFFFF;strokeWidth=3;" edge="1" parent="WIyWlLk6GJQsqaUBKTNV-1" source="yHoqbMhk2SUwJ_CR07r3-40" target="yHoqbMhk2SUwJ_CR07r3-222">
          <mxGeometry relative="1" as="geometry" />
        </mxCell>
        <mxCell id="yHoqbMhk2SUwJ_CR07r3-234" style="edgeStyle=orthogonalEdgeStyle;rounded=0;sketch=0;jumpStyle=arc;orthogonalLoop=1;jettySize=auto;html=1;exitX=0.75;exitY=0;exitDx=0;exitDy=0;entryX=0.467;entryY=1.002;entryDx=0;entryDy=0;entryPerimeter=0;fontSize=14;endArrow=none;endFill=0;endSize=20;strokeColor=#FFFFFF;strokeWidth=3;fillColor=#b0e3e6;" edge="1" parent="WIyWlLk6GJQsqaUBKTNV-1" source="yHoqbMhk2SUwJ_CR07r3-40" target="yHoqbMhk2SUwJ_CR07r3-230">
          <mxGeometry relative="1" as="geometry">
            <Array as="points">
              <mxPoint x="-2382" y="130" />
              <mxPoint x="-1670" y="130" />
            </Array>
          </mxGeometry>
        </mxCell>
        <mxCell id="yHoqbMhk2SUwJ_CR07r3-40" value="(I) EmployeeRepository" style="swimlane;fontStyle=0;childLayout=stackLayout;horizontal=1;startSize=26;fillColor=none;horizontalStack=0;resizeParent=1;resizeParentMax=0;resizeLast=0;collapsible=1;marginBottom=0;" vertex="1" parent="WIyWlLk6GJQsqaUBKTNV-1">
          <mxGeometry x="-2630" y="620" width="330" height="104" as="geometry" />
        </mxCell>
        <mxCell id="yHoqbMhk2SUwJ_CR07r3-45" value="existsByIdentificationNumber(identificationNumber:String); boolean" style="text;align=left;verticalAlign=top;spacingLeft=4;spacingRight=4;overflow=hidden;rotatable=0;points=[[0,0.5],[1,0.5]];portConstraint=eastwest;" vertex="1" parent="yHoqbMhk2SUwJ_CR07r3-40">
          <mxGeometry y="26" width="330" height="26" as="geometry" />
        </mxCell>
        <mxCell id="yHoqbMhk2SUwJ_CR07r3-44" value="existsByPersonalNumber(personalNumber:String); boolean" style="text;align=left;verticalAlign=top;spacingLeft=4;spacingRight=4;overflow=hidden;rotatable=0;points=[[0,0.5],[1,0.5]];portConstraint=eastwest;" vertex="1" parent="yHoqbMhk2SUwJ_CR07r3-40">
          <mxGeometry y="52" width="330" height="26" as="geometry" />
        </mxCell>
        <mxCell id="yHoqbMhk2SUwJ_CR07r3-42" value="getByUser(user:AppUser); Employee" style="text;align=left;verticalAlign=top;spacingLeft=4;spacingRight=4;overflow=hidden;rotatable=0;points=[[0,0.5],[1,0.5]];portConstraint=eastwest;" vertex="1" parent="yHoqbMhk2SUwJ_CR07r3-40">
          <mxGeometry y="78" width="330" height="26" as="geometry" />
        </mxCell>
        <mxCell id="yHoqbMhk2SUwJ_CR07r3-54" style="edgeStyle=orthogonalEdgeStyle;rounded=0;orthogonalLoop=1;jettySize=auto;html=1;exitX=0.5;exitY=0;exitDx=0;exitDy=0;endArrow=block;endFill=0;endSize=20;strokeWidth=3;" edge="1" parent="WIyWlLk6GJQsqaUBKTNV-1" source="yHoqbMhk2SUwJ_CR07r3-48">
          <mxGeometry relative="1" as="geometry">
            <mxPoint x="474" y="380" as="targetPoint" />
          </mxGeometry>
        </mxCell>
        <mxCell id="yHoqbMhk2SUwJ_CR07r3-55" value="&amp;lt;LoanRate , Long&amp;gt;" style="edgeLabel;html=1;align=center;verticalAlign=middle;resizable=0;points=[];" vertex="1" connectable="0" parent="yHoqbMhk2SUwJ_CR07r3-54">
          <mxGeometry x="-0.0633" y="-1" relative="1" as="geometry">
            <mxPoint as="offset" />
          </mxGeometry>
        </mxCell>
        <mxCell id="yHoqbMhk2SUwJ_CR07r3-171" style="edgeStyle=orthogonalEdgeStyle;rounded=0;sketch=0;jumpStyle=arc;orthogonalLoop=1;jettySize=auto;html=1;entryX=0.5;entryY=0;entryDx=0;entryDy=0;dashed=1;fontSize=14;endArrow=open;endFill=0;endSize=20;strokeColor=#FFFFFF;strokeWidth=3;" edge="1" parent="WIyWlLk6GJQsqaUBKTNV-1" source="yHoqbMhk2SUwJ_CR07r3-48" target="yHoqbMhk2SUwJ_CR07r3-123">
          <mxGeometry relative="1" as="geometry" />
        </mxCell>
        <mxCell id="yHoqbMhk2SUwJ_CR07r3-243" style="edgeStyle=orthogonalEdgeStyle;rounded=0;sketch=0;jumpStyle=gap;orthogonalLoop=1;jettySize=auto;html=1;exitX=0.5;exitY=0;exitDx=0;exitDy=0;entryX=0.513;entryY=0.992;entryDx=0;entryDy=0;entryPerimeter=0;fontSize=14;endArrow=none;endFill=0;endSize=20;strokeColor=#FFFFFF;strokeWidth=3;" edge="1" parent="WIyWlLk6GJQsqaUBKTNV-1" source="yHoqbMhk2SUwJ_CR07r3-48" target="yHoqbMhk2SUwJ_CR07r3-242">
          <mxGeometry relative="1" as="geometry" />
        </mxCell>
        <mxCell id="yHoqbMhk2SUwJ_CR07r3-48" value="(I) LoanRateRepository" style="swimlane;fontStyle=0;childLayout=stackLayout;horizontal=1;startSize=26;fillColor=none;horizontalStack=0;resizeParent=1;resizeParentMax=0;resizeLast=0;collapsible=1;marginBottom=0;" vertex="1" parent="WIyWlLk6GJQsqaUBKTNV-1">
          <mxGeometry x="840" y="620" width="470" height="104" as="geometry" />
        </mxCell>
        <mxCell id="yHoqbMhk2SUwJ_CR07r3-49" value="findAllByLoan_loanId(loanId: Long); List&lt;LoanRate&gt;" style="text;align=left;verticalAlign=top;spacingLeft=4;spacingRight=4;overflow=hidden;rotatable=0;points=[[0,0.5],[1,0.5]];portConstraint=eastwest;" vertex="1" parent="yHoqbMhk2SUwJ_CR07r3-48">
          <mxGeometry y="26" width="470" height="26" as="geometry" />
        </mxCell>
        <mxCell id="yHoqbMhk2SUwJ_CR07r3-50" value="existsByPayDateBetween(dateBefore: LocalDate , dateAfter: LocalDate); boolean" style="text;align=left;verticalAlign=top;spacingLeft=4;spacingRight=4;overflow=hidden;rotatable=0;points=[[0,0.5],[1,0.5]];portConstraint=eastwest;" vertex="1" parent="yHoqbMhk2SUwJ_CR07r3-48">
          <mxGeometry y="52" width="470" height="26" as="geometry" />
        </mxCell>
        <mxCell id="yHoqbMhk2SUwJ_CR07r3-51" value="countByLoan_loanId(loanId: Long); int" style="text;align=left;verticalAlign=top;spacingLeft=4;spacingRight=4;overflow=hidden;rotatable=0;points=[[0,0.5],[1,0.5]];portConstraint=eastwest;" vertex="1" parent="yHoqbMhk2SUwJ_CR07r3-48">
          <mxGeometry y="78" width="470" height="26" as="geometry" />
        </mxCell>
        <mxCell id="yHoqbMhk2SUwJ_CR07r3-61" style="edgeStyle=orthogonalEdgeStyle;rounded=0;orthogonalLoop=1;jettySize=auto;html=1;exitX=0.5;exitY=0;exitDx=0;exitDy=0;entryX=1;entryY=0.5;entryDx=0;entryDy=0;endArrow=block;endFill=0;endSize=20;strokeWidth=3;" edge="1" parent="WIyWlLk6GJQsqaUBKTNV-1" source="yHoqbMhk2SUwJ_CR07r3-56" target="yHoqbMhk2SUwJ_CR07r3-5">
          <mxGeometry relative="1" as="geometry" />
        </mxCell>
        <mxCell id="yHoqbMhk2SUwJ_CR07r3-62" value="&amp;lt;Loan , Long&amp;gt;" style="edgeLabel;html=1;align=center;verticalAlign=middle;resizable=0;points=[];" vertex="1" connectable="0" parent="yHoqbMhk2SUwJ_CR07r3-61">
          <mxGeometry x="-0.7783" y="-1" relative="1" as="geometry">
            <mxPoint as="offset" />
          </mxGeometry>
        </mxCell>
        <mxCell id="yHoqbMhk2SUwJ_CR07r3-170" style="edgeStyle=orthogonalEdgeStyle;rounded=0;sketch=0;jumpStyle=arc;orthogonalLoop=1;jettySize=auto;html=1;entryX=0.5;entryY=0;entryDx=0;entryDy=0;dashed=1;fontSize=14;endArrow=open;endFill=0;endSize=20;strokeColor=#FFFFFF;strokeWidth=3;" edge="1" parent="WIyWlLk6GJQsqaUBKTNV-1" source="yHoqbMhk2SUwJ_CR07r3-56" target="yHoqbMhk2SUwJ_CR07r3-127">
          <mxGeometry relative="1" as="geometry" />
        </mxCell>
        <mxCell id="yHoqbMhk2SUwJ_CR07r3-249" style="edgeStyle=orthogonalEdgeStyle;rounded=0;sketch=0;jumpStyle=gap;orthogonalLoop=1;jettySize=auto;html=1;exitX=0.5;exitY=0;exitDx=0;exitDy=0;entryX=0.5;entryY=1;entryDx=0;entryDy=0;fontSize=14;endArrow=none;endFill=0;endSize=20;strokeColor=#FFFFFF;strokeWidth=3;" edge="1" parent="WIyWlLk6GJQsqaUBKTNV-1" source="yHoqbMhk2SUwJ_CR07r3-56" target="yHoqbMhk2SUwJ_CR07r3-244">
          <mxGeometry relative="1" as="geometry" />
        </mxCell>
        <mxCell id="yHoqbMhk2SUwJ_CR07r3-56" value="(I) LoanRepository" style="swimlane;fontStyle=0;childLayout=stackLayout;horizontal=1;startSize=26;fillColor=none;horizontalStack=0;resizeParent=1;resizeParentMax=0;resizeLast=0;collapsible=1;marginBottom=0;" vertex="1" parent="WIyWlLk6GJQsqaUBKTNV-1">
          <mxGeometry x="1480" y="620" width="500" height="78" as="geometry" />
        </mxCell>
        <mxCell id="yHoqbMhk2SUwJ_CR07r3-57" value="findByClient_clientIdAndIsActive(clientId: Long, isActive: boolean); Optional&lt;Loan&gt;" style="text;align=left;verticalAlign=top;spacingLeft=4;spacingRight=4;overflow=hidden;rotatable=0;points=[[0,0.5],[1,0.5]];portConstraint=eastwest;" vertex="1" parent="yHoqbMhk2SUwJ_CR07r3-56">
          <mxGeometry y="26" width="500" height="26" as="geometry" />
        </mxCell>
        <mxCell id="yHoqbMhk2SUwJ_CR07r3-60" value="findAllByClient_clientId(clientId: Long); List&lt;Loan&gt;" style="text;align=left;verticalAlign=top;spacingLeft=4;spacingRight=4;overflow=hidden;rotatable=0;points=[[0,0.5],[1,0.5]];portConstraint=eastwest;" vertex="1" parent="yHoqbMhk2SUwJ_CR07r3-56">
          <mxGeometry y="52" width="500" height="26" as="geometry" />
        </mxCell>
        <mxCell id="yHoqbMhk2SUwJ_CR07r3-66" style="edgeStyle=orthogonalEdgeStyle;rounded=0;orthogonalLoop=1;jettySize=auto;html=1;exitX=0.5;exitY=0;exitDx=0;exitDy=0;entryX=0.998;entryY=-0.083;entryDx=0;entryDy=0;entryPerimeter=0;endArrow=block;endFill=0;endSize=20;strokeWidth=3;" edge="1" parent="WIyWlLk6GJQsqaUBKTNV-1" source="yHoqbMhk2SUwJ_CR07r3-63" target="yHoqbMhk2SUwJ_CR07r3-4">
          <mxGeometry relative="1" as="geometry" />
        </mxCell>
        <mxCell id="yHoqbMhk2SUwJ_CR07r3-67" value="&amp;lt;Order, Long&amp;gt;" style="edgeLabel;html=1;align=center;verticalAlign=middle;resizable=0;points=[];" vertex="1" connectable="0" parent="yHoqbMhk2SUwJ_CR07r3-66">
          <mxGeometry x="-0.8299" relative="1" as="geometry">
            <mxPoint as="offset" />
          </mxGeometry>
        </mxCell>
        <mxCell id="yHoqbMhk2SUwJ_CR07r3-169" style="edgeStyle=orthogonalEdgeStyle;rounded=0;sketch=0;jumpStyle=arc;orthogonalLoop=1;jettySize=auto;html=1;exitX=0.5;exitY=1;exitDx=0;exitDy=0;entryX=0.5;entryY=0;entryDx=0;entryDy=0;dashed=1;fontSize=14;endArrow=open;endFill=0;endSize=20;strokeColor=#FFFFFF;strokeWidth=3;" edge="1" parent="WIyWlLk6GJQsqaUBKTNV-1" source="yHoqbMhk2SUwJ_CR07r3-63" target="yHoqbMhk2SUwJ_CR07r3-133">
          <mxGeometry relative="1" as="geometry" />
        </mxCell>
        <mxCell id="yHoqbMhk2SUwJ_CR07r3-257" style="edgeStyle=orthogonalEdgeStyle;rounded=0;sketch=0;jumpStyle=gap;orthogonalLoop=1;jettySize=auto;html=1;exitX=0.5;exitY=0;exitDx=0;exitDy=0;entryX=0.515;entryY=1.001;entryDx=0;entryDy=0;entryPerimeter=0;fontSize=14;endArrow=none;endFill=0;endSize=20;strokeColor=#FFFFFF;strokeWidth=3;" edge="1" parent="WIyWlLk6GJQsqaUBKTNV-1" source="yHoqbMhk2SUwJ_CR07r3-63" target="yHoqbMhk2SUwJ_CR07r3-256">
          <mxGeometry relative="1" as="geometry" />
        </mxCell>
        <mxCell id="yHoqbMhk2SUwJ_CR07r3-63" value="(I) OrderRepository" style="swimlane;fontStyle=0;childLayout=stackLayout;horizontal=1;startSize=26;fillColor=none;horizontalStack=0;resizeParent=1;resizeParentMax=0;resizeLast=0;collapsible=1;marginBottom=0;" vertex="1" parent="WIyWlLk6GJQsqaUBKTNV-1">
          <mxGeometry x="2080" y="620" width="140" height="52" as="geometry" />
        </mxCell>
        <mxCell id="yHoqbMhk2SUwJ_CR07r3-69" style="edgeStyle=orthogonalEdgeStyle;rounded=0;orthogonalLoop=1;jettySize=auto;html=1;exitX=0.5;exitY=0;exitDx=0;exitDy=0;entryX=1;entryY=0.5;entryDx=0;entryDy=0;endArrow=block;endFill=0;endSize=20;strokeWidth=3;" edge="1" parent="WIyWlLk6GJQsqaUBKTNV-1" source="yHoqbMhk2SUwJ_CR07r3-68" target="yHoqbMhk2SUwJ_CR07r3-2">
          <mxGeometry relative="1" as="geometry" />
        </mxCell>
        <mxCell id="yHoqbMhk2SUwJ_CR07r3-70" value="&amp;lt;Visit , Long&amp;gt;" style="edgeLabel;html=1;align=center;verticalAlign=middle;resizable=0;points=[];" vertex="1" connectable="0" parent="yHoqbMhk2SUwJ_CR07r3-69">
          <mxGeometry x="-0.8512" y="1" relative="1" as="geometry">
            <mxPoint y="-1" as="offset" />
          </mxGeometry>
        </mxCell>
        <mxCell id="yHoqbMhk2SUwJ_CR07r3-168" style="edgeStyle=orthogonalEdgeStyle;rounded=0;sketch=0;jumpStyle=arc;orthogonalLoop=1;jettySize=auto;html=1;exitX=0.5;exitY=1;exitDx=0;exitDy=0;entryX=0.5;entryY=0;entryDx=0;entryDy=0;dashed=1;fontSize=14;endArrow=open;endFill=0;endSize=20;strokeColor=#FFFFFF;strokeWidth=3;" edge="1" parent="WIyWlLk6GJQsqaUBKTNV-1" source="yHoqbMhk2SUwJ_CR07r3-68" target="yHoqbMhk2SUwJ_CR07r3-141">
          <mxGeometry relative="1" as="geometry" />
        </mxCell>
        <mxCell id="yHoqbMhk2SUwJ_CR07r3-263" style="edgeStyle=orthogonalEdgeStyle;rounded=0;sketch=0;jumpStyle=gap;orthogonalLoop=1;jettySize=auto;html=1;exitX=0.5;exitY=0;exitDx=0;exitDy=0;entryX=0.531;entryY=1;entryDx=0;entryDy=0;entryPerimeter=0;fontSize=14;endArrow=none;endFill=0;endSize=20;strokeColor=#FFFFFF;strokeWidth=3;" edge="1" parent="WIyWlLk6GJQsqaUBKTNV-1" source="yHoqbMhk2SUwJ_CR07r3-68" target="yHoqbMhk2SUwJ_CR07r3-262">
          <mxGeometry relative="1" as="geometry" />
        </mxCell>
        <mxCell id="yHoqbMhk2SUwJ_CR07r3-68" value="(I) VisitRepository" style="swimlane;fontStyle=0;childLayout=stackLayout;horizontal=1;startSize=26;fillColor=none;horizontalStack=0;resizeParent=1;resizeParentMax=0;resizeLast=0;collapsible=1;marginBottom=0;" vertex="1" parent="WIyWlLk6GJQsqaUBKTNV-1">
          <mxGeometry x="2490" y="620" width="140" height="52" as="geometry" />
        </mxCell>
        <mxCell id="yHoqbMhk2SUwJ_CR07r3-72" style="edgeStyle=orthogonalEdgeStyle;rounded=0;orthogonalLoop=1;jettySize=auto;html=1;exitX=0.5;exitY=0;exitDx=0;exitDy=0;entryX=1;entryY=0.077;entryDx=0;entryDy=0;entryPerimeter=0;endArrow=block;endFill=0;endSize=20;strokeWidth=3;strokeColor=#FFFFFF;" edge="1" parent="WIyWlLk6GJQsqaUBKTNV-1" source="yHoqbMhk2SUwJ_CR07r3-71" target="yHoqbMhk2SUwJ_CR07r3-1">
          <mxGeometry relative="1" as="geometry" />
        </mxCell>
        <mxCell id="yHoqbMhk2SUwJ_CR07r3-73" value="&amp;lt;Transfer , Long&amp;gt;" style="edgeLabel;html=1;align=center;verticalAlign=middle;resizable=0;points=[];" vertex="1" connectable="0" parent="yHoqbMhk2SUwJ_CR07r3-72">
          <mxGeometry x="-0.8657" y="-1" relative="1" as="geometry">
            <mxPoint y="-1" as="offset" />
          </mxGeometry>
        </mxCell>
        <mxCell id="yHoqbMhk2SUwJ_CR07r3-167" style="edgeStyle=orthogonalEdgeStyle;rounded=0;sketch=0;jumpStyle=arc;orthogonalLoop=1;jettySize=auto;html=1;entryX=0.5;entryY=0;entryDx=0;entryDy=0;fontSize=14;endArrow=open;endFill=0;endSize=20;strokeColor=#FFFFFF;dashed=1;strokeWidth=3;" edge="1" parent="WIyWlLk6GJQsqaUBKTNV-1" source="yHoqbMhk2SUwJ_CR07r3-71" target="yHoqbMhk2SUwJ_CR07r3-137">
          <mxGeometry relative="1" as="geometry" />
        </mxCell>
        <mxCell id="yHoqbMhk2SUwJ_CR07r3-269" style="edgeStyle=orthogonalEdgeStyle;rounded=0;sketch=0;jumpStyle=gap;orthogonalLoop=1;jettySize=auto;html=1;exitX=0.5;exitY=0;exitDx=0;exitDy=0;entryX=0.526;entryY=0.996;entryDx=0;entryDy=0;entryPerimeter=0;fontSize=14;endArrow=none;endFill=0;endSize=20;strokeColor=#FFFFFF;strokeWidth=3;" edge="1" parent="WIyWlLk6GJQsqaUBKTNV-1" source="yHoqbMhk2SUwJ_CR07r3-71" target="yHoqbMhk2SUwJ_CR07r3-268">
          <mxGeometry relative="1" as="geometry" />
        </mxCell>
        <mxCell id="yHoqbMhk2SUwJ_CR07r3-71" value="(I) TransferRepository" style="swimlane;fontStyle=0;childLayout=stackLayout;horizontal=1;startSize=26;fillColor=none;horizontalStack=0;resizeParent=1;resizeParentMax=0;resizeLast=0;collapsible=1;marginBottom=0;" vertex="1" parent="WIyWlLk6GJQsqaUBKTNV-1">
          <mxGeometry x="2860" y="620" width="340" height="52" as="geometry" />
        </mxCell>
        <mxCell id="yHoqbMhk2SUwJ_CR07r3-74" value="findAllByClient_clientId(clientId: Long);  List&lt;Transfer&gt;" style="text;align=left;verticalAlign=top;spacingLeft=4;spacingRight=4;overflow=hidden;rotatable=0;points=[[0,0.5],[1,0.5]];portConstraint=eastwest;" vertex="1" parent="yHoqbMhk2SUwJ_CR07r3-71">
          <mxGeometry y="26" width="340" height="26" as="geometry" />
        </mxCell>
        <mxCell id="yHoqbMhk2SUwJ_CR07r3-76" value="&lt;font style=&quot;font-size: 30px&quot;&gt;All Interfaces annotated with&amp;nbsp;&lt;br&gt;@Repository&lt;/font&gt;" style="shape=note;size=20;whiteSpace=wrap;html=1;" vertex="1" parent="WIyWlLk6GJQsqaUBKTNV-1">
          <mxGeometry x="3301" y="-20" width="659" height="140" as="geometry" />
        </mxCell>
        <mxCell id="yHoqbMhk2SUwJ_CR07r3-77" value="&lt;p style=&quot;line-height: 1.2 ; font-size: 60px&quot;&gt;Repositories&lt;/p&gt;" style="text;html=1;align=center;verticalAlign=middle;whiteSpace=wrap;rounded=0;" vertex="1" parent="WIyWlLk6GJQsqaUBKTNV-1">
          <mxGeometry x="3340" y="160" width="539" height="140" as="geometry" />
        </mxCell>
        <mxCell id="yHoqbMhk2SUwJ_CR07r3-79" value="&lt;p style=&quot;line-height: 1.2 ; font-size: 60px&quot;&gt;Entities&lt;/p&gt;" style="text;html=1;align=center;verticalAlign=middle;whiteSpace=wrap;rounded=0;" vertex="1" parent="WIyWlLk6GJQsqaUBKTNV-1">
          <mxGeometry x="3380" y="1200" width="539" height="140" as="geometry" />
        </mxCell>
        <mxCell id="yHoqbMhk2SUwJ_CR07r3-86" value="&lt;span style=&quot;font-size: 30px&quot;&gt;All Entitties are annotated with @Entity @Table @Getter @Setter&lt;/span&gt;" style="shape=note;size=20;whiteSpace=wrap;html=1;" vertex="1" parent="WIyWlLk6GJQsqaUBKTNV-1">
          <mxGeometry x="3300" y="1010" width="659" height="140" as="geometry" />
        </mxCell>
        <mxCell id="yHoqbMhk2SUwJ_CR07r3-87" value="&lt;font style=&quot;font-size: 20px&quot;&gt;User Details&lt;/font&gt;" style="ellipse;whiteSpace=wrap;html=1;aspect=fixed;labelBackgroundColor=none;fontSize=30;strokeColor=default;fillColor=default;" vertex="1" parent="WIyWlLk6GJQsqaUBKTNV-1">
          <mxGeometry x="390" y="2338" width="90" height="90" as="geometry" />
        </mxCell>
        <mxCell id="yHoqbMhk2SUwJ_CR07r3-98" style="edgeStyle=orthogonalEdgeStyle;rounded=0;orthogonalLoop=1;jettySize=auto;html=1;entryX=0.5;entryY=0;entryDx=0;entryDy=0;fontSize=14;endArrow=none;endFill=0;endSize=20;strokeWidth=2;" edge="1" parent="WIyWlLk6GJQsqaUBKTNV-1" source="yHoqbMhk2SUwJ_CR07r3-93" target="yHoqbMhk2SUwJ_CR07r3-87">
          <mxGeometry relative="1" as="geometry" />
        </mxCell>
        <mxCell id="yHoqbMhk2SUwJ_CR07r3-93" value="(C) AppUser " style="swimlane;fontStyle=1;align=center;verticalAlign=top;childLayout=stackLayout;horizontal=1;startSize=26;horizontalStack=0;resizeParent=1;resizeParentMax=0;resizeLast=0;collapsible=1;marginBottom=0;labelBackgroundColor=none;fontSize=14;strokeColor=default;fillColor=default;" vertex="1" parent="WIyWlLk6GJQsqaUBKTNV-1">
          <mxGeometry x="284.25" y="1800" width="299.5" height="390" as="geometry" />
        </mxCell>
        <mxCell id="yHoqbMhk2SUwJ_CR07r3-97" value="&lt;font style=&quot;font-size: 14px&quot;&gt;@EqualsAndHashCode&lt;/font&gt;" style="shape=note;size=20;whiteSpace=wrap;html=1;labelBackgroundColor=none;fontSize=20;strokeColor=default;fillColor=default;" vertex="1" parent="yHoqbMhk2SUwJ_CR07r3-93">
          <mxGeometry y="26" width="299.5" height="50" as="geometry" />
        </mxCell>
        <mxCell id="yHoqbMhk2SUwJ_CR07r3-94" value="- userId: Long&#xa;- username: String&#xa;- password: String&#xa;- email: String&#xa;- appUserRole: AppUserRole  @Enumerated&#xa;- locked: Boolean&#xa;- enabled: Boolean&#xa;- employee: Employee @OneToOne&#xa;- client: Client @OneToOne&#xa;" style="text;strokeColor=none;fillColor=none;align=left;verticalAlign=top;spacingLeft=4;spacingRight=4;overflow=hidden;rotatable=0;points=[[0,0.5],[1,0.5]];portConstraint=eastwest;labelBackgroundColor=none;fontSize=14;" vertex="1" parent="yHoqbMhk2SUwJ_CR07r3-93">
          <mxGeometry y="76" width="299.5" height="184" as="geometry" />
        </mxCell>
        <mxCell id="yHoqbMhk2SUwJ_CR07r3-95" value="" style="line;strokeWidth=1;fillColor=none;align=left;verticalAlign=middle;spacingTop=-1;spacingLeft=3;spacingRight=3;rotatable=0;labelPosition=right;points=[];portConstraint=eastwest;labelBackgroundColor=none;fontSize=14;" vertex="1" parent="yHoqbMhk2SUwJ_CR07r3-93">
          <mxGeometry y="260" width="299.5" height="8" as="geometry" />
        </mxCell>
        <mxCell id="yHoqbMhk2SUwJ_CR07r3-96" value="+ AppUser();&#xa;+ AppUser(&#xa;    userCredentials:UserCredentials,&#xa;    locked:Boolean,&#xa;    enabled:Boolean&#xa;);&#xa;" style="text;strokeColor=none;fillColor=none;align=left;verticalAlign=top;spacingLeft=4;spacingRight=4;overflow=hidden;rotatable=0;points=[[0,0.5],[1,0.5]];portConstraint=eastwest;labelBackgroundColor=none;fontSize=14;" vertex="1" parent="yHoqbMhk2SUwJ_CR07r3-93">
          <mxGeometry y="268" width="299.5" height="122" as="geometry" />
        </mxCell>
        <mxCell id="yHoqbMhk2SUwJ_CR07r3-99" value="(C) Announcement " style="swimlane;fontStyle=1;align=center;verticalAlign=top;childLayout=stackLayout;horizontal=1;startSize=26;horizontalStack=0;resizeParent=1;resizeParentMax=0;resizeLast=0;collapsible=1;marginBottom=0;labelBackgroundColor=none;fontSize=14;strokeColor=default;fillColor=default;" vertex="1" parent="WIyWlLk6GJQsqaUBKTNV-1">
          <mxGeometry x="-384.75" y="1010" width="299.5" height="120" as="geometry" />
        </mxCell>
        <mxCell id="yHoqbMhk2SUwJ_CR07r3-101" value="- announcementId: Long&#xa;- announcement: String&#xa;&#xa;" style="text;strokeColor=none;fillColor=none;align=left;verticalAlign=top;spacingLeft=4;spacingRight=4;overflow=hidden;rotatable=0;points=[[0,0.5],[1,0.5]];portConstraint=eastwest;labelBackgroundColor=none;fontSize=14;" vertex="1" parent="yHoqbMhk2SUwJ_CR07r3-99">
          <mxGeometry y="26" width="299.5" height="54" as="geometry" />
        </mxCell>
        <mxCell id="yHoqbMhk2SUwJ_CR07r3-102" value="" style="line;strokeWidth=1;fillColor=none;align=left;verticalAlign=middle;spacingTop=-1;spacingLeft=3;spacingRight=3;rotatable=0;labelPosition=right;points=[];portConstraint=eastwest;labelBackgroundColor=none;fontSize=14;" vertex="1" parent="yHoqbMhk2SUwJ_CR07r3-99">
          <mxGeometry y="80" width="299.5" height="8" as="geometry" />
        </mxCell>
        <mxCell id="yHoqbMhk2SUwJ_CR07r3-103" value="+ Announcements();&#xa;&#xa;" style="text;strokeColor=none;fillColor=none;align=left;verticalAlign=top;spacingLeft=4;spacingRight=4;overflow=hidden;rotatable=0;points=[[0,0.5],[1,0.5]];portConstraint=eastwest;labelBackgroundColor=none;fontSize=14;" vertex="1" parent="yHoqbMhk2SUwJ_CR07r3-99">
          <mxGeometry y="88" width="299.5" height="32" as="geometry" />
        </mxCell>
        <mxCell id="yHoqbMhk2SUwJ_CR07r3-106" value="(C) Client " style="swimlane;fontStyle=1;align=center;verticalAlign=top;childLayout=stackLayout;horizontal=1;startSize=26;horizontalStack=0;resizeParent=1;resizeParentMax=0;resizeLast=0;collapsible=1;marginBottom=0;labelBackgroundColor=none;fontSize=14;strokeColor=default;fillColor=default;" vertex="1" parent="WIyWlLk6GJQsqaUBKTNV-1">
          <mxGeometry x="-984.75" y="1360" width="299.5" height="870" as="geometry" />
        </mxCell>
        <mxCell id="yHoqbMhk2SUwJ_CR07r3-108" value="- clientId: Long&#xa;- email: String&#xa;- fullName: String&#xa;- accountNumber: String&#xa;- balance: Float&#xa;- personalNumber: String&#xa;- identificationNumber: String&#xa;- dateOfBirth: LocalDate&#xa;- homeAddress: String&#xa;- city: String&#xa;- postalCode: String&#xa;- secHomeAddress: String&#xa;- secCity: String&#xa;- secPostalCode: String&#xa;- numberOfCreditCards: Integer&#xa;- user: AppUser @OneToOne @JsonIgnore&#xa;" style="text;strokeColor=none;fillColor=none;align=left;verticalAlign=top;spacingLeft=4;spacingRight=4;overflow=hidden;rotatable=0;points=[[0,0.5],[1,0.5]];portConstraint=eastwest;labelBackgroundColor=none;fontSize=14;" vertex="1" parent="yHoqbMhk2SUwJ_CR07r3-106">
          <mxGeometry y="26" width="299.5" height="274" as="geometry" />
        </mxCell>
        <mxCell id="yHoqbMhk2SUwJ_CR07r3-109" value="" style="line;strokeWidth=1;fillColor=none;align=left;verticalAlign=middle;spacingTop=-1;spacingLeft=3;spacingRight=3;rotatable=0;labelPosition=right;points=[];portConstraint=eastwest;labelBackgroundColor=none;fontSize=14;" vertex="1" parent="yHoqbMhk2SUwJ_CR07r3-106">
          <mxGeometry y="300" width="299.5" height="8" as="geometry" />
        </mxCell>
        <mxCell id="yHoqbMhk2SUwJ_CR07r3-110" value="+ Client();&#xa;+ Client(&#xa;    email: String,&#xa;    fullName: String,&#xa;    accountNumber: String,&#xa;    balance: Float,&#xa;    personalNumber: String,&#xa;    identificationNumber: String,&#xa;    dateOfBirth: LocalDate,&#xa;    homeAddress: String,&#xa;    city: String,&#xa;    postalCode: String,&#xa;    numberOfCreditCards: Integer,&#xa;    user: AppUser,&#xa;);&#xa;+ Client(&#xa;    email: String,&#xa;    fullName: String,&#xa;    accountNumber: String,&#xa;    balance: Float,&#xa;    personalNumber: String,&#xa;    identificationNumber: String,&#xa;    dateOfBirth: LocalDate,&#xa;    homeAddress: String,&#xa;    city: String,&#xa;    postalCode: String,&#xa;    secHomeAddress: String,&#xa;    secCity: String,&#xa;    secPostalCode: String,&#xa;    numberOfCreditCards: Integer,&#xa;    user: AppUser,&#xa;);&#xa;" style="text;strokeColor=none;fillColor=none;align=left;verticalAlign=top;spacingLeft=4;spacingRight=4;overflow=hidden;rotatable=0;points=[[0,0.5],[1,0.5]];portConstraint=eastwest;labelBackgroundColor=none;fontSize=14;" vertex="1" parent="yHoqbMhk2SUwJ_CR07r3-106">
          <mxGeometry y="308" width="299.5" height="562" as="geometry" />
        </mxCell>
        <mxCell id="yHoqbMhk2SUwJ_CR07r3-111" value="(C) CreditCard " style="swimlane;fontStyle=1;align=center;verticalAlign=top;childLayout=stackLayout;horizontal=1;startSize=26;horizontalStack=0;resizeParent=1;resizeParentMax=0;resizeLast=0;collapsible=1;marginBottom=0;labelBackgroundColor=none;fontSize=14;strokeColor=default;fillColor=default;" vertex="1" parent="WIyWlLk6GJQsqaUBKTNV-1">
          <mxGeometry x="-1549.75" y="1010" width="299.5" height="210" as="geometry" />
        </mxCell>
        <mxCell id="yHoqbMhk2SUwJ_CR07r3-112" value="- cardId: Long&#xa;- isActive: Boolean&#xa;- cardNumber: String&#xa;- expireDate: LocalDate&#xa;- cvvNumber: Integer&#xa;- pinNumber: Integer&#xa;- cardImage: String&#xa;- client: Client @ManyToOne @JsonIgnore&#xa;&#xa;&#xa;" style="text;strokeColor=none;fillColor=none;align=left;verticalAlign=top;spacingLeft=4;spacingRight=4;overflow=hidden;rotatable=0;points=[[0,0.5],[1,0.5]];portConstraint=eastwest;labelBackgroundColor=none;fontSize=14;" vertex="1" parent="yHoqbMhk2SUwJ_CR07r3-111">
          <mxGeometry y="26" width="299.5" height="144" as="geometry" />
        </mxCell>
        <mxCell id="yHoqbMhk2SUwJ_CR07r3-113" value="" style="line;strokeWidth=1;fillColor=none;align=left;verticalAlign=middle;spacingTop=-1;spacingLeft=3;spacingRight=3;rotatable=0;labelPosition=right;points=[];portConstraint=eastwest;labelBackgroundColor=none;fontSize=14;" vertex="1" parent="yHoqbMhk2SUwJ_CR07r3-111">
          <mxGeometry y="170" width="299.5" height="8" as="geometry" />
        </mxCell>
        <mxCell id="yHoqbMhk2SUwJ_CR07r3-114" value="+ CreditCard();&#xa;&#xa;" style="text;strokeColor=none;fillColor=none;align=left;verticalAlign=top;spacingLeft=4;spacingRight=4;overflow=hidden;rotatable=0;points=[[0,0.5],[1,0.5]];portConstraint=eastwest;labelBackgroundColor=none;fontSize=14;" vertex="1" parent="yHoqbMhk2SUwJ_CR07r3-111">
          <mxGeometry y="178" width="299.5" height="32" as="geometry" />
        </mxCell>
        <mxCell id="yHoqbMhk2SUwJ_CR07r3-115" value="(C) CyclicalTransfer " style="swimlane;fontStyle=1;align=center;verticalAlign=top;childLayout=stackLayout;horizontal=1;startSize=26;horizontalStack=0;resizeParent=1;resizeParentMax=0;resizeLast=0;collapsible=1;marginBottom=0;labelBackgroundColor=none;fontSize=14;strokeColor=default;fillColor=default;" vertex="1" parent="WIyWlLk6GJQsqaUBKTNV-1">
          <mxGeometry x="-2084.75" y="1270" width="299.5" height="210" as="geometry" />
        </mxCell>
        <mxCell id="yHoqbMhk2SUwJ_CR07r3-116" value="- transferId: Long&#xa;- amount: Float&#xa;- reTransferDate: LocalDate&#xa;- category: String&#xa;- receiver: String&#xa;- accountNumber: String&#xa;- title: String&#xa;- client: Client @ManyToOne @JsonIgnore&#xa;&#xa;&#xa;" style="text;strokeColor=none;fillColor=none;align=left;verticalAlign=top;spacingLeft=4;spacingRight=4;overflow=hidden;rotatable=0;points=[[0,0.5],[1,0.5]];portConstraint=eastwest;labelBackgroundColor=none;fontSize=14;" vertex="1" parent="yHoqbMhk2SUwJ_CR07r3-115">
          <mxGeometry y="26" width="299.5" height="144" as="geometry" />
        </mxCell>
        <mxCell id="yHoqbMhk2SUwJ_CR07r3-117" value="" style="line;strokeWidth=1;fillColor=none;align=left;verticalAlign=middle;spacingTop=-1;spacingLeft=3;spacingRight=3;rotatable=0;labelPosition=right;points=[];portConstraint=eastwest;labelBackgroundColor=none;fontSize=14;" vertex="1" parent="yHoqbMhk2SUwJ_CR07r3-115">
          <mxGeometry y="170" width="299.5" height="8" as="geometry" />
        </mxCell>
        <mxCell id="yHoqbMhk2SUwJ_CR07r3-118" value="+ CyclicalTransfer();&#xa;&#xa;" style="text;strokeColor=none;fillColor=none;align=left;verticalAlign=top;spacingLeft=4;spacingRight=4;overflow=hidden;rotatable=0;points=[[0,0.5],[1,0.5]];portConstraint=eastwest;labelBackgroundColor=none;fontSize=14;" vertex="1" parent="yHoqbMhk2SUwJ_CR07r3-115">
          <mxGeometry y="178" width="299.5" height="32" as="geometry" />
        </mxCell>
        <mxCell id="yHoqbMhk2SUwJ_CR07r3-119" value="(C) Employee " style="swimlane;fontStyle=1;align=center;verticalAlign=top;childLayout=stackLayout;horizontal=1;startSize=26;horizontalStack=0;resizeParent=1;resizeParentMax=0;resizeLast=0;collapsible=1;marginBottom=0;labelBackgroundColor=none;fontSize=14;strokeColor=default;fillColor=default;" vertex="1" parent="WIyWlLk6GJQsqaUBKTNV-1">
          <mxGeometry x="-2614.75" y="2450" width="299.5" height="430" as="geometry" />
        </mxCell>
        <mxCell id="yHoqbMhk2SUwJ_CR07r3-120" value="- employeeId: Long&#xa;- email: String&#xa;- fullName: String&#xa;- personalNumber: String&#xa;- identificationNumber: String&#xa;- dateOfBirth: LocalDate&#xa;- homeAddress: String&#xa;- city: String&#xa;- postalCode: String&#xa;- user: AppUser @OneToOne @JsonIgnore&#xa;" style="text;strokeColor=none;fillColor=none;align=left;verticalAlign=top;spacingLeft=4;spacingRight=4;overflow=hidden;rotatable=0;points=[[0,0.5],[1,0.5]];portConstraint=eastwest;labelBackgroundColor=none;fontSize=14;" vertex="1" parent="yHoqbMhk2SUwJ_CR07r3-119">
          <mxGeometry y="26" width="299.5" height="184" as="geometry" />
        </mxCell>
        <mxCell id="yHoqbMhk2SUwJ_CR07r3-121" value="" style="line;strokeWidth=1;fillColor=none;align=left;verticalAlign=middle;spacingTop=-1;spacingLeft=3;spacingRight=3;rotatable=0;labelPosition=right;points=[];portConstraint=eastwest;labelBackgroundColor=none;fontSize=14;" vertex="1" parent="yHoqbMhk2SUwJ_CR07r3-119">
          <mxGeometry y="210" width="299.5" height="8" as="geometry" />
        </mxCell>
        <mxCell id="yHoqbMhk2SUwJ_CR07r3-122" value="+ Employee();&#xa;+ Employee(&#xa;    user: AppUser,&#xa;    fullName: String,&#xa;    email: String,&#xa;    personalNumber: String,&#xa;    identificationNumber: String,&#xa;    dateOfBirth: LocalDate,&#xa;    homeAddress: String,&#xa;    city: String,&#xa;    postalCode: String,&#xa;);&#xa;&#xa;" style="text;strokeColor=none;fillColor=none;align=left;verticalAlign=top;spacingLeft=4;spacingRight=4;overflow=hidden;rotatable=0;points=[[0,0.5],[1,0.5]];portConstraint=eastwest;labelBackgroundColor=none;fontSize=14;" vertex="1" parent="yHoqbMhk2SUwJ_CR07r3-119">
          <mxGeometry y="218" width="299.5" height="212" as="geometry" />
        </mxCell>
        <mxCell id="yHoqbMhk2SUwJ_CR07r3-123" value="(C) LoanRate " style="swimlane;fontStyle=1;align=center;verticalAlign=top;childLayout=stackLayout;horizontal=1;startSize=26;horizontalStack=0;resizeParent=1;resizeParentMax=0;resizeLast=0;collapsible=1;marginBottom=0;labelBackgroundColor=none;fontSize=14;strokeColor=default;fillColor=default;" vertex="1" parent="WIyWlLk6GJQsqaUBKTNV-1">
          <mxGeometry x="925.25" y="1010" width="299.5" height="200" as="geometry" />
        </mxCell>
        <mxCell id="yHoqbMhk2SUwJ_CR07r3-124" value="- rateId: Long&#xa;- amount: Float&#xa;- payDate: LocalDate&#xa;- loan: Loan @ManyToOne @JsonIgnore&#xa;&#xa;&#xa;" style="text;strokeColor=none;fillColor=none;align=left;verticalAlign=top;spacingLeft=4;spacingRight=4;overflow=hidden;rotatable=0;points=[[0,0.5],[1,0.5]];portConstraint=eastwest;labelBackgroundColor=none;fontSize=14;" vertex="1" parent="yHoqbMhk2SUwJ_CR07r3-123">
          <mxGeometry y="26" width="299.5" height="84" as="geometry" />
        </mxCell>
        <mxCell id="yHoqbMhk2SUwJ_CR07r3-125" value="" style="line;strokeWidth=1;fillColor=none;align=left;verticalAlign=middle;spacingTop=-1;spacingLeft=3;spacingRight=3;rotatable=0;labelPosition=right;points=[];portConstraint=eastwest;labelBackgroundColor=none;fontSize=14;" vertex="1" parent="yHoqbMhk2SUwJ_CR07r3-123">
          <mxGeometry y="110" width="299.5" height="8" as="geometry" />
        </mxCell>
        <mxCell id="yHoqbMhk2SUwJ_CR07r3-126" value="+ LoanRate();&#xa;+ LoanRate(&#xa;    loan: Loan&#xa;);&#xa;&#xa;" style="text;strokeColor=none;fillColor=none;align=left;verticalAlign=top;spacingLeft=4;spacingRight=4;overflow=hidden;rotatable=0;points=[[0,0.5],[1,0.5]];portConstraint=eastwest;labelBackgroundColor=none;fontSize=14;" vertex="1" parent="yHoqbMhk2SUwJ_CR07r3-123">
          <mxGeometry y="118" width="299.5" height="82" as="geometry" />
        </mxCell>
        <mxCell id="yHoqbMhk2SUwJ_CR07r3-127" value="(C) Loan" style="swimlane;fontStyle=1;align=center;verticalAlign=top;childLayout=stackLayout;horizontal=1;startSize=26;horizontalStack=0;resizeParent=1;resizeParentMax=0;resizeLast=0;collapsible=1;marginBottom=0;labelBackgroundColor=none;fontSize=14;strokeColor=default;fillColor=default;" vertex="1" parent="WIyWlLk6GJQsqaUBKTNV-1">
          <mxGeometry x="1580.25" y="1010" width="299.5" height="540" as="geometry" />
        </mxCell>
        <mxCell id="yHoqbMhk2SUwJ_CR07r3-131" value="+ basicCommission: Float&#xa;+ yearlyRRSO: Float&#xa;&#xa;" style="text;strokeColor=none;fillColor=none;align=left;verticalAlign=top;spacingLeft=4;spacingRight=4;overflow=hidden;rotatable=0;points=[[0,0.5],[1,0.5]];portConstraint=eastwest;labelBackgroundColor=none;fontSize=14;fontStyle=4" vertex="1" parent="yHoqbMhk2SUwJ_CR07r3-127">
          <mxGeometry y="26" width="299.5" height="44" as="geometry" />
        </mxCell>
        <mxCell id="yHoqbMhk2SUwJ_CR07r3-132" value="" style="line;strokeWidth=1;rotatable=0;dashed=0;labelPosition=right;align=left;verticalAlign=middle;spacingTop=0;spacingLeft=6;points=[];portConstraint=eastwest;labelBackgroundColor=none;fontSize=14;fillColor=default;" vertex="1" parent="yHoqbMhk2SUwJ_CR07r3-127">
          <mxGeometry y="70" width="299.5" height="10" as="geometry" />
        </mxCell>
        <mxCell id="yHoqbMhk2SUwJ_CR07r3-128" value="- loanId: Long&#xa;- isActive: Boolean&#xa;- concludedDate: LocalDate&#xa;- initialRatesNumber: Integer&#xa;- estimatedEndDate: LocalDate&#xa;- nextRatePayDay: LocalDate&#xa;- numOfRates: Integer&#xa;- yearlyInterestPercent: Float&#xa;- rateAmount: Float&#xa;- basicRateAmount: Float&#xa;- basicLoanAmount: Float&#xa;- commission: Float&#xa;- interestAmount: Float&#xa;- penaltyAmount: Float&#xa;- totalPaidOff: Float&#xa;- toRepaidOff: Float&#xa;- ratesLeftToPay: Integer&#xa;- client: Client @ManyToOne &#xa;&#xa;&#xa;" style="text;strokeColor=none;fillColor=none;align=left;verticalAlign=top;spacingLeft=4;spacingRight=4;overflow=hidden;rotatable=0;points=[[0,0.5],[1,0.5]];portConstraint=eastwest;labelBackgroundColor=none;fontSize=14;" vertex="1" parent="yHoqbMhk2SUwJ_CR07r3-127">
          <mxGeometry y="80" width="299.5" height="310" as="geometry" />
        </mxCell>
        <mxCell id="yHoqbMhk2SUwJ_CR07r3-129" value="" style="line;strokeWidth=1;fillColor=none;align=left;verticalAlign=middle;spacingTop=-1;spacingLeft=3;spacingRight=3;rotatable=0;labelPosition=right;points=[];portConstraint=eastwest;labelBackgroundColor=none;fontSize=14;" vertex="1" parent="yHoqbMhk2SUwJ_CR07r3-127">
          <mxGeometry y="390" width="299.5" height="8" as="geometry" />
        </mxCell>
        <mxCell id="yHoqbMhk2SUwJ_CR07r3-130" value="+ Loan();&#xa;+ Loan(&#xa;    concludedDate: LocalDate,&#xa;    initialRatesNumber: Integer,&#xa;    basicLoanAmount: Float,&#xa;    client: Client&#xa;);&#xa;&#xa;" style="text;strokeColor=none;fillColor=none;align=left;verticalAlign=top;spacingLeft=4;spacingRight=4;overflow=hidden;rotatable=0;points=[[0,0.5],[1,0.5]];portConstraint=eastwest;labelBackgroundColor=none;fontSize=14;" vertex="1" parent="yHoqbMhk2SUwJ_CR07r3-127">
          <mxGeometry y="398" width="299.5" height="142" as="geometry" />
        </mxCell>
        <mxCell id="yHoqbMhk2SUwJ_CR07r3-133" value="(C) Order" style="swimlane;fontStyle=1;align=center;verticalAlign=top;childLayout=stackLayout;horizontal=1;startSize=26;horizontalStack=0;resizeParent=1;resizeParentMax=0;resizeLast=0;collapsible=1;marginBottom=0;labelBackgroundColor=none;fontSize=14;strokeColor=default;fillColor=default;" vertex="1" parent="WIyWlLk6GJQsqaUBKTNV-1">
          <mxGeometry x="2000.25" y="2590" width="299.5" height="220" as="geometry" />
        </mxCell>
        <mxCell id="yHoqbMhk2SUwJ_CR07r3-134" value="- orderId: Long&#xa;- orderType: String&#xa;- createDate: LocalDate&#xa;- isActive: Boolean&#xa;@Type(type = &quot;...JsonBinaryType&quot;)&#xa;- requestBody: JsonBinaryType&#xa;- client: Client @ManyToOne&#xa;- employee: Employee @ManyToOne &#xa;&#xa;&#xa;" style="text;strokeColor=none;fillColor=none;align=left;verticalAlign=top;spacingLeft=4;spacingRight=4;overflow=hidden;rotatable=0;points=[[0,0.5],[1,0.5]];portConstraint=eastwest;labelBackgroundColor=none;fontSize=14;" vertex="1" parent="yHoqbMhk2SUwJ_CR07r3-133">
          <mxGeometry y="26" width="299.5" height="154" as="geometry" />
        </mxCell>
        <mxCell id="yHoqbMhk2SUwJ_CR07r3-135" value="" style="line;strokeWidth=1;fillColor=none;align=left;verticalAlign=middle;spacingTop=-1;spacingLeft=3;spacingRight=3;rotatable=0;labelPosition=right;points=[];portConstraint=eastwest;labelBackgroundColor=none;fontSize=14;" vertex="1" parent="yHoqbMhk2SUwJ_CR07r3-133">
          <mxGeometry y="180" width="299.5" height="8" as="geometry" />
        </mxCell>
        <mxCell id="yHoqbMhk2SUwJ_CR07r3-136" value="+ Order();&#xa;&#xa;" style="text;strokeColor=none;fillColor=none;align=left;verticalAlign=top;spacingLeft=4;spacingRight=4;overflow=hidden;rotatable=0;points=[[0,0.5],[1,0.5]];portConstraint=eastwest;labelBackgroundColor=none;fontSize=14;" vertex="1" parent="yHoqbMhk2SUwJ_CR07r3-133">
          <mxGeometry y="188" width="299.5" height="32" as="geometry" />
        </mxCell>
        <mxCell id="yHoqbMhk2SUwJ_CR07r3-137" value="(C) Transfer " style="swimlane;fontStyle=1;align=center;verticalAlign=top;childLayout=stackLayout;horizontal=1;startSize=26;horizontalStack=0;resizeParent=1;resizeParentMax=0;resizeLast=0;collapsible=1;marginBottom=0;labelBackgroundColor=none;fontSize=14;strokeColor=default;fillColor=default;" vertex="1" parent="WIyWlLk6GJQsqaUBKTNV-1">
          <mxGeometry x="2880" y="1780" width="299.5" height="380" as="geometry" />
        </mxCell>
        <mxCell id="yHoqbMhk2SUwJ_CR07r3-138" value="- transferId: Long&#xa;- amount: Float&#xa;- transferDate: LocalDate&#xa;- category: String&#xa;- type: String&#xa;- receiver_sender: String&#xa;- toAccountNumber: String&#xa;- title: String&#xa;- client: Client @ManyToOne @JsonIgnore&#xa;&#xa;&#xa;" style="text;strokeColor=none;fillColor=none;align=left;verticalAlign=top;spacingLeft=4;spacingRight=4;overflow=hidden;rotatable=0;points=[[0,0.5],[1,0.5]];portConstraint=eastwest;labelBackgroundColor=none;fontSize=14;" vertex="1" parent="yHoqbMhk2SUwJ_CR07r3-137">
          <mxGeometry y="26" width="299.5" height="164" as="geometry" />
        </mxCell>
        <mxCell id="yHoqbMhk2SUwJ_CR07r3-139" value="" style="line;strokeWidth=1;fillColor=none;align=left;verticalAlign=middle;spacingTop=-1;spacingLeft=3;spacingRight=3;rotatable=0;labelPosition=right;points=[];portConstraint=eastwest;labelBackgroundColor=none;fontSize=14;" vertex="1" parent="yHoqbMhk2SUwJ_CR07r3-137">
          <mxGeometry y="190" width="299.5" height="8" as="geometry" />
        </mxCell>
        <mxCell id="yHoqbMhk2SUwJ_CR07r3-140" value="+ Transfer();&#xa;+ Transfer(&#xa;    amount: Float,&#xa;    transferDate: LocalDate,&#xa;    category: String,&#xa;    type: String,&#xa;    receiver_sender: String,&#xa;    title: String,&#xa;    toAccountNumber: String   &#xa;);&#xa;&#xa;" style="text;strokeColor=none;fillColor=none;align=left;verticalAlign=top;spacingLeft=4;spacingRight=4;overflow=hidden;rotatable=0;points=[[0,0.5],[1,0.5]];portConstraint=eastwest;labelBackgroundColor=none;fontSize=14;" vertex="1" parent="yHoqbMhk2SUwJ_CR07r3-137">
          <mxGeometry y="198" width="299.5" height="182" as="geometry" />
        </mxCell>
        <mxCell id="yHoqbMhk2SUwJ_CR07r3-141" value="(C) Visit " style="swimlane;fontStyle=1;align=center;verticalAlign=top;childLayout=stackLayout;horizontal=1;startSize=26;horizontalStack=0;resizeParent=1;resizeParentMax=0;resizeLast=0;collapsible=1;marginBottom=0;labelBackgroundColor=none;fontSize=14;strokeColor=default;fillColor=default;" vertex="1" parent="WIyWlLk6GJQsqaUBKTNV-1">
          <mxGeometry x="2435.13" y="2743" width="249.75" height="180" as="geometry" />
        </mxCell>
        <mxCell id="yHoqbMhk2SUwJ_CR07r3-142" value="- visit_Id: Long&#xa;- visitDate: String&#xa;- visitTime: String&#xa;- establishment: String&#xa;- isActive: Boolean&#xa;- employee: Employee @ManyToOne&#xa;&#xa;" style="text;strokeColor=none;fillColor=none;align=left;verticalAlign=top;spacingLeft=4;spacingRight=4;overflow=hidden;rotatable=0;points=[[0,0.5],[1,0.5]];portConstraint=eastwest;labelBackgroundColor=none;fontSize=14;" vertex="1" parent="yHoqbMhk2SUwJ_CR07r3-141">
          <mxGeometry y="26" width="249.75" height="114" as="geometry" />
        </mxCell>
        <mxCell id="yHoqbMhk2SUwJ_CR07r3-143" value="" style="line;strokeWidth=1;fillColor=none;align=left;verticalAlign=middle;spacingTop=-1;spacingLeft=3;spacingRight=3;rotatable=0;labelPosition=right;points=[];portConstraint=eastwest;labelBackgroundColor=none;fontSize=14;" vertex="1" parent="yHoqbMhk2SUwJ_CR07r3-141">
          <mxGeometry y="140" width="249.75" height="8" as="geometry" />
        </mxCell>
        <mxCell id="yHoqbMhk2SUwJ_CR07r3-144" value="+ Visit();&#xa;&#xa;" style="text;strokeColor=none;fillColor=none;align=left;verticalAlign=top;spacingLeft=4;spacingRight=4;overflow=hidden;rotatable=0;points=[[0,0.5],[1,0.5]];portConstraint=eastwest;labelBackgroundColor=none;fontSize=14;" vertex="1" parent="yHoqbMhk2SUwJ_CR07r3-141">
          <mxGeometry y="148" width="249.75" height="32" as="geometry" />
        </mxCell>
        <mxCell id="yHoqbMhk2SUwJ_CR07r3-145" value="" style="edgeStyle=entityRelationEdgeStyle;fontSize=12;html=1;endArrow=ERmandOne;startArrow=ERmandOne;rounded=0;endSize=20;entryX=1.002;entryY=0.836;entryDx=0;entryDy=0;exitX=0;exitY=0.5;exitDx=0;exitDy=0;entryPerimeter=0;strokeColor=#FF9933;strokeWidth=3;" edge="1" parent="WIyWlLk6GJQsqaUBKTNV-1" source="yHoqbMhk2SUwJ_CR07r3-94" target="yHoqbMhk2SUwJ_CR07r3-110">
          <mxGeometry width="100" height="100" relative="1" as="geometry">
            <mxPoint x="340" y="1180" as="sourcePoint" />
            <mxPoint x="440" y="1080" as="targetPoint" />
          </mxGeometry>
        </mxCell>
        <mxCell id="yHoqbMhk2SUwJ_CR07r3-146" value="1" style="edgeLabel;html=1;align=center;verticalAlign=middle;resizable=0;points=[];fontSize=14;" vertex="1" connectable="0" parent="yHoqbMhk2SUwJ_CR07r3-145">
          <mxGeometry x="0.8772" y="1" relative="1" as="geometry">
            <mxPoint x="-1" as="offset" />
          </mxGeometry>
        </mxCell>
        <mxCell id="yHoqbMhk2SUwJ_CR07r3-147" value="1" style="edgeLabel;html=1;align=center;verticalAlign=middle;resizable=0;points=[];fontSize=14;" vertex="1" connectable="0" parent="yHoqbMhk2SUwJ_CR07r3-145">
          <mxGeometry x="-0.9163" y="-1" relative="1" as="geometry">
            <mxPoint x="-1" as="offset" />
          </mxGeometry>
        </mxCell>
        <mxCell id="yHoqbMhk2SUwJ_CR07r3-148" value="" style="edgeStyle=entityRelationEdgeStyle;fontSize=12;html=1;endArrow=ERmandOne;startArrow=ERmandOne;rounded=0;endSize=20;entryX=0.008;entryY=1.017;entryDx=0;entryDy=0;entryPerimeter=0;exitX=0.999;exitY=0.997;exitDx=0;exitDy=0;exitPerimeter=0;strokeColor=#3333FF;strokeWidth=3;" edge="1" parent="WIyWlLk6GJQsqaUBKTNV-1" source="yHoqbMhk2SUwJ_CR07r3-110" target="yHoqbMhk2SUwJ_CR07r3-94">
          <mxGeometry width="100" height="100" relative="1" as="geometry">
            <mxPoint x="-690" y="1860" as="sourcePoint" />
            <mxPoint x="-160" y="1180" as="targetPoint" />
          </mxGeometry>
        </mxCell>
        <mxCell id="yHoqbMhk2SUwJ_CR07r3-149" value="1" style="edgeLabel;html=1;align=center;verticalAlign=middle;resizable=0;points=[];fontSize=14;" vertex="1" connectable="0" parent="yHoqbMhk2SUwJ_CR07r3-148">
          <mxGeometry x="-0.8858" relative="1" as="geometry">
            <mxPoint as="offset" />
          </mxGeometry>
        </mxCell>
        <mxCell id="yHoqbMhk2SUwJ_CR07r3-150" value="1" style="edgeLabel;html=1;align=center;verticalAlign=middle;resizable=0;points=[];fontSize=14;" vertex="1" connectable="0" parent="yHoqbMhk2SUwJ_CR07r3-148">
          <mxGeometry x="0.9018" y="-2" relative="1" as="geometry">
            <mxPoint as="offset" />
          </mxGeometry>
        </mxCell>
        <mxCell id="yHoqbMhk2SUwJ_CR07r3-151" value="" style="edgeStyle=entityRelationEdgeStyle;fontSize=12;html=1;endArrow=ERmandOne;startArrow=ERmandOne;endSize=20;exitX=1.007;exitY=0.245;exitDx=0;exitDy=0;entryX=0.006;entryY=1.001;entryDx=0;entryDy=0;entryPerimeter=0;sketch=0;strokeColor=#3333FF;rounded=0;jumpStyle=sharp;exitPerimeter=0;strokeWidth=3;" edge="1" parent="WIyWlLk6GJQsqaUBKTNV-1" source="yHoqbMhk2SUwJ_CR07r3-120" target="yHoqbMhk2SUwJ_CR07r3-96">
          <mxGeometry width="100" height="100" relative="1" as="geometry">
            <mxPoint x="-2310" y="1220" as="sourcePoint" />
            <mxPoint x="-2210" y="1120" as="targetPoint" />
          </mxGeometry>
        </mxCell>
        <mxCell id="yHoqbMhk2SUwJ_CR07r3-155" value="1" style="edgeLabel;html=1;align=center;verticalAlign=middle;resizable=0;points=[];fontSize=14;" vertex="1" connectable="0" parent="yHoqbMhk2SUwJ_CR07r3-151">
          <mxGeometry x="-0.9533" y="-4" relative="1" as="geometry">
            <mxPoint x="-1" as="offset" />
          </mxGeometry>
        </mxCell>
        <mxCell id="yHoqbMhk2SUwJ_CR07r3-157" value="1" style="edgeLabel;html=1;align=center;verticalAlign=middle;resizable=0;points=[];fontSize=14;" vertex="1" connectable="0" parent="yHoqbMhk2SUwJ_CR07r3-151">
          <mxGeometry x="0.9549" y="2" relative="1" as="geometry">
            <mxPoint as="offset" />
          </mxGeometry>
        </mxCell>
        <mxCell id="yHoqbMhk2SUwJ_CR07r3-153" value="" style="edgeStyle=entityRelationEdgeStyle;fontSize=12;html=1;endArrow=ERmandOne;startArrow=ERmandOne;rounded=1;sketch=0;endSize=20;strokeColor=#66FFFF;jumpStyle=sharp;exitX=0;exitY=0.5;exitDx=0;exitDy=0;entryX=1.007;entryY=0.007;entryDx=0;entryDy=0;entryPerimeter=0;strokeWidth=3;" edge="1" parent="WIyWlLk6GJQsqaUBKTNV-1" source="yHoqbMhk2SUwJ_CR07r3-96" target="yHoqbMhk2SUwJ_CR07r3-120">
          <mxGeometry width="100" height="100" relative="1" as="geometry">
            <mxPoint x="70" y="1700" as="sourcePoint" />
            <mxPoint x="170" y="1600" as="targetPoint" />
          </mxGeometry>
        </mxCell>
        <mxCell id="yHoqbMhk2SUwJ_CR07r3-154" value="1" style="edgeLabel;html=1;align=center;verticalAlign=middle;resizable=0;points=[];fontSize=14;" vertex="1" connectable="0" parent="yHoqbMhk2SUwJ_CR07r3-153">
          <mxGeometry x="0.9568" relative="1" as="geometry">
            <mxPoint as="offset" />
          </mxGeometry>
        </mxCell>
        <mxCell id="yHoqbMhk2SUwJ_CR07r3-156" value="1" style="edgeLabel;html=1;align=center;verticalAlign=middle;resizable=0;points=[];fontSize=14;" vertex="1" connectable="0" parent="yHoqbMhk2SUwJ_CR07r3-153">
          <mxGeometry x="-0.9638" y="1" relative="1" as="geometry">
            <mxPoint x="1" as="offset" />
          </mxGeometry>
        </mxCell>
        <mxCell id="yHoqbMhk2SUwJ_CR07r3-159" value="" style="edgeStyle=entityRelationEdgeStyle;fontSize=12;html=1;endArrow=ERoneToMany;rounded=0;sketch=0;endSize=20;strokeColor=#4D9900;jumpStyle=sharp;entryX=0.002;entryY=0.622;entryDx=0;entryDy=0;entryPerimeter=0;exitX=1.008;exitY=1.015;exitDx=0;exitDy=0;exitPerimeter=0;strokeWidth=3;" edge="1" parent="WIyWlLk6GJQsqaUBKTNV-1" source="yHoqbMhk2SUwJ_CR07r3-122" target="yHoqbMhk2SUwJ_CR07r3-143">
          <mxGeometry width="100" height="100" relative="1" as="geometry">
            <mxPoint x="2320" y="2560" as="sourcePoint" />
            <mxPoint x="2420" y="2460" as="targetPoint" />
          </mxGeometry>
        </mxCell>
        <mxCell id="yHoqbMhk2SUwJ_CR07r3-160" value="" style="edgeStyle=entityRelationEdgeStyle;fontSize=12;html=1;endArrow=ERoneToMany;rounded=0;sketch=0;endSize=20;strokeColor=#FF0000;jumpStyle=arc;entryX=-0.01;entryY=1.117;entryDx=0;entryDy=0;entryPerimeter=0;exitX=1.007;exitY=1.002;exitDx=0;exitDy=0;exitPerimeter=0;strokeWidth=3;" edge="1" parent="WIyWlLk6GJQsqaUBKTNV-1" source="yHoqbMhk2SUwJ_CR07r3-122" target="yHoqbMhk2SUwJ_CR07r3-136">
          <mxGeometry width="100" height="100" relative="1" as="geometry">
            <mxPoint x="1560" y="1960" as="sourcePoint" />
            <mxPoint x="1660" y="1860" as="targetPoint" />
          </mxGeometry>
        </mxCell>
        <mxCell id="yHoqbMhk2SUwJ_CR07r3-161" value="" style="edgeStyle=entityRelationEdgeStyle;fontSize=12;html=1;endArrow=ERoneToMany;rounded=0;sketch=0;endSize=20;strokeColor=#FF0000;jumpStyle=arc;entryX=-0.028;entryY=0.924;entryDx=0;entryDy=0;entryPerimeter=0;strokeWidth=3;" edge="1" parent="WIyWlLk6GJQsqaUBKTNV-1" target="yHoqbMhk2SUwJ_CR07r3-134">
          <mxGeometry width="100" height="100" relative="1" as="geometry">
            <mxPoint x="-835" y="2230" as="sourcePoint" />
            <mxPoint x="980" y="1870" as="targetPoint" />
          </mxGeometry>
        </mxCell>
        <mxCell id="yHoqbMhk2SUwJ_CR07r3-162" value="" style="edgeStyle=entityRelationEdgeStyle;fontSize=12;html=1;endArrow=ERoneToMany;rounded=0;sketch=0;endSize=20;strokeColor=#999900;jumpStyle=arc;entryX=1;entryY=0.5;entryDx=0;entryDy=0;exitX=0;exitY=0.5;exitDx=0;exitDy=0;strokeWidth=3;" edge="1" parent="WIyWlLk6GJQsqaUBKTNV-1" source="yHoqbMhk2SUwJ_CR07r3-108" target="yHoqbMhk2SUwJ_CR07r3-116">
          <mxGeometry width="100" height="100" relative="1" as="geometry">
            <mxPoint x="-1590" y="1370" as="sourcePoint" />
            <mxPoint x="-1490" y="1270" as="targetPoint" />
          </mxGeometry>
        </mxCell>
        <mxCell id="yHoqbMhk2SUwJ_CR07r3-163" value="" style="edgeStyle=entityRelationEdgeStyle;fontSize=12;html=1;endArrow=ERoneToMany;rounded=0;sketch=0;endSize=20;strokeColor=#FF6666;jumpStyle=arc;entryX=1;entryY=0.5;entryDx=0;entryDy=0;exitX=0;exitY=0.5;exitDx=0;exitDy=0;strokeWidth=3;" edge="1" parent="WIyWlLk6GJQsqaUBKTNV-1" source="yHoqbMhk2SUwJ_CR07r3-108" target="yHoqbMhk2SUwJ_CR07r3-112">
          <mxGeometry width="100" height="100" relative="1" as="geometry">
            <mxPoint x="-1040" y="1370" as="sourcePoint" />
            <mxPoint x="-940" y="1270" as="targetPoint" />
          </mxGeometry>
        </mxCell>
        <mxCell id="yHoqbMhk2SUwJ_CR07r3-164" value="" style="edgeStyle=entityRelationEdgeStyle;fontSize=12;html=1;endArrow=ERoneToMany;rounded=0;sketch=0;endSize=20;strokeColor=#000033;jumpStyle=arc;entryX=1;entryY=0.5;entryDx=0;entryDy=0;exitX=0;exitY=0.5;exitDx=0;exitDy=0;strokeWidth=3;" edge="1" parent="WIyWlLk6GJQsqaUBKTNV-1" source="yHoqbMhk2SUwJ_CR07r3-128" target="yHoqbMhk2SUwJ_CR07r3-124">
          <mxGeometry width="100" height="100" relative="1" as="geometry">
            <mxPoint x="1320" y="1310" as="sourcePoint" />
            <mxPoint x="1420" y="1210" as="targetPoint" />
          </mxGeometry>
        </mxCell>
        <mxCell id="yHoqbMhk2SUwJ_CR07r3-165" value="" style="edgeStyle=entityRelationEdgeStyle;fontSize=12;html=1;endArrow=ERoneToMany;rounded=0;sketch=0;endSize=20;strokeColor=#CC0066;jumpStyle=arc;entryX=0;entryY=0.5;entryDx=0;entryDy=0;exitX=1;exitY=0.5;exitDx=0;exitDy=0;strokeWidth=3;" edge="1" parent="WIyWlLk6GJQsqaUBKTNV-1" source="yHoqbMhk2SUwJ_CR07r3-108" target="yHoqbMhk2SUwJ_CR07r3-128">
          <mxGeometry width="100" height="100" relative="1" as="geometry">
            <mxPoint x="1320" y="1420" as="sourcePoint" />
            <mxPoint x="1420" y="1320" as="targetPoint" />
          </mxGeometry>
        </mxCell>
        <mxCell id="yHoqbMhk2SUwJ_CR07r3-166" value="" style="edgeStyle=entityRelationEdgeStyle;fontSize=12;html=1;endArrow=ERoneToMany;rounded=0;sketch=0;endSize=20;strokeColor=#FFD966;jumpStyle=arc;entryX=0;entryY=0.5;entryDx=0;entryDy=0;strokeWidth=3;" edge="1" parent="WIyWlLk6GJQsqaUBKTNV-1" source="yHoqbMhk2SUwJ_CR07r3-108" target="yHoqbMhk2SUwJ_CR07r3-138">
          <mxGeometry width="100" height="100" relative="1" as="geometry">
            <mxPoint x="2580" y="1880" as="sourcePoint" />
            <mxPoint x="2680" y="1780" as="targetPoint" />
          </mxGeometry>
        </mxCell>
        <mxCell id="yHoqbMhk2SUwJ_CR07r3-179" value="&lt;font style=&quot;font-size: 30px&quot;&gt;All services annotated with&amp;nbsp;&lt;br&gt;@Service @AllArgsConstructor&lt;/font&gt;" style="shape=note;size=20;whiteSpace=wrap;html=1;" vertex="1" parent="WIyWlLk6GJQsqaUBKTNV-1">
          <mxGeometry x="3280" y="-1530" width="659" height="140" as="geometry" />
        </mxCell>
        <mxCell id="yHoqbMhk2SUwJ_CR07r3-180" value="&lt;p style=&quot;line-height: 1.2 ; font-size: 60px&quot;&gt;Services&lt;/p&gt;" style="text;html=1;align=center;verticalAlign=middle;whiteSpace=wrap;rounded=0;" vertex="1" parent="WIyWlLk6GJQsqaUBKTNV-1">
          <mxGeometry x="3319" y="-1350" width="539" height="140" as="geometry" />
        </mxCell>
        <mxCell id="yHoqbMhk2SUwJ_CR07r3-289" style="edgeStyle=orthogonalEdgeStyle;rounded=0;sketch=0;jumpStyle=gap;orthogonalLoop=1;jettySize=auto;html=1;fontSize=14;endArrow=none;endFill=0;endSize=20;strokeColor=#FFFFFF;strokeWidth=3;" edge="1" parent="WIyWlLk6GJQsqaUBKTNV-1" source="yHoqbMhk2SUwJ_CR07r3-181">
          <mxGeometry relative="1" as="geometry">
            <mxPoint x="-550" y="-400" as="targetPoint" />
            <Array as="points">
              <mxPoint x="380" y="-590" />
              <mxPoint x="-550" y="-590" />
            </Array>
          </mxGeometry>
        </mxCell>
        <mxCell id="yHoqbMhk2SUwJ_CR07r3-290" style="edgeStyle=orthogonalEdgeStyle;rounded=0;sketch=0;jumpStyle=gap;orthogonalLoop=1;jettySize=auto;html=1;fontSize=14;endArrow=none;endFill=0;endSize=20;strokeColor=#FFFFFF;strokeWidth=3;entryX=0.75;entryY=0;entryDx=0;entryDy=0;" edge="1" parent="WIyWlLk6GJQsqaUBKTNV-1" source="yHoqbMhk2SUwJ_CR07r3-181" target="yHoqbMhk2SUwJ_CR07r3-272">
          <mxGeometry relative="1" as="geometry">
            <mxPoint x="-1104.5454915364583" y="-400" as="targetPoint" />
            <Array as="points">
              <mxPoint x="410" y="-510" />
              <mxPoint x="-993" y="-510" />
            </Array>
          </mxGeometry>
        </mxCell>
        <mxCell id="yHoqbMhk2SUwJ_CR07r3-305" style="edgeStyle=orthogonalEdgeStyle;rounded=0;sketch=0;jumpStyle=gap;orthogonalLoop=1;jettySize=auto;html=1;exitX=0.5;exitY=0;exitDx=0;exitDy=0;entryX=0.497;entryY=1.004;entryDx=0;entryDy=0;entryPerimeter=0;fontSize=14;endArrow=none;endFill=0;endSize=20;strokeColor=#FFFFFF;strokeWidth=3;" edge="1" parent="WIyWlLk6GJQsqaUBKTNV-1" source="yHoqbMhk2SUwJ_CR07r3-181" target="yHoqbMhk2SUwJ_CR07r3-304">
          <mxGeometry relative="1" as="geometry">
            <Array as="points">
              <mxPoint x="445" y="-1720" />
              <mxPoint x="150" y="-1720" />
              <mxPoint x="150" y="-2450" />
              <mxPoint x="463" y="-2450" />
            </Array>
          </mxGeometry>
        </mxCell>
        <mxCell id="yHoqbMhk2SUwJ_CR07r3-181" value="(C) AppUserService " style="swimlane;fontStyle=1;align=center;verticalAlign=top;childLayout=stackLayout;horizontal=1;startSize=26;horizontalStack=0;resizeParent=1;resizeParentMax=0;resizeLast=0;collapsible=1;marginBottom=0;labelBackgroundColor=none;fontSize=14;strokeColor=default;fillColor=default;" vertex="1" parent="WIyWlLk6GJQsqaUBKTNV-1">
          <mxGeometry x="241.06" y="-1410" width="407.87" height="390" as="geometry" />
        </mxCell>
        <mxCell id="yHoqbMhk2SUwJ_CR07r3-186" value="- USER_NOT_FOUND: String&#xa;&#xa;" style="text;strokeColor=none;fillColor=none;align=left;verticalAlign=top;spacingLeft=4;spacingRight=4;overflow=hidden;rotatable=0;points=[[0,0.5],[1,0.5]];portConstraint=eastwest;labelBackgroundColor=none;fontSize=14;fontStyle=4" vertex="1" parent="yHoqbMhk2SUwJ_CR07r3-181">
          <mxGeometry y="26" width="407.87" height="34" as="geometry" />
        </mxCell>
        <mxCell id="yHoqbMhk2SUwJ_CR07r3-187" value="" style="line;strokeWidth=1;rotatable=0;dashed=0;labelPosition=right;align=left;verticalAlign=middle;spacingTop=0;spacingLeft=6;points=[];portConstraint=eastwest;labelBackgroundColor=none;fontSize=14;fillColor=default;" vertex="1" parent="yHoqbMhk2SUwJ_CR07r3-181">
          <mxGeometry y="60" width="407.87" height="10" as="geometry" />
        </mxCell>
        <mxCell id="yHoqbMhk2SUwJ_CR07r3-183" value="- bCryptPasswordEncoder: BCryptPasswordEncoder&#xa;- appUserRepository: AppUserRepository&#xa;- emailService: EmailService&#xa;- emailTemplate: EmailTemplate&#xa;&#xa;" style="text;strokeColor=none;fillColor=none;align=left;verticalAlign=top;spacingLeft=4;spacingRight=4;overflow=hidden;rotatable=0;points=[[0,0.5],[1,0.5]];portConstraint=eastwest;labelBackgroundColor=none;fontSize=14;" vertex="1" parent="yHoqbMhk2SUwJ_CR07r3-181">
          <mxGeometry y="70" width="407.87" height="90" as="geometry" />
        </mxCell>
        <mxCell id="yHoqbMhk2SUwJ_CR07r3-184" value="" style="line;strokeWidth=1;fillColor=none;align=left;verticalAlign=middle;spacingTop=-1;spacingLeft=3;spacingRight=3;rotatable=0;labelPosition=right;points=[];portConstraint=eastwest;labelBackgroundColor=none;fontSize=14;" vertex="1" parent="yHoqbMhk2SUwJ_CR07r3-181">
          <mxGeometry y="160" width="407.87" height="8" as="geometry" />
        </mxCell>
        <mxCell id="yHoqbMhk2SUwJ_CR07r3-185" value="@Override&#xa;+ loadUserByUsername(username:String); UserDetails&#xa;+ createAppUser(userCredentials:UserCredentials); AppUser&#xa;+ getUsers(); List&lt;AppUser&gt;&#xa;+ getUser(id: Long); AppUser&#xa;+ getUser(username: String); AppUser&#xa;+ remindLoginToEmail(email:String);&#xa;@Transactional&#xa;+ resetPasswordToEmail(email:String);&#xa;@Transactional&#xa;+ updateAppUser(id: Long, userCredentials: UserCredentials);&#xa;+ deleteUserById(id: Long);&#xa;" style="text;strokeColor=none;fillColor=none;align=left;verticalAlign=top;spacingLeft=4;spacingRight=4;overflow=hidden;rotatable=0;points=[[0,0.5],[1,0.5]];portConstraint=eastwest;labelBackgroundColor=none;fontSize=14;" vertex="1" parent="yHoqbMhk2SUwJ_CR07r3-181">
          <mxGeometry y="168" width="407.87" height="222" as="geometry" />
        </mxCell>
        <mxCell id="yHoqbMhk2SUwJ_CR07r3-189" style="edgeStyle=orthogonalEdgeStyle;rounded=0;sketch=0;jumpStyle=arc;orthogonalLoop=1;jettySize=auto;html=1;exitX=0.5;exitY=0;exitDx=0;exitDy=0;entryX=0.807;entryY=0.996;entryDx=0;entryDy=0;entryPerimeter=0;fontSize=14;endArrow=none;endFill=0;endSize=20;strokeColor=#FFFFFF;strokeWidth=2;" edge="1" parent="WIyWlLk6GJQsqaUBKTNV-1" source="yHoqbMhk2SUwJ_CR07r3-188" target="yHoqbMhk2SUwJ_CR07r3-185">
          <mxGeometry relative="1" as="geometry" />
        </mxCell>
        <mxCell id="yHoqbMhk2SUwJ_CR07r3-188" value="UserDetailsService" style="ellipse;whiteSpace=wrap;html=1;aspect=fixed;labelBackgroundColor=none;fontSize=14;strokeColor=default;fillColor=default;" vertex="1" parent="WIyWlLk6GJQsqaUBKTNV-1">
          <mxGeometry x="530" y="-980" width="80" height="80" as="geometry" />
        </mxCell>
        <mxCell id="zkfFHV4jXpPFQw0GAbJ--13" value="(I) JpaRepository &lt;T ; ID&gt;" style="swimlane;fontStyle=0;align=center;verticalAlign=top;childLayout=stackLayout;horizontal=1;startSize=26;horizontalStack=0;resizeParent=1;resizeLast=0;collapsible=1;marginBottom=0;rounded=0;shadow=0;strokeWidth=1;" parent="WIyWlLk6GJQsqaUBKTNV-1" vertex="1">
          <mxGeometry x="254" y="170" width="360" height="210" as="geometry">
            <mxRectangle x="360" y="470" width="170" height="26" as="alternateBounds" />
          </mxGeometry>
        </mxCell>
        <mxCell id="zkfFHV4jXpPFQw0GAbJ--14" value=" findAll(); List&lt;T&gt;" style="text;align=left;verticalAlign=top;spacingLeft=4;spacingRight=4;overflow=hidden;rotatable=0;points=[[0,0.5],[1,0.5]];portConstraint=eastwest;" parent="zkfFHV4jXpPFQw0GAbJ--13" vertex="1">
          <mxGeometry y="26" width="360" height="26" as="geometry" />
        </mxCell>
        <mxCell id="yHoqbMhk2SUwJ_CR07r3-0" value=" findAll(sort: Sort); List&lt;T&gt;" style="text;align=left;verticalAlign=top;spacingLeft=4;spacingRight=4;overflow=hidden;rotatable=0;points=[[0,0.5],[1,0.5]];portConstraint=eastwest;" vertex="1" parent="zkfFHV4jXpPFQw0GAbJ--13">
          <mxGeometry y="52" width="360" height="26" as="geometry" />
        </mxCell>
        <mxCell id="yHoqbMhk2SUwJ_CR07r3-1" value=" findAllById(ids: Iterable&lt;ID&gt;); List&lt;T&gt;" style="text;align=left;verticalAlign=top;spacingLeft=4;spacingRight=4;overflow=hidden;rotatable=0;points=[[0,0.5],[1,0.5]];portConstraint=eastwest;" vertex="1" parent="zkfFHV4jXpPFQw0GAbJ--13">
          <mxGeometry y="78" width="360" height="26" as="geometry" />
        </mxCell>
        <mxCell id="yHoqbMhk2SUwJ_CR07r3-2" value=" saveAll(ids: Iterable&lt;S&gt;); &lt;S extends T&gt; List &lt;S&gt;" style="text;align=left;verticalAlign=top;spacingLeft=4;spacingRight=4;overflow=hidden;rotatable=0;points=[[0,0.5],[1,0.5]];portConstraint=eastwest;" vertex="1" parent="zkfFHV4jXpPFQw0GAbJ--13">
          <mxGeometry y="104" width="360" height="26" as="geometry" />
        </mxCell>
        <mxCell id="yHoqbMhk2SUwJ_CR07r3-3" value=" flush(); void" style="text;align=left;verticalAlign=top;spacingLeft=4;spacingRight=4;overflow=hidden;rotatable=0;points=[[0,0.5],[1,0.5]];portConstraint=eastwest;" vertex="1" parent="zkfFHV4jXpPFQw0GAbJ--13">
          <mxGeometry y="130" width="360" height="26" as="geometry" />
        </mxCell>
        <mxCell id="yHoqbMhk2SUwJ_CR07r3-4" value=" saveAndFlush(entity: S) ; &lt;S extends T&gt; S" style="text;align=left;verticalAlign=top;spacingLeft=4;spacingRight=4;overflow=hidden;rotatable=0;points=[[0,0.5],[1,0.5]];portConstraint=eastwest;" vertex="1" parent="zkfFHV4jXpPFQw0GAbJ--13">
          <mxGeometry y="156" width="360" height="26" as="geometry" />
        </mxCell>
        <mxCell id="yHoqbMhk2SUwJ_CR07r3-5" value=" saveAllAndFlush(enitities: Iterable &lt;S&gt;); &lt;S extends T&gt; List&lt;S&gt;" style="text;align=left;verticalAlign=top;spacingLeft=4;spacingRight=4;overflow=hidden;rotatable=0;points=[[0,0.5],[1,0.5]];portConstraint=eastwest;" vertex="1" parent="zkfFHV4jXpPFQw0GAbJ--13">
          <mxGeometry y="182" width="360" height="26" as="geometry" />
        </mxCell>
        <mxCell id="yHoqbMhk2SUwJ_CR07r3-311" style="edgeStyle=orthogonalEdgeStyle;rounded=0;sketch=0;jumpStyle=gap;orthogonalLoop=1;jettySize=auto;html=1;exitX=0.5;exitY=0;exitDx=0;exitDy=0;entryX=0.487;entryY=0.997;entryDx=0;entryDy=0;entryPerimeter=0;fontSize=14;endArrow=none;endFill=0;endSize=20;strokeColor=#FFFFFF;strokeWidth=3;" edge="1" parent="WIyWlLk6GJQsqaUBKTNV-1" source="yHoqbMhk2SUwJ_CR07r3-198" target="yHoqbMhk2SUwJ_CR07r3-310">
          <mxGeometry relative="1" as="geometry" />
        </mxCell>
        <mxCell id="yHoqbMhk2SUwJ_CR07r3-198" value="(C) ClientService " style="swimlane;fontStyle=1;align=center;verticalAlign=top;childLayout=stackLayout;horizontal=1;startSize=26;horizontalStack=0;resizeParent=1;resizeParentMax=0;resizeLast=0;collapsible=1;marginBottom=0;labelBackgroundColor=none;fontSize=14;strokeColor=default;fillColor=default;" vertex="1" parent="WIyWlLk6GJQsqaUBKTNV-1">
          <mxGeometry x="-1028.94" y="-1160" width="407.87" height="360" as="geometry" />
        </mxCell>
        <mxCell id="yHoqbMhk2SUwJ_CR07r3-199" value="" style="line;strokeWidth=1;rotatable=0;dashed=0;labelPosition=right;align=left;verticalAlign=middle;spacingTop=0;spacingLeft=6;points=[];portConstraint=eastwest;labelBackgroundColor=none;fontSize=14;fillColor=default;" vertex="1" parent="yHoqbMhk2SUwJ_CR07r3-198">
          <mxGeometry y="26" width="407.87" height="10" as="geometry" />
        </mxCell>
        <mxCell id="yHoqbMhk2SUwJ_CR07r3-200" value="- clientRepository: ClientRepository&#xa;- appUserService: AppUserService&#xa;- clientEmployeeService: ClientEmployeeService&#xa;&#xa;" style="text;strokeColor=none;fillColor=none;align=left;verticalAlign=top;spacingLeft=4;spacingRight=4;overflow=hidden;rotatable=0;points=[[0,0.5],[1,0.5]];portConstraint=eastwest;labelBackgroundColor=none;fontSize=14;" vertex="1" parent="yHoqbMhk2SUwJ_CR07r3-198">
          <mxGeometry y="36" width="407.87" height="64" as="geometry" />
        </mxCell>
        <mxCell id="yHoqbMhk2SUwJ_CR07r3-201" value="" style="line;strokeWidth=1;fillColor=none;align=left;verticalAlign=middle;spacingTop=-1;spacingLeft=3;spacingRight=3;rotatable=0;labelPosition=right;points=[];portConstraint=eastwest;labelBackgroundColor=none;fontSize=14;" vertex="1" parent="yHoqbMhk2SUwJ_CR07r3-198">
          <mxGeometry y="100" width="407.87" height="8" as="geometry" />
        </mxCell>
        <mxCell id="yHoqbMhk2SUwJ_CR07r3-202" value="+ getClients(); List&lt;Client&gt;&#xa;+ getClient(id: Long); Client&#xa;+ getClients(body: NameAndPersonalNumBody); List&lt;Client&gt;&#xa;+ getClientOrNull(id: Long); Client&#xa;+ getClientIdByUserId(appUserId:Long); Long&#xa;+ getClientByAccountNumber(accountNumber:String); Client&#xa;+ addClient(body: ClientUserBody);&#xa;@Transactional&#xa;+ updateClient(body: ClientUserBody);&#xa;+ deleteClient(id: Long);&#xa;@Transactional&#xa;+ setNumOfCreditCards(clientId: Long, type: String);&#xa;@Transactional&#xa;updateClientBalance(client:Client,amount:Float,type:String);&#xa;" style="text;strokeColor=none;fillColor=none;align=left;verticalAlign=top;spacingLeft=4;spacingRight=4;overflow=hidden;rotatable=0;points=[[0,0.5],[1,0.5]];portConstraint=eastwest;labelBackgroundColor=none;fontSize=14;" vertex="1" parent="yHoqbMhk2SUwJ_CR07r3-198">
          <mxGeometry y="108" width="407.87" height="252" as="geometry" />
        </mxCell>
        <mxCell id="yHoqbMhk2SUwJ_CR07r3-204" style="edgeStyle=orthogonalEdgeStyle;rounded=0;sketch=0;jumpStyle=arc;orthogonalLoop=1;jettySize=auto;html=1;exitX=0;exitY=0.5;exitDx=0;exitDy=0;fontSize=14;endArrow=none;endFill=0;endSize=20;strokeColor=#FFFFFF;strokeWidth=3;" edge="1" parent="WIyWlLk6GJQsqaUBKTNV-1" source="yHoqbMhk2SUwJ_CR07r3-185">
          <mxGeometry relative="1" as="geometry">
            <mxPoint x="-620" y="-880" as="targetPoint" />
            <Array as="points">
              <mxPoint x="-550" y="-1131" />
              <mxPoint x="-550" y="-880" />
            </Array>
          </mxGeometry>
        </mxCell>
        <mxCell id="yHoqbMhk2SUwJ_CR07r3-317" style="edgeStyle=orthogonalEdgeStyle;rounded=0;sketch=0;jumpStyle=gap;orthogonalLoop=1;jettySize=auto;html=1;exitX=0.5;exitY=0;exitDx=0;exitDy=0;entryX=0.515;entryY=1;entryDx=0;entryDy=0;entryPerimeter=0;fontSize=14;endArrow=none;endFill=0;endSize=20;strokeColor=#FFFFFF;strokeWidth=3;" edge="1" parent="WIyWlLk6GJQsqaUBKTNV-1" source="yHoqbMhk2SUwJ_CR07r3-205" target="yHoqbMhk2SUwJ_CR07r3-316">
          <mxGeometry relative="1" as="geometry" />
        </mxCell>
        <mxCell id="yHoqbMhk2SUwJ_CR07r3-205" value="(C) CreditCardService " style="swimlane;fontStyle=1;align=center;verticalAlign=top;childLayout=stackLayout;horizontal=1;startSize=26;horizontalStack=0;resizeParent=1;resizeParentMax=0;resizeLast=0;collapsible=1;marginBottom=0;labelBackgroundColor=none;fontSize=14;strokeColor=default;fillColor=default;" vertex="1" parent="WIyWlLk6GJQsqaUBKTNV-1">
          <mxGeometry x="-1593.93" y="-1330" width="407.87" height="260" as="geometry" />
        </mxCell>
        <mxCell id="yHoqbMhk2SUwJ_CR07r3-206" value="" style="line;strokeWidth=1;rotatable=0;dashed=0;labelPosition=right;align=left;verticalAlign=middle;spacingTop=0;spacingLeft=6;points=[];portConstraint=eastwest;labelBackgroundColor=none;fontSize=14;fillColor=default;" vertex="1" parent="yHoqbMhk2SUwJ_CR07r3-205">
          <mxGeometry y="26" width="407.87" height="10" as="geometry" />
        </mxCell>
        <mxCell id="yHoqbMhk2SUwJ_CR07r3-207" value="- creditCardRepository: CreditCardRepository&#xa;- clientService: ClientService&#xa;- hangleError: Supplier&lt;IllegalStateException&gt;" style="text;strokeColor=none;fillColor=none;align=left;verticalAlign=top;spacingLeft=4;spacingRight=4;overflow=hidden;rotatable=0;points=[[0,0.5],[1,0.5]];portConstraint=eastwest;labelBackgroundColor=none;fontSize=14;" vertex="1" parent="yHoqbMhk2SUwJ_CR07r3-205">
          <mxGeometry y="36" width="407.87" height="64" as="geometry" />
        </mxCell>
        <mxCell id="yHoqbMhk2SUwJ_CR07r3-208" value="" style="line;strokeWidth=1;fillColor=none;align=left;verticalAlign=middle;spacingTop=-1;spacingLeft=3;spacingRight=3;rotatable=0;labelPosition=right;points=[];portConstraint=eastwest;labelBackgroundColor=none;fontSize=14;" vertex="1" parent="yHoqbMhk2SUwJ_CR07r3-205">
          <mxGeometry y="100" width="407.87" height="8" as="geometry" />
        </mxCell>
        <mxCell id="yHoqbMhk2SUwJ_CR07r3-209" value="+ getCreditCard(); List&lt;CreditCard&gt;&#xa;+ getCreditCard(cardId: Long); CreditCard&#xa;+ getClientCreditCards(clientId: Long); List&lt;CreditCard&gt;&#xa;@Transactional&#xa;+ addCreditCard(clientId:Long,creditCard: CreditCard);&#xa;@Transactional&#xa;+ switchActiveStateOfCreditCard(cardId: Long);&#xa;+ deleteCreditCard(cardId: Long);&#xa;" style="text;strokeColor=none;fillColor=none;align=left;verticalAlign=top;spacingLeft=4;spacingRight=4;overflow=hidden;rotatable=0;points=[[0,0.5],[1,0.5]];portConstraint=eastwest;labelBackgroundColor=none;fontSize=14;" vertex="1" parent="yHoqbMhk2SUwJ_CR07r3-205">
          <mxGeometry y="108" width="407.87" height="152" as="geometry" />
        </mxCell>
        <mxCell id="yHoqbMhk2SUwJ_CR07r3-210" style="edgeStyle=orthogonalEdgeStyle;rounded=0;sketch=0;jumpStyle=arc;orthogonalLoop=1;jettySize=auto;html=1;exitX=1;exitY=0.5;exitDx=0;exitDy=0;entryX=-0.001;entryY=0.302;entryDx=0;entryDy=0;entryPerimeter=0;fontSize=14;endArrow=none;endFill=0;endSize=20;strokeColor=#FFFFFF;strokeWidth=3;" edge="1" parent="WIyWlLk6GJQsqaUBKTNV-1" source="yHoqbMhk2SUwJ_CR07r3-209" target="yHoqbMhk2SUwJ_CR07r3-202">
          <mxGeometry relative="1" as="geometry" />
        </mxCell>
        <mxCell id="yHoqbMhk2SUwJ_CR07r3-287" style="edgeStyle=orthogonalEdgeStyle;rounded=0;sketch=0;jumpStyle=gap;orthogonalLoop=1;jettySize=auto;html=1;entryX=0.5;entryY=0;entryDx=0;entryDy=0;fontSize=14;endArrow=none;endFill=0;endSize=20;strokeColor=#FFFFFF;strokeWidth=3;" edge="1" parent="WIyWlLk6GJQsqaUBKTNV-1" source="yHoqbMhk2SUwJ_CR07r3-211" target="yHoqbMhk2SUwJ_CR07r3-272">
          <mxGeometry relative="1" as="geometry">
            <Array as="points">
              <mxPoint x="-1904" y="-560" />
              <mxPoint x="-1105" y="-560" />
            </Array>
          </mxGeometry>
        </mxCell>
        <mxCell id="yHoqbMhk2SUwJ_CR07r3-288" style="edgeStyle=orthogonalEdgeStyle;rounded=0;sketch=0;jumpStyle=gap;orthogonalLoop=1;jettySize=auto;html=1;entryX=0.5;entryY=0;entryDx=0;entryDy=0;fontSize=14;endArrow=none;endFill=0;endSize=20;strokeColor=#FFFFFF;strokeWidth=3;" edge="1" parent="WIyWlLk6GJQsqaUBKTNV-1" source="yHoqbMhk2SUwJ_CR07r3-211" target="yHoqbMhk2SUwJ_CR07r3-280">
          <mxGeometry relative="1" as="geometry">
            <Array as="points">
              <mxPoint x="-1880" y="-590" />
              <mxPoint x="-555" y="-590" />
            </Array>
          </mxGeometry>
        </mxCell>
        <mxCell id="yHoqbMhk2SUwJ_CR07r3-323" style="edgeStyle=orthogonalEdgeStyle;rounded=0;sketch=0;jumpStyle=gap;orthogonalLoop=1;jettySize=auto;html=1;exitX=0.5;exitY=0;exitDx=0;exitDy=0;entryX=0.477;entryY=1.002;entryDx=0;entryDy=0;entryPerimeter=0;fontSize=14;endArrow=none;endFill=0;endSize=20;strokeColor=#FFFFFF;strokeWidth=3;" edge="1" parent="WIyWlLk6GJQsqaUBKTNV-1" source="yHoqbMhk2SUwJ_CR07r3-211" target="yHoqbMhk2SUwJ_CR07r3-322">
          <mxGeometry relative="1" as="geometry" />
        </mxCell>
        <mxCell id="yHoqbMhk2SUwJ_CR07r3-211" value="(C) CyclicalTransferService " style="swimlane;fontStyle=1;align=center;verticalAlign=top;childLayout=stackLayout;horizontal=1;startSize=26;horizontalStack=0;resizeParent=1;resizeParentMax=0;resizeLast=0;collapsible=1;marginBottom=0;labelBackgroundColor=none;fontSize=14;strokeColor=default;fillColor=default;" vertex="1" parent="WIyWlLk6GJQsqaUBKTNV-1">
          <mxGeometry x="-2128.93" y="-1330" width="448.93" height="350" as="geometry" />
        </mxCell>
        <mxCell id="yHoqbMhk2SUwJ_CR07r3-212" value="" style="line;strokeWidth=1;rotatable=0;dashed=0;labelPosition=right;align=left;verticalAlign=middle;spacingTop=0;spacingLeft=6;points=[];portConstraint=eastwest;labelBackgroundColor=none;fontSize=14;fillColor=default;" vertex="1" parent="yHoqbMhk2SUwJ_CR07r3-211">
          <mxGeometry y="26" width="448.93" height="10" as="geometry" />
        </mxCell>
        <mxCell id="yHoqbMhk2SUwJ_CR07r3-213" value="- cyclicalTransferRepository: CyclicalTransferRepository&#xa;- clientService: ClientService&#xa;- transferService: TransferService&#xa;- emailService: EmailService&#xa;- emailTemplates: EmailTemplates" style="text;strokeColor=none;fillColor=none;align=left;verticalAlign=top;spacingLeft=4;spacingRight=4;overflow=hidden;rotatable=0;points=[[0,0.5],[1,0.5]];portConstraint=eastwest;labelBackgroundColor=none;fontSize=14;" vertex="1" parent="yHoqbMhk2SUwJ_CR07r3-211">
          <mxGeometry y="36" width="448.93" height="94" as="geometry" />
        </mxCell>
        <mxCell id="yHoqbMhk2SUwJ_CR07r3-214" value="" style="line;strokeWidth=1;fillColor=none;align=left;verticalAlign=middle;spacingTop=-1;spacingLeft=3;spacingRight=3;rotatable=0;labelPosition=right;points=[];portConstraint=eastwest;labelBackgroundColor=none;fontSize=14;" vertex="1" parent="yHoqbMhk2SUwJ_CR07r3-211">
          <mxGeometry y="130" width="448.93" height="8" as="geometry" />
        </mxCell>
        <mxCell id="yHoqbMhk2SUwJ_CR07r3-215" value="- TransferNotExists(transferId: Long); String&#xa;+ getTransfers(); List&lt;CyclicalTransfer&gt;&#xa;+ getTransfer(transferId: Long); CyclicalTransfer&#xa;+ getClientTransfers(clientId: Long); List&lt;CyclicalTransfer&gt;&#xa;+ addTransfer(cyclicalTransfer: CyclicalTransfer);&#xa;- checkForDuplicatedTransfers(cyclicalTransfer: CyclicalTransfer); &#xa;@Transactional&#xa;+ updateTransfer(cyclicalTransfer: CyclicalTransfer, transferId: Long);&#xa;+ deleteTransfer(transferId: Long);&#xa;@Scheduled&#xa;# realiseTransfers();&#xa;" style="text;strokeColor=none;fillColor=none;align=left;verticalAlign=top;spacingLeft=4;spacingRight=4;overflow=hidden;rotatable=0;points=[[0,0.5],[1,0.5]];portConstraint=eastwest;labelBackgroundColor=none;fontSize=14;" vertex="1" parent="yHoqbMhk2SUwJ_CR07r3-211">
          <mxGeometry y="138" width="448.93" height="212" as="geometry" />
        </mxCell>
        <mxCell id="yHoqbMhk2SUwJ_CR07r3-329" style="edgeStyle=orthogonalEdgeStyle;rounded=0;sketch=0;jumpStyle=gap;orthogonalLoop=1;jettySize=auto;html=1;exitX=0.5;exitY=0;exitDx=0;exitDy=0;entryX=0.5;entryY=1;entryDx=0;entryDy=0;fontSize=14;endArrow=none;endFill=0;endSize=20;strokeColor=#FFFFFF;strokeWidth=3;" edge="1" parent="WIyWlLk6GJQsqaUBKTNV-1" source="yHoqbMhk2SUwJ_CR07r3-218" target="yHoqbMhk2SUwJ_CR07r3-324">
          <mxGeometry relative="1" as="geometry" />
        </mxCell>
        <mxCell id="yHoqbMhk2SUwJ_CR07r3-218" value="(C) EmployeeService " style="swimlane;fontStyle=1;align=center;verticalAlign=top;childLayout=stackLayout;horizontal=1;startSize=26;horizontalStack=0;resizeParent=1;resizeParentMax=0;resizeLast=0;collapsible=1;marginBottom=0;labelBackgroundColor=none;fontSize=14;strokeColor=default;fillColor=default;" vertex="1" parent="WIyWlLk6GJQsqaUBKTNV-1">
          <mxGeometry x="-2640" y="-1330" width="448.93" height="260" as="geometry" />
        </mxCell>
        <mxCell id="yHoqbMhk2SUwJ_CR07r3-219" value="" style="line;strokeWidth=1;rotatable=0;dashed=0;labelPosition=right;align=left;verticalAlign=middle;spacingTop=0;spacingLeft=6;points=[];portConstraint=eastwest;labelBackgroundColor=none;fontSize=14;fillColor=default;" vertex="1" parent="yHoqbMhk2SUwJ_CR07r3-218">
          <mxGeometry y="26" width="448.93" height="10" as="geometry" />
        </mxCell>
        <mxCell id="yHoqbMhk2SUwJ_CR07r3-220" value="- employeeRepository: EmployeeRepository&#xa;- appUserService: AppUserService&#xa;- clientEmployeeService: ClientEmployeeService&#xa;" style="text;strokeColor=none;fillColor=none;align=left;verticalAlign=top;spacingLeft=4;spacingRight=4;overflow=hidden;rotatable=0;points=[[0,0.5],[1,0.5]];portConstraint=eastwest;labelBackgroundColor=none;fontSize=14;" vertex="1" parent="yHoqbMhk2SUwJ_CR07r3-218">
          <mxGeometry y="36" width="448.93" height="64" as="geometry" />
        </mxCell>
        <mxCell id="yHoqbMhk2SUwJ_CR07r3-221" value="" style="line;strokeWidth=1;fillColor=none;align=left;verticalAlign=middle;spacingTop=-1;spacingLeft=3;spacingRight=3;rotatable=0;labelPosition=right;points=[];portConstraint=eastwest;labelBackgroundColor=none;fontSize=14;" vertex="1" parent="yHoqbMhk2SUwJ_CR07r3-218">
          <mxGeometry y="100" width="448.93" height="8" as="geometry" />
        </mxCell>
        <mxCell id="yHoqbMhk2SUwJ_CR07r3-222" value="+ getEmployees(); List&lt;Employee&gt;&#xa;+ getEmployee(id: Long); Employee&#xa;+ getEmployee(body: NameAndPersonalNumBody); List&lt;Employee&gt;&#xa;+ addEmployee(body: EmployeeUserBody); &#xa;@Transactional&#xa;+ updateEmployee(body: EmployeeUserBody);&#xa;+ deleteTransfer(id: Long);&#xa;+ getEmployeeByUserId(appUserId: Long); Long&#xa;" style="text;strokeColor=none;fillColor=none;align=left;verticalAlign=top;spacingLeft=4;spacingRight=4;overflow=hidden;rotatable=0;points=[[0,0.5],[1,0.5]];portConstraint=eastwest;labelBackgroundColor=none;fontSize=14;" vertex="1" parent="yHoqbMhk2SUwJ_CR07r3-218">
          <mxGeometry y="108" width="448.93" height="152" as="geometry" />
        </mxCell>
        <mxCell id="yHoqbMhk2SUwJ_CR07r3-299" style="edgeStyle=orthogonalEdgeStyle;rounded=0;sketch=0;jumpStyle=gap;orthogonalLoop=1;jettySize=auto;html=1;exitX=0.5;exitY=0;exitDx=0;exitDy=0;entryX=0.5;entryY=1;entryDx=0;entryDy=0;fontSize=14;endArrow=none;endFill=0;endSize=20;strokeColor=#FFFFFF;strokeWidth=3;" edge="1" parent="WIyWlLk6GJQsqaUBKTNV-1" source="yHoqbMhk2SUwJ_CR07r3-191" target="yHoqbMhk2SUwJ_CR07r3-294">
          <mxGeometry relative="1" as="geometry" />
        </mxCell>
        <mxCell id="yHoqbMhk2SUwJ_CR07r3-191" value="(C) AnnouncementService " style="swimlane;fontStyle=1;align=center;verticalAlign=top;childLayout=stackLayout;horizontal=1;startSize=26;horizontalStack=0;resizeParent=1;resizeParentMax=0;resizeLast=0;collapsible=1;marginBottom=0;labelBackgroundColor=none;fontSize=14;strokeColor=default;fillColor=default;" vertex="1" parent="WIyWlLk6GJQsqaUBKTNV-1">
          <mxGeometry x="-428.94" y="-1100" width="407.87" height="190" as="geometry" />
        </mxCell>
        <mxCell id="yHoqbMhk2SUwJ_CR07r3-193" value="" style="line;strokeWidth=1;rotatable=0;dashed=0;labelPosition=right;align=left;verticalAlign=middle;spacingTop=0;spacingLeft=6;points=[];portConstraint=eastwest;labelBackgroundColor=none;fontSize=14;fillColor=default;" vertex="1" parent="yHoqbMhk2SUwJ_CR07r3-191">
          <mxGeometry y="26" width="407.87" height="10" as="geometry" />
        </mxCell>
        <mxCell id="yHoqbMhk2SUwJ_CR07r3-194" value="- announcementRepository: AnnouncementRepository&#xa;&#xa;" style="text;strokeColor=none;fillColor=none;align=left;verticalAlign=top;spacingLeft=4;spacingRight=4;overflow=hidden;rotatable=0;points=[[0,0.5],[1,0.5]];portConstraint=eastwest;labelBackgroundColor=none;fontSize=14;" vertex="1" parent="yHoqbMhk2SUwJ_CR07r3-191">
          <mxGeometry y="36" width="407.87" height="24" as="geometry" />
        </mxCell>
        <mxCell id="yHoqbMhk2SUwJ_CR07r3-195" value="" style="line;strokeWidth=1;fillColor=none;align=left;verticalAlign=middle;spacingTop=-1;spacingLeft=3;spacingRight=3;rotatable=0;labelPosition=right;points=[];portConstraint=eastwest;labelBackgroundColor=none;fontSize=14;" vertex="1" parent="yHoqbMhk2SUwJ_CR07r3-191">
          <mxGeometry y="60" width="407.87" height="8" as="geometry" />
        </mxCell>
        <mxCell id="yHoqbMhk2SUwJ_CR07r3-196" value="+ getAnnouncements(); List&lt;Announcement&gt;&#xa;+ getAnnouncement(id: Long); Announcement&#xa;+ addAnnouncement(announcement:Announcement);&#xa;@Transactional&#xa;+ updateAnnouncement(announcement:Announcement);&#xa;+ deleteAnnouncement(id: Long);&#xa;" style="text;strokeColor=none;fillColor=none;align=left;verticalAlign=top;spacingLeft=4;spacingRight=4;overflow=hidden;rotatable=0;points=[[0,0.5],[1,0.5]];portConstraint=eastwest;labelBackgroundColor=none;fontSize=14;" vertex="1" parent="yHoqbMhk2SUwJ_CR07r3-191">
          <mxGeometry y="68" width="407.87" height="122" as="geometry" />
        </mxCell>
        <mxCell id="yHoqbMhk2SUwJ_CR07r3-224" style="edgeStyle=orthogonalEdgeStyle;rounded=0;sketch=0;jumpStyle=arc;orthogonalLoop=1;jettySize=auto;html=1;exitX=1;exitY=0.5;exitDx=0;exitDy=0;fontSize=14;endArrow=none;endFill=0;endSize=20;strokeColor=#FFFFFF;strokeWidth=3;" edge="1" parent="WIyWlLk6GJQsqaUBKTNV-1" source="yHoqbMhk2SUwJ_CR07r3-215">
          <mxGeometry relative="1" as="geometry">
            <mxPoint x="-1030" y="-940" as="targetPoint" />
            <Array as="points">
              <mxPoint x="-1640" y="-1086" />
              <mxPoint x="-1640" y="-940" />
              <mxPoint x="-1033" y="-940" />
            </Array>
          </mxGeometry>
        </mxCell>
        <mxCell id="yHoqbMhk2SUwJ_CR07r3-225" style="edgeStyle=orthogonalEdgeStyle;rounded=0;sketch=0;jumpStyle=arc;orthogonalLoop=1;jettySize=auto;html=1;exitX=1;exitY=0.5;exitDx=0;exitDy=0;entryX=0;entryY=0.5;entryDx=0;entryDy=0;fontSize=14;endArrow=none;endFill=0;endSize=20;strokeColor=#FFFFFF;strokeWidth=3;" edge="1" parent="WIyWlLk6GJQsqaUBKTNV-1" source="yHoqbMhk2SUwJ_CR07r3-220" target="yHoqbMhk2SUwJ_CR07r3-186">
          <mxGeometry relative="1" as="geometry">
            <Array as="points">
              <mxPoint x="-2160" y="-1262" />
              <mxPoint x="-2160" y="-1367" />
            </Array>
          </mxGeometry>
        </mxCell>
        <mxCell id="yHoqbMhk2SUwJ_CR07r3-226" value="(C) ClientEmployeeService " style="swimlane;fontStyle=1;align=center;verticalAlign=top;childLayout=stackLayout;horizontal=1;startSize=26;horizontalStack=0;resizeParent=1;resizeParentMax=0;resizeLast=0;collapsible=1;marginBottom=0;labelBackgroundColor=none;fontSize=14;strokeColor=default;fillColor=default;" vertex="1" parent="WIyWlLk6GJQsqaUBKTNV-1">
          <mxGeometry x="-1880" y="-500" width="448.93" height="140" as="geometry" />
        </mxCell>
        <mxCell id="yHoqbMhk2SUwJ_CR07r3-227" value="" style="line;strokeWidth=1;rotatable=0;dashed=0;labelPosition=right;align=left;verticalAlign=middle;spacingTop=0;spacingLeft=6;points=[];portConstraint=eastwest;labelBackgroundColor=none;fontSize=14;fillColor=default;" vertex="1" parent="yHoqbMhk2SUwJ_CR07r3-226">
          <mxGeometry y="26" width="448.93" height="10" as="geometry" />
        </mxCell>
        <mxCell id="yHoqbMhk2SUwJ_CR07r3-228" value="- employeeRepository: EmployeeRepository&#xa;- clientRepository: ClientRepository&#xa;" style="text;strokeColor=none;fillColor=none;align=left;verticalAlign=top;spacingLeft=4;spacingRight=4;overflow=hidden;rotatable=0;points=[[0,0.5],[1,0.5]];portConstraint=eastwest;labelBackgroundColor=none;fontSize=14;" vertex="1" parent="yHoqbMhk2SUwJ_CR07r3-226">
          <mxGeometry y="36" width="448.93" height="44" as="geometry" />
        </mxCell>
        <mxCell id="yHoqbMhk2SUwJ_CR07r3-229" value="" style="line;strokeWidth=1;fillColor=none;align=left;verticalAlign=middle;spacingTop=-1;spacingLeft=3;spacingRight=3;rotatable=0;labelPosition=right;points=[];portConstraint=eastwest;labelBackgroundColor=none;fontSize=14;" vertex="1" parent="yHoqbMhk2SUwJ_CR07r3-226">
          <mxGeometry y="80" width="448.93" height="8" as="geometry" />
        </mxCell>
        <mxCell id="yHoqbMhk2SUwJ_CR07r3-230" value="+ existsByPersonalNumber(personalNumber: String); Boolean&#xa;+ existsByIdentificationNumber(identificationNumber: String); Boolean&#xa;&#xa;" style="text;strokeColor=none;fillColor=none;align=left;verticalAlign=top;spacingLeft=4;spacingRight=4;overflow=hidden;rotatable=0;points=[[0,0.5],[1,0.5]];portConstraint=eastwest;labelBackgroundColor=none;fontSize=14;" vertex="1" parent="yHoqbMhk2SUwJ_CR07r3-226">
          <mxGeometry y="88" width="448.93" height="52" as="geometry" />
        </mxCell>
        <mxCell id="yHoqbMhk2SUwJ_CR07r3-231" style="edgeStyle=orthogonalEdgeStyle;rounded=0;sketch=0;jumpStyle=arc;orthogonalLoop=1;jettySize=auto;html=1;exitX=1;exitY=0.5;exitDx=0;exitDy=0;entryX=0;entryY=0.5;entryDx=0;entryDy=0;fontSize=14;endArrow=none;endFill=0;endSize=20;strokeColor=#FFFFFF;strokeWidth=3;" edge="1" parent="WIyWlLk6GJQsqaUBKTNV-1" source="yHoqbMhk2SUwJ_CR07r3-222" target="yHoqbMhk2SUwJ_CR07r3-228">
          <mxGeometry relative="1" as="geometry">
            <Array as="points">
              <mxPoint x="-2160" y="-1146" />
              <mxPoint x="-2160" y="-440" />
              <mxPoint x="-1970" y="-440" />
              <mxPoint x="-1970" y="-442" />
            </Array>
          </mxGeometry>
        </mxCell>
        <mxCell id="yHoqbMhk2SUwJ_CR07r3-232" style="edgeStyle=orthogonalEdgeStyle;rounded=0;sketch=0;jumpStyle=arc;orthogonalLoop=1;jettySize=auto;html=1;exitX=0;exitY=0.5;exitDx=0;exitDy=0;entryX=1;entryY=0.5;entryDx=0;entryDy=0;fontSize=14;endArrow=none;endFill=0;endSize=20;strokeColor=#FFFFFF;strokeWidth=3;" edge="1" parent="WIyWlLk6GJQsqaUBKTNV-1" source="yHoqbMhk2SUwJ_CR07r3-202" target="yHoqbMhk2SUwJ_CR07r3-228">
          <mxGeometry relative="1" as="geometry" />
        </mxCell>
        <mxCell id="yHoqbMhk2SUwJ_CR07r3-335" style="edgeStyle=orthogonalEdgeStyle;rounded=0;sketch=0;jumpStyle=gap;orthogonalLoop=1;jettySize=auto;html=1;exitX=0.5;exitY=0;exitDx=0;exitDy=0;entryX=0.489;entryY=1.004;entryDx=0;entryDy=0;entryPerimeter=0;fontSize=14;endArrow=none;endFill=0;endSize=20;strokeColor=#FFFFFF;strokeWidth=3;" edge="1" parent="WIyWlLk6GJQsqaUBKTNV-1" source="yHoqbMhk2SUwJ_CR07r3-237" target="yHoqbMhk2SUwJ_CR07r3-334">
          <mxGeometry relative="1" as="geometry" />
        </mxCell>
        <mxCell id="yHoqbMhk2SUwJ_CR07r3-237" value="(C) LoanRateService " style="swimlane;fontStyle=1;align=center;verticalAlign=top;childLayout=stackLayout;horizontal=1;startSize=26;horizontalStack=0;resizeParent=1;resizeParentMax=0;resizeLast=0;collapsible=1;marginBottom=0;labelBackgroundColor=none;fontSize=14;strokeColor=default;fillColor=default;" vertex="1" parent="WIyWlLk6GJQsqaUBKTNV-1">
          <mxGeometry x="871.0699999999999" y="-1410" width="407.87" height="160" as="geometry" />
        </mxCell>
        <mxCell id="yHoqbMhk2SUwJ_CR07r3-239" value="" style="line;strokeWidth=1;rotatable=0;dashed=0;labelPosition=right;align=left;verticalAlign=middle;spacingTop=0;spacingLeft=6;points=[];portConstraint=eastwest;labelBackgroundColor=none;fontSize=14;fillColor=default;" vertex="1" parent="yHoqbMhk2SUwJ_CR07r3-237">
          <mxGeometry y="26" width="407.87" height="10" as="geometry" />
        </mxCell>
        <mxCell id="yHoqbMhk2SUwJ_CR07r3-240" value="- loanRateRepository: loanRateRepository&#xa;" style="text;strokeColor=none;fillColor=none;align=left;verticalAlign=top;spacingLeft=4;spacingRight=4;overflow=hidden;rotatable=0;points=[[0,0.5],[1,0.5]];portConstraint=eastwest;labelBackgroundColor=none;fontSize=14;" vertex="1" parent="yHoqbMhk2SUwJ_CR07r3-237">
          <mxGeometry y="36" width="407.87" height="24" as="geometry" />
        </mxCell>
        <mxCell id="yHoqbMhk2SUwJ_CR07r3-241" value="" style="line;strokeWidth=1;fillColor=none;align=left;verticalAlign=middle;spacingTop=-1;spacingLeft=3;spacingRight=3;rotatable=0;labelPosition=right;points=[];portConstraint=eastwest;labelBackgroundColor=none;fontSize=14;" vertex="1" parent="yHoqbMhk2SUwJ_CR07r3-237">
          <mxGeometry y="60" width="407.87" height="8" as="geometry" />
        </mxCell>
        <mxCell id="yHoqbMhk2SUwJ_CR07r3-242" value="+ getRates(); List&lt;LoanRate&gt;&#xa;+ getRates(loanId: Long); List&lt;LoanRate&gt;&#xa;+ addRate(loan: Loan); &#xa;+ getNumOfRatesPayed(loanId: Long); Integer&#xa;+ checkIfPayed(nextRatePayDay: LocalDate); Boolean&#xa;" style="text;strokeColor=none;fillColor=none;align=left;verticalAlign=top;spacingLeft=4;spacingRight=4;overflow=hidden;rotatable=0;points=[[0,0.5],[1,0.5]];portConstraint=eastwest;labelBackgroundColor=none;fontSize=14;" vertex="1" parent="yHoqbMhk2SUwJ_CR07r3-237">
          <mxGeometry y="68" width="407.87" height="92" as="geometry" />
        </mxCell>
        <mxCell id="yHoqbMhk2SUwJ_CR07r3-341" style="edgeStyle=orthogonalEdgeStyle;rounded=0;sketch=0;jumpStyle=gap;orthogonalLoop=1;jettySize=auto;html=1;exitX=0.5;exitY=0;exitDx=0;exitDy=0;entryX=0.484;entryY=1;entryDx=0;entryDy=0;entryPerimeter=0;fontSize=14;endArrow=none;endFill=0;endSize=20;strokeColor=#FFFFFF;strokeWidth=3;" edge="1" parent="WIyWlLk6GJQsqaUBKTNV-1" source="yHoqbMhk2SUwJ_CR07r3-244" target="yHoqbMhk2SUwJ_CR07r3-340">
          <mxGeometry relative="1" as="geometry" />
        </mxCell>
        <mxCell id="yHoqbMhk2SUwJ_CR07r3-244" value="(C) LoanService " style="swimlane;fontStyle=1;align=center;verticalAlign=top;childLayout=stackLayout;horizontal=1;startSize=26;horizontalStack=0;resizeParent=1;resizeParentMax=0;resizeLast=0;collapsible=1;marginBottom=0;labelBackgroundColor=none;fontSize=14;strokeColor=default;fillColor=default;" vertex="1" parent="WIyWlLk6GJQsqaUBKTNV-1">
          <mxGeometry x="1526.0600000000002" y="-1410" width="407.87" height="380" as="geometry" />
        </mxCell>
        <mxCell id="yHoqbMhk2SUwJ_CR07r3-245" value="" style="line;strokeWidth=1;rotatable=0;dashed=0;labelPosition=right;align=left;verticalAlign=middle;spacingTop=0;spacingLeft=6;points=[];portConstraint=eastwest;labelBackgroundColor=none;fontSize=14;fillColor=default;" vertex="1" parent="yHoqbMhk2SUwJ_CR07r3-244">
          <mxGeometry y="26" width="407.87" height="10" as="geometry" />
        </mxCell>
        <mxCell id="yHoqbMhk2SUwJ_CR07r3-246" value="- loanRepository: loanRepository&#xa;- clientService: ClientService&#xa;- transferService: TransferService&#xa;- loanRateService: LoanRateService" style="text;strokeColor=none;fillColor=none;align=left;verticalAlign=top;spacingLeft=4;spacingRight=4;overflow=hidden;rotatable=0;points=[[0,0.5],[1,0.5]];portConstraint=eastwest;labelBackgroundColor=none;fontSize=14;" vertex="1" parent="yHoqbMhk2SUwJ_CR07r3-244">
          <mxGeometry y="36" width="407.87" height="84" as="geometry" />
        </mxCell>
        <mxCell id="yHoqbMhk2SUwJ_CR07r3-247" value="" style="line;strokeWidth=1;fillColor=none;align=left;verticalAlign=middle;spacingTop=-1;spacingLeft=3;spacingRight=3;rotatable=0;labelPosition=right;points=[];portConstraint=eastwest;labelBackgroundColor=none;fontSize=14;" vertex="1" parent="yHoqbMhk2SUwJ_CR07r3-244">
          <mxGeometry y="120" width="407.87" height="8" as="geometry" />
        </mxCell>
        <mxCell id="yHoqbMhk2SUwJ_CR07r3-248" value="- LoanNotFound(loanId: Long); String&#xa;+ getLoans(); List&lt;Loan&gt;&#xa;+ getLoan(loanId: Long); Loan&#xa;+ addLoan(body: LoanBody); &#xa;@Transactional&#xa;+ setInactive(loanId: Long);&#xa;+ deleteLoan(loanId: Long);&#xa;@Transactional&#xa;+ realizePayment(clientId: Long);&#xa;- updateRatesInfo(loan: Loan);&#xa;@Transactional&#xa;@Scheduled&#xa;# updateLoans();&#xa;" style="text;strokeColor=none;fillColor=none;align=left;verticalAlign=top;spacingLeft=4;spacingRight=4;overflow=hidden;rotatable=0;points=[[0,0.5],[1,0.5]];portConstraint=eastwest;labelBackgroundColor=none;fontSize=14;" vertex="1" parent="yHoqbMhk2SUwJ_CR07r3-244">
          <mxGeometry y="128" width="407.87" height="252" as="geometry" />
        </mxCell>
        <mxCell id="yHoqbMhk2SUwJ_CR07r3-250" style="edgeStyle=orthogonalEdgeStyle;rounded=0;sketch=0;jumpStyle=gap;orthogonalLoop=1;jettySize=auto;html=1;exitX=1;exitY=0.5;exitDx=0;exitDy=0;entryX=0;entryY=0.5;entryDx=0;entryDy=0;fontSize=14;endArrow=none;endFill=0;endSize=20;strokeColor=#FFFFFF;strokeWidth=3;" edge="1" parent="WIyWlLk6GJQsqaUBKTNV-1" source="yHoqbMhk2SUwJ_CR07r3-242" target="yHoqbMhk2SUwJ_CR07r3-248">
          <mxGeometry relative="1" as="geometry" />
        </mxCell>
        <mxCell id="yHoqbMhk2SUwJ_CR07r3-251" style="edgeStyle=orthogonalEdgeStyle;rounded=0;sketch=0;jumpStyle=gap;orthogonalLoop=1;jettySize=auto;html=1;exitX=1;exitY=0.5;exitDx=0;exitDy=0;entryX=0;entryY=0.5;entryDx=0;entryDy=0;fontSize=14;endArrow=none;endFill=0;endSize=20;strokeColor=#FFFFFF;strokeWidth=3;" edge="1" parent="WIyWlLk6GJQsqaUBKTNV-1" source="yHoqbMhk2SUwJ_CR07r3-202" target="yHoqbMhk2SUwJ_CR07r3-248">
          <mxGeometry relative="1" as="geometry">
            <Array as="points">
              <mxPoint x="-580" y="-926" />
              <mxPoint x="-580" y="-660" />
              <mxPoint x="780" y="-660" />
              <mxPoint x="780" y="-1156" />
            </Array>
          </mxGeometry>
        </mxCell>
        <mxCell id="yHoqbMhk2SUwJ_CR07r3-347" style="edgeStyle=orthogonalEdgeStyle;rounded=0;sketch=0;jumpStyle=gap;orthogonalLoop=1;jettySize=auto;html=1;exitX=0.5;exitY=0;exitDx=0;exitDy=0;entryX=0.5;entryY=1;entryDx=0;entryDy=0;fontSize=14;endArrow=none;endFill=0;endSize=20;strokeColor=#FFFFFF;strokeWidth=3;" edge="1" parent="WIyWlLk6GJQsqaUBKTNV-1" source="yHoqbMhk2SUwJ_CR07r3-252" target="yHoqbMhk2SUwJ_CR07r3-342">
          <mxGeometry relative="1" as="geometry" />
        </mxCell>
        <mxCell id="yHoqbMhk2SUwJ_CR07r3-252" value="(C) OrderService " style="swimlane;fontStyle=1;align=center;verticalAlign=top;childLayout=stackLayout;horizontal=1;startSize=26;horizontalStack=0;resizeParent=1;resizeParentMax=0;resizeLast=0;collapsible=1;marginBottom=0;labelBackgroundColor=none;fontSize=14;strokeColor=default;fillColor=default;" vertex="1" parent="WIyWlLk6GJQsqaUBKTNV-1">
          <mxGeometry x="2000.25" y="-1410" width="322.74" height="210" as="geometry" />
        </mxCell>
        <mxCell id="yHoqbMhk2SUwJ_CR07r3-253" value="" style="line;strokeWidth=1;rotatable=0;dashed=0;labelPosition=right;align=left;verticalAlign=middle;spacingTop=0;spacingLeft=6;points=[];portConstraint=eastwest;labelBackgroundColor=none;fontSize=14;fillColor=default;" vertex="1" parent="yHoqbMhk2SUwJ_CR07r3-252">
          <mxGeometry y="26" width="322.74" height="10" as="geometry" />
        </mxCell>
        <mxCell id="yHoqbMhk2SUwJ_CR07r3-254" value="- orderRepository: OrderRepository" style="text;strokeColor=none;fillColor=none;align=left;verticalAlign=top;spacingLeft=4;spacingRight=4;overflow=hidden;rotatable=0;points=[[0,0.5],[1,0.5]];portConstraint=eastwest;labelBackgroundColor=none;fontSize=14;" vertex="1" parent="yHoqbMhk2SUwJ_CR07r3-252">
          <mxGeometry y="36" width="322.74" height="34" as="geometry" />
        </mxCell>
        <mxCell id="yHoqbMhk2SUwJ_CR07r3-255" value="" style="line;strokeWidth=1;fillColor=none;align=left;verticalAlign=middle;spacingTop=-1;spacingLeft=3;spacingRight=3;rotatable=0;labelPosition=right;points=[];portConstraint=eastwest;labelBackgroundColor=none;fontSize=14;" vertex="1" parent="yHoqbMhk2SUwJ_CR07r3-252">
          <mxGeometry y="70" width="322.74" height="8" as="geometry" />
        </mxCell>
        <mxCell id="yHoqbMhk2SUwJ_CR07r3-256" value="- orderNotFound(id: Long); String&#xa;+ getOrders(role:String); List&lt;Order&gt;&#xa;+ getOrder(orderId: Long); Order&#xa;+ addOrder(order: Order); &#xa;@Transactional&#xa;+ setInactive(orderId: Long);&#xa;+ deleteOrder(orderId: Long);&#xa;&#xa;&#xa;" style="text;strokeColor=none;fillColor=none;align=left;verticalAlign=top;spacingLeft=4;spacingRight=4;overflow=hidden;rotatable=0;points=[[0,0.5],[1,0.5]];portConstraint=eastwest;labelBackgroundColor=none;fontSize=14;" vertex="1" parent="yHoqbMhk2SUwJ_CR07r3-252">
          <mxGeometry y="78" width="322.74" height="132" as="geometry" />
        </mxCell>
        <mxCell id="yHoqbMhk2SUwJ_CR07r3-358" style="edgeStyle=orthogonalEdgeStyle;rounded=0;sketch=0;jumpStyle=gap;orthogonalLoop=1;jettySize=auto;html=1;exitX=0.5;exitY=0;exitDx=0;exitDy=0;entryX=0.5;entryY=1;entryDx=0;entryDy=0;entryPerimeter=0;fontSize=14;endArrow=none;endFill=0;endSize=20;strokeColor=#FFFFFF;strokeWidth=3;" edge="1" parent="WIyWlLk6GJQsqaUBKTNV-1" source="yHoqbMhk2SUwJ_CR07r3-258" target="yHoqbMhk2SUwJ_CR07r3-352">
          <mxGeometry relative="1" as="geometry" />
        </mxCell>
        <mxCell id="yHoqbMhk2SUwJ_CR07r3-258" value="(C) VisitService " style="swimlane;fontStyle=1;align=center;verticalAlign=top;childLayout=stackLayout;horizontal=1;startSize=26;horizontalStack=0;resizeParent=1;resizeParentMax=0;resizeLast=0;collapsible=1;marginBottom=0;labelBackgroundColor=none;fontSize=14;strokeColor=default;fillColor=default;" vertex="1" parent="WIyWlLk6GJQsqaUBKTNV-1">
          <mxGeometry x="2398.64" y="-1410" width="322.74" height="210" as="geometry" />
        </mxCell>
        <mxCell id="yHoqbMhk2SUwJ_CR07r3-259" value="" style="line;strokeWidth=1;rotatable=0;dashed=0;labelPosition=right;align=left;verticalAlign=middle;spacingTop=0;spacingLeft=6;points=[];portConstraint=eastwest;labelBackgroundColor=none;fontSize=14;fillColor=default;" vertex="1" parent="yHoqbMhk2SUwJ_CR07r3-258">
          <mxGeometry y="26" width="322.74" height="10" as="geometry" />
        </mxCell>
        <mxCell id="yHoqbMhk2SUwJ_CR07r3-260" value="- visitRepository: VisitRepository" style="text;strokeColor=none;fillColor=none;align=left;verticalAlign=top;spacingLeft=4;spacingRight=4;overflow=hidden;rotatable=0;points=[[0,0.5],[1,0.5]];portConstraint=eastwest;labelBackgroundColor=none;fontSize=14;" vertex="1" parent="yHoqbMhk2SUwJ_CR07r3-258">
          <mxGeometry y="36" width="322.74" height="34" as="geometry" />
        </mxCell>
        <mxCell id="yHoqbMhk2SUwJ_CR07r3-261" value="" style="line;strokeWidth=1;fillColor=none;align=left;verticalAlign=middle;spacingTop=-1;spacingLeft=3;spacingRight=3;rotatable=0;labelPosition=right;points=[];portConstraint=eastwest;labelBackgroundColor=none;fontSize=14;" vertex="1" parent="yHoqbMhk2SUwJ_CR07r3-258">
          <mxGeometry y="70" width="322.74" height="8" as="geometry" />
        </mxCell>
        <mxCell id="yHoqbMhk2SUwJ_CR07r3-262" value="- doesntExist(id: Long); String&#xa;+ getVisits(); List&lt;Visit&gt;&#xa;+ getVisit(id: Long); Visit&#xa;+ addVisit(visit: Visit); &#xa;@Transactional&#xa;+ setInactive(id: Long);&#xa;+ deleteVisit(id: Long);&#xa;&#xa;&#xa;" style="text;strokeColor=none;fillColor=none;align=left;verticalAlign=top;spacingLeft=4;spacingRight=4;overflow=hidden;rotatable=0;points=[[0,0.5],[1,0.5]];portConstraint=eastwest;labelBackgroundColor=none;fontSize=14;" vertex="1" parent="yHoqbMhk2SUwJ_CR07r3-258">
          <mxGeometry y="78" width="322.74" height="132" as="geometry" />
        </mxCell>
        <mxCell id="yHoqbMhk2SUwJ_CR07r3-359" style="edgeStyle=orthogonalEdgeStyle;rounded=0;sketch=0;jumpStyle=gap;orthogonalLoop=1;jettySize=auto;html=1;exitX=0.5;exitY=0;exitDx=0;exitDy=0;entryX=0.52;entryY=1;entryDx=0;entryDy=0;entryPerimeter=0;fontSize=14;endArrow=none;endFill=0;endSize=20;strokeColor=#FFFFFF;strokeWidth=3;" edge="1" parent="WIyWlLk6GJQsqaUBKTNV-1" source="yHoqbMhk2SUwJ_CR07r3-264" target="yHoqbMhk2SUwJ_CR07r3-357">
          <mxGeometry relative="1" as="geometry" />
        </mxCell>
        <mxCell id="yHoqbMhk2SUwJ_CR07r3-264" value="(C) TransferService " style="swimlane;fontStyle=1;align=center;verticalAlign=top;childLayout=stackLayout;horizontal=1;startSize=26;horizontalStack=0;resizeParent=1;resizeParentMax=0;resizeLast=0;collapsible=1;marginBottom=0;labelBackgroundColor=none;fontSize=14;strokeColor=default;fillColor=default;" vertex="1" parent="WIyWlLk6GJQsqaUBKTNV-1">
          <mxGeometry x="2788.63" y="-1410" width="491.37" height="270" as="geometry" />
        </mxCell>
        <mxCell id="yHoqbMhk2SUwJ_CR07r3-265" value="" style="line;strokeWidth=1;rotatable=0;dashed=0;labelPosition=right;align=left;verticalAlign=middle;spacingTop=0;spacingLeft=6;points=[];portConstraint=eastwest;labelBackgroundColor=none;fontSize=14;fillColor=default;" vertex="1" parent="yHoqbMhk2SUwJ_CR07r3-264">
          <mxGeometry y="26" width="491.37" height="10" as="geometry" />
        </mxCell>
        <mxCell id="yHoqbMhk2SUwJ_CR07r3-266" value="- transferRepository: TransferRepository&#xa;- clientService: ClientService" style="text;strokeColor=none;fillColor=none;align=left;verticalAlign=top;spacingLeft=4;spacingRight=4;overflow=hidden;rotatable=0;points=[[0,0.5],[1,0.5]];portConstraint=eastwest;labelBackgroundColor=none;fontSize=14;" vertex="1" parent="yHoqbMhk2SUwJ_CR07r3-264">
          <mxGeometry y="36" width="491.37" height="44" as="geometry" />
        </mxCell>
        <mxCell id="yHoqbMhk2SUwJ_CR07r3-267" value="" style="line;strokeWidth=1;fillColor=none;align=left;verticalAlign=middle;spacingTop=-1;spacingLeft=3;spacingRight=3;rotatable=0;labelPosition=right;points=[];portConstraint=eastwest;labelBackgroundColor=none;fontSize=14;" vertex="1" parent="yHoqbMhk2SUwJ_CR07r3-264">
          <mxGeometry y="80" width="491.37" height="8" as="geometry" />
        </mxCell>
        <mxCell id="yHoqbMhk2SUwJ_CR07r3-268" value="+ getTransfers(); List&lt;Transfer&gt;&#xa;+ getTransfers(client_Id: Long,body: FilterTransferFromClient); List&lt;Transfer&gt;&#xa;+ addTransfer(transfer: Transfer); &#xa;+ deleteTransfer(transferId: Long);&#xa;@Transactional&#xa;+ performTransfer(client: Client,clientLoan: Loan);&#xa;- updateBalance(client: Client,clientLoan: Loan);&#xa;@Transactional&#xa;+ performTransfer(transfer: Transfer);&#xa;- updateBalance(sender: Client,receiver: Client,transfer: Transfer);&#xa;&#xa;" style="text;strokeColor=none;fillColor=none;align=left;verticalAlign=top;spacingLeft=4;spacingRight=4;overflow=hidden;rotatable=0;points=[[0,0.5],[1,0.5]];portConstraint=eastwest;labelBackgroundColor=none;fontSize=14;" vertex="1" parent="yHoqbMhk2SUwJ_CR07r3-264">
          <mxGeometry y="88" width="491.37" height="182" as="geometry" />
        </mxCell>
        <mxCell id="yHoqbMhk2SUwJ_CR07r3-270" style="edgeStyle=orthogonalEdgeStyle;rounded=0;sketch=0;jumpStyle=gap;orthogonalLoop=1;jettySize=auto;html=1;exitX=1;exitY=0.5;exitDx=0;exitDy=0;entryX=0;entryY=0.5;entryDx=0;entryDy=0;fontSize=14;endArrow=none;endFill=0;endSize=20;strokeColor=#FFFFFF;strokeWidth=3;" edge="1" parent="WIyWlLk6GJQsqaUBKTNV-1" source="yHoqbMhk2SUwJ_CR07r3-248" target="yHoqbMhk2SUwJ_CR07r3-268">
          <mxGeometry relative="1" as="geometry">
            <Array as="points">
              <mxPoint x="2361" y="-1156" />
              <mxPoint x="2361" y="-1090" />
              <mxPoint x="2760" y="-1090" />
              <mxPoint x="2760" y="-1231" />
            </Array>
          </mxGeometry>
        </mxCell>
        <mxCell id="yHoqbMhk2SUwJ_CR07r3-271" style="edgeStyle=orthogonalEdgeStyle;rounded=0;sketch=0;jumpStyle=gap;orthogonalLoop=1;jettySize=auto;html=1;exitX=1;exitY=0.5;exitDx=0;exitDy=0;entryX=0;entryY=0.5;entryDx=0;entryDy=0;fontSize=14;endArrow=none;endFill=0;endSize=20;strokeColor=#FFFFFF;strokeWidth=3;" edge="1" parent="WIyWlLk6GJQsqaUBKTNV-1" source="yHoqbMhk2SUwJ_CR07r3-202" target="yHoqbMhk2SUwJ_CR07r3-268">
          <mxGeometry relative="1" as="geometry">
            <Array as="points">
              <mxPoint x="-600" y="-926" />
              <mxPoint x="-600" y="-760" />
              <mxPoint x="2770" y="-760" />
              <mxPoint x="2770" y="-1231" />
            </Array>
          </mxGeometry>
        </mxCell>
        <mxCell id="yHoqbMhk2SUwJ_CR07r3-272" value="(C) EmailService " style="swimlane;fontStyle=1;align=center;verticalAlign=top;childLayout=stackLayout;horizontal=1;startSize=26;horizontalStack=0;resizeParent=1;resizeParentMax=0;resizeLast=0;collapsible=1;marginBottom=0;labelBackgroundColor=none;fontSize=14;strokeColor=default;fillColor=default;" vertex="1" parent="WIyWlLk6GJQsqaUBKTNV-1">
          <mxGeometry x="-1330" y="-400" width="448.93" height="172" as="geometry" />
        </mxCell>
        <mxCell id="yHoqbMhk2SUwJ_CR07r3-273" value="" style="line;strokeWidth=1;rotatable=0;dashed=0;labelPosition=right;align=left;verticalAlign=middle;spacingTop=0;spacingLeft=6;points=[];portConstraint=eastwest;labelBackgroundColor=none;fontSize=14;fillColor=default;" vertex="1" parent="yHoqbMhk2SUwJ_CR07r3-272">
          <mxGeometry y="26" width="448.93" height="10" as="geometry" />
        </mxCell>
        <mxCell id="yHoqbMhk2SUwJ_CR07r3-274" value="- LOGGER: LOGGER" style="text;strokeColor=none;fillColor=none;align=left;verticalAlign=top;spacingLeft=4;spacingRight=4;overflow=hidden;rotatable=0;points=[[0,0.5],[1,0.5]];portConstraint=eastwest;labelBackgroundColor=none;fontSize=14;fontStyle=4" vertex="1" parent="yHoqbMhk2SUwJ_CR07r3-272">
          <mxGeometry y="36" width="448.93" height="34" as="geometry" />
        </mxCell>
        <mxCell id="yHoqbMhk2SUwJ_CR07r3-275" value="" style="line;strokeWidth=1;fillColor=none;align=left;verticalAlign=middle;spacingTop=-1;spacingLeft=3;spacingRight=3;rotatable=0;labelPosition=right;points=[];portConstraint=eastwest;labelBackgroundColor=none;fontSize=14;" vertex="1" parent="yHoqbMhk2SUwJ_CR07r3-272">
          <mxGeometry y="70" width="448.93" height="8" as="geometry" />
        </mxCell>
        <mxCell id="yHoqbMhk2SUwJ_CR07r3-277" value="- mailSender: JavaMailSender&#xa;&#xa;" style="text;strokeColor=none;fillColor=none;align=left;verticalAlign=top;spacingLeft=4;spacingRight=4;overflow=hidden;rotatable=0;points=[[0,0.5],[1,0.5]];portConstraint=eastwest;labelBackgroundColor=none;fontSize=14;" vertex="1" parent="yHoqbMhk2SUwJ_CR07r3-272">
          <mxGeometry y="78" width="448.93" height="32" as="geometry" />
        </mxCell>
        <mxCell id="yHoqbMhk2SUwJ_CR07r3-279" value="" style="line;strokeWidth=1;rotatable=0;dashed=0;labelPosition=right;align=left;verticalAlign=middle;spacingTop=0;spacingLeft=6;points=[];portConstraint=eastwest;labelBackgroundColor=none;fontSize=14;fillColor=default;" vertex="1" parent="yHoqbMhk2SUwJ_CR07r3-272">
          <mxGeometry y="110" width="448.93" height="10" as="geometry" />
        </mxCell>
        <mxCell id="yHoqbMhk2SUwJ_CR07r3-276" value="@Async&#xa;+ send(to :String, email: String, subject: String);&#xa;&#xa;" style="text;strokeColor=none;fillColor=none;align=left;verticalAlign=top;spacingLeft=4;spacingRight=4;overflow=hidden;rotatable=0;points=[[0,0.5],[1,0.5]];portConstraint=eastwest;labelBackgroundColor=none;fontSize=14;" vertex="1" parent="yHoqbMhk2SUwJ_CR07r3-272">
          <mxGeometry y="120" width="448.93" height="52" as="geometry" />
        </mxCell>
        <mxCell id="yHoqbMhk2SUwJ_CR07r3-280" value="(C) EmailTemplates " style="swimlane;fontStyle=1;align=center;verticalAlign=top;childLayout=stackLayout;horizontal=1;startSize=26;horizontalStack=0;resizeParent=1;resizeParentMax=0;resizeLast=0;collapsible=1;marginBottom=0;labelBackgroundColor=none;fontSize=14;strokeColor=default;fillColor=default;" vertex="1" parent="WIyWlLk6GJQsqaUBKTNV-1">
          <mxGeometry x="-810" y="-400" width="510" height="110" as="geometry" />
        </mxCell>
        <mxCell id="yHoqbMhk2SUwJ_CR07r3-281" value="" style="line;strokeWidth=1;rotatable=0;dashed=0;labelPosition=right;align=left;verticalAlign=middle;spacingTop=0;spacingLeft=6;points=[];portConstraint=eastwest;labelBackgroundColor=none;fontSize=14;fillColor=default;" vertex="1" parent="yHoqbMhk2SUwJ_CR07r3-280">
          <mxGeometry y="26" width="510" height="10" as="geometry" />
        </mxCell>
        <mxCell id="yHoqbMhk2SUwJ_CR07r3-283" value="" style="line;strokeWidth=1;fillColor=none;align=left;verticalAlign=middle;spacingTop=-1;spacingLeft=3;spacingRight=3;rotatable=0;labelPosition=right;points=[];portConstraint=eastwest;labelBackgroundColor=none;fontSize=14;" vertex="1" parent="yHoqbMhk2SUwJ_CR07r3-280">
          <mxGeometry y="36" width="510" height="8" as="geometry" />
        </mxCell>
        <mxCell id="yHoqbMhk2SUwJ_CR07r3-284" value="+ emaitTemplateInsufficientBalanceForTransfer(sender: Client, transferId: Long); String&#xa;+ emailTemplateForPasswordReset(login: String, password: String); String&#xa;+ emailTemplateForLoginReminder(login: String); String" style="text;strokeColor=none;fillColor=none;align=left;verticalAlign=top;spacingLeft=4;spacingRight=4;overflow=hidden;rotatable=0;points=[[0,0.5],[1,0.5]];portConstraint=eastwest;labelBackgroundColor=none;fontSize=14;" vertex="1" parent="yHoqbMhk2SUwJ_CR07r3-280">
          <mxGeometry y="44" width="510" height="66" as="geometry" />
        </mxCell>
        <mxCell id="yHoqbMhk2SUwJ_CR07r3-292" value="&lt;font style=&quot;font-size: 30px&quot;&gt;All controllers annotated with&amp;nbsp;&lt;br&gt;@RestController @AllArgsConstructor @RequestMapping&lt;/font&gt;" style="shape=note;size=20;whiteSpace=wrap;html=1;" vertex="1" parent="WIyWlLk6GJQsqaUBKTNV-1">
          <mxGeometry x="3240" y="-3010" width="659" height="140" as="geometry" />
        </mxCell>
        <mxCell id="yHoqbMhk2SUwJ_CR07r3-293" value="&lt;p style=&quot;line-height: 1.2 ; font-size: 60px&quot;&gt;Controllers&lt;/p&gt;" style="text;html=1;align=center;verticalAlign=middle;whiteSpace=wrap;rounded=0;" vertex="1" parent="WIyWlLk6GJQsqaUBKTNV-1">
          <mxGeometry x="3309" y="-2860" width="539" height="140" as="geometry" />
        </mxCell>
        <mxCell id="yHoqbMhk2SUwJ_CR07r3-294" value="(C) AnnouncementController " style="swimlane;fontStyle=1;align=center;verticalAlign=top;childLayout=stackLayout;horizontal=1;startSize=26;horizontalStack=0;resizeParent=1;resizeParentMax=0;resizeLast=0;collapsible=1;marginBottom=0;labelBackgroundColor=none;fontSize=14;strokeColor=default;fillColor=default;" vertex="1" parent="WIyWlLk6GJQsqaUBKTNV-1">
          <mxGeometry x="-500" y="-2590" width="640" height="220" as="geometry" />
        </mxCell>
        <mxCell id="yHoqbMhk2SUwJ_CR07r3-295" value="" style="line;strokeWidth=1;rotatable=0;dashed=0;labelPosition=right;align=left;verticalAlign=middle;spacingTop=0;spacingLeft=6;points=[];portConstraint=eastwest;labelBackgroundColor=none;fontSize=14;fillColor=default;" vertex="1" parent="yHoqbMhk2SUwJ_CR07r3-294">
          <mxGeometry y="26" width="640" height="10" as="geometry" />
        </mxCell>
        <mxCell id="yHoqbMhk2SUwJ_CR07r3-296" value="- announcementService: AnnouncementService&#xa;&#xa;" style="text;strokeColor=none;fillColor=none;align=left;verticalAlign=top;spacingLeft=4;spacingRight=4;overflow=hidden;rotatable=0;points=[[0,0.5],[1,0.5]];portConstraint=eastwest;labelBackgroundColor=none;fontSize=14;" vertex="1" parent="yHoqbMhk2SUwJ_CR07r3-294">
          <mxGeometry y="36" width="640" height="24" as="geometry" />
        </mxCell>
        <mxCell id="yHoqbMhk2SUwJ_CR07r3-297" value="" style="line;strokeWidth=1;fillColor=none;align=left;verticalAlign=middle;spacingTop=-1;spacingLeft=3;spacingRight=3;rotatable=0;labelPosition=right;points=[];portConstraint=eastwest;labelBackgroundColor=none;fontSize=14;" vertex="1" parent="yHoqbMhk2SUwJ_CR07r3-294">
          <mxGeometry y="60" width="640" height="8" as="geometry" />
        </mxCell>
        <mxCell id="yHoqbMhk2SUwJ_CR07r3-298" value="@GetMapping(path = &quot;/{id}&quot;)&#xa;+ getAnnouncement(@PathVariable(&quot;id&quot;) id: Long); Announcement&#xa;@PostMapping()&#xa;+ addAnnouncement(@RequestBody announcement:Announcement);&#xa;@PutMapping(path = &quot;/{id}&quot;)&#xa;+ updateAnnouncement(@PathVariable(&quot;id&quot;) id:Long,@RequestBody announcement:Announcement);&#xa;@DeleteMapping(path = &quot;/{id}&quot;)&#xa;+ deleteAnnouncement(@PathVariable(&quot;id&quot;) id: Long);&#xa;" style="text;strokeColor=none;fillColor=none;align=left;verticalAlign=top;spacingLeft=4;spacingRight=4;overflow=hidden;rotatable=0;points=[[0,0.5],[1,0.5]];portConstraint=eastwest;labelBackgroundColor=none;fontSize=14;" vertex="1" parent="yHoqbMhk2SUwJ_CR07r3-294">
          <mxGeometry y="68" width="640" height="152" as="geometry" />
        </mxCell>
        <mxCell id="yHoqbMhk2SUwJ_CR07r3-300" value="(C) AppUserController " style="swimlane;fontStyle=1;align=center;verticalAlign=top;childLayout=stackLayout;horizontal=1;startSize=26;horizontalStack=0;resizeParent=1;resizeParentMax=0;resizeLast=0;collapsible=1;marginBottom=0;labelBackgroundColor=none;fontSize=14;strokeColor=default;fillColor=default;" vertex="1" parent="WIyWlLk6GJQsqaUBKTNV-1">
          <mxGeometry x="145" y="-2850" width="640" height="220" as="geometry" />
        </mxCell>
        <mxCell id="yHoqbMhk2SUwJ_CR07r3-301" value="" style="line;strokeWidth=1;rotatable=0;dashed=0;labelPosition=right;align=left;verticalAlign=middle;spacingTop=0;spacingLeft=6;points=[];portConstraint=eastwest;labelBackgroundColor=none;fontSize=14;fillColor=default;" vertex="1" parent="yHoqbMhk2SUwJ_CR07r3-300">
          <mxGeometry y="26" width="640" height="10" as="geometry" />
        </mxCell>
        <mxCell id="yHoqbMhk2SUwJ_CR07r3-302" value="- appUserService: AppUserService&#xa;&#xa;" style="text;strokeColor=none;fillColor=none;align=left;verticalAlign=top;spacingLeft=4;spacingRight=4;overflow=hidden;rotatable=0;points=[[0,0.5],[1,0.5]];portConstraint=eastwest;labelBackgroundColor=none;fontSize=14;" vertex="1" parent="yHoqbMhk2SUwJ_CR07r3-300">
          <mxGeometry y="36" width="640" height="24" as="geometry" />
        </mxCell>
        <mxCell id="yHoqbMhk2SUwJ_CR07r3-303" value="" style="line;strokeWidth=1;fillColor=none;align=left;verticalAlign=middle;spacingTop=-1;spacingLeft=3;spacingRight=3;rotatable=0;labelPosition=right;points=[];portConstraint=eastwest;labelBackgroundColor=none;fontSize=14;" vertex="1" parent="yHoqbMhk2SUwJ_CR07r3-300">
          <mxGeometry y="60" width="640" height="8" as="geometry" />
        </mxCell>
        <mxCell id="yHoqbMhk2SUwJ_CR07r3-304" value="@GetMapping(path = &quot;/{id}&quot;)&#xa;+ getUser(@PathVariable(&quot;id&quot;) id: Long); AppUser&#xa;@PatchMapping(path = &quot;/{type}&quot;)&#xa;+ forgotCredentials(@RequestBody email:String,@PathVariable(&quot;type&quot;) type:String);&#xa;@PostMapping()&#xa;+ addUser(@RequestBody userCredentials: UserCredentials);&#xa;@DeleteMapping(path = &quot;/{id}&quot;)&#xa;+ deleteUser(@PathVariable(&quot;id&quot;) id: Long);&#xa;" style="text;strokeColor=none;fillColor=none;align=left;verticalAlign=top;spacingLeft=4;spacingRight=4;overflow=hidden;rotatable=0;points=[[0,0.5],[1,0.5]];portConstraint=eastwest;labelBackgroundColor=none;fontSize=14;" vertex="1" parent="yHoqbMhk2SUwJ_CR07r3-300">
          <mxGeometry y="68" width="640" height="152" as="geometry" />
        </mxCell>
        <mxCell id="yHoqbMhk2SUwJ_CR07r3-306" value="(C) ClientController " style="swimlane;fontStyle=1;align=center;verticalAlign=top;childLayout=stackLayout;horizontal=1;startSize=26;horizontalStack=0;resizeParent=1;resizeParentMax=0;resizeLast=0;collapsible=1;marginBottom=0;labelBackgroundColor=none;fontSize=14;strokeColor=default;fillColor=default;" vertex="1" parent="WIyWlLk6GJQsqaUBKTNV-1">
          <mxGeometry x="-1125" y="-2880" width="640" height="270" as="geometry" />
        </mxCell>
        <mxCell id="yHoqbMhk2SUwJ_CR07r3-307" value="" style="line;strokeWidth=1;rotatable=0;dashed=0;labelPosition=right;align=left;verticalAlign=middle;spacingTop=0;spacingLeft=6;points=[];portConstraint=eastwest;labelBackgroundColor=none;fontSize=14;fillColor=default;" vertex="1" parent="yHoqbMhk2SUwJ_CR07r3-306">
          <mxGeometry y="26" width="640" height="10" as="geometry" />
        </mxCell>
        <mxCell id="yHoqbMhk2SUwJ_CR07r3-308" value="- clientService: ClientService&#xa;&#xa;" style="text;strokeColor=none;fillColor=none;align=left;verticalAlign=top;spacingLeft=4;spacingRight=4;overflow=hidden;rotatable=0;points=[[0,0.5],[1,0.5]];portConstraint=eastwest;labelBackgroundColor=none;fontSize=14;" vertex="1" parent="yHoqbMhk2SUwJ_CR07r3-306">
          <mxGeometry y="36" width="640" height="24" as="geometry" />
        </mxCell>
        <mxCell id="yHoqbMhk2SUwJ_CR07r3-309" value="" style="line;strokeWidth=1;fillColor=none;align=left;verticalAlign=middle;spacingTop=-1;spacingLeft=3;spacingRight=3;rotatable=0;labelPosition=right;points=[];portConstraint=eastwest;labelBackgroundColor=none;fontSize=14;" vertex="1" parent="yHoqbMhk2SUwJ_CR07r3-306">
          <mxGeometry y="60" width="640" height="8" as="geometry" />
        </mxCell>
        <mxCell id="yHoqbMhk2SUwJ_CR07r3-310" value="@GetMapping(path = &quot;/filtered&quot;)&#xa;+ getClientsSorted(@RequestBody body:NameAndPersonalNumBody); List&lt;Client&gt;&#xa;@GetMapping(path = &quot;/{id}&quot;)&#xa;+ getClient(@PathVariable(&quot;id&quot;) id: Long); Client&#xa;@PostMapping()&#xa;+ addClient(@RequestBody body: ClientUserBody);&#xa;@PutMapping(path = &quot;/{id}&quot;)&#xa;+ updateClient(@PathVariable(&quot;id&quot;) id:Long,@RequestBody body: ClientUserBody);&#xa;@DeleteMapping(path = &quot;/{id}&quot;)&#xa;+ deleteClient(@PathVariable(&quot;id&quot;) id: Long);&#xa;" style="text;strokeColor=none;fillColor=none;align=left;verticalAlign=top;spacingLeft=4;spacingRight=4;overflow=hidden;rotatable=0;points=[[0,0.5],[1,0.5]];portConstraint=eastwest;labelBackgroundColor=none;fontSize=14;" vertex="1" parent="yHoqbMhk2SUwJ_CR07r3-306">
          <mxGeometry y="68" width="640" height="202" as="geometry" />
        </mxCell>
        <mxCell id="yHoqbMhk2SUwJ_CR07r3-312" value="(C) CreditCardController " style="swimlane;fontStyle=1;align=center;verticalAlign=top;childLayout=stackLayout;horizontal=1;startSize=26;horizontalStack=0;resizeParent=1;resizeParentMax=0;resizeLast=0;collapsible=1;marginBottom=0;labelBackgroundColor=none;fontSize=14;strokeColor=default;fillColor=default;" vertex="1" parent="WIyWlLk6GJQsqaUBKTNV-1">
          <mxGeometry x="-1600" y="-2590" width="640" height="260" as="geometry" />
        </mxCell>
        <mxCell id="yHoqbMhk2SUwJ_CR07r3-313" value="" style="line;strokeWidth=1;rotatable=0;dashed=0;labelPosition=right;align=left;verticalAlign=middle;spacingTop=0;spacingLeft=6;points=[];portConstraint=eastwest;labelBackgroundColor=none;fontSize=14;fillColor=default;" vertex="1" parent="yHoqbMhk2SUwJ_CR07r3-312">
          <mxGeometry y="26" width="640" height="10" as="geometry" />
        </mxCell>
        <mxCell id="yHoqbMhk2SUwJ_CR07r3-314" value="- creditCardService: CreditCardService&#xa;&#xa;" style="text;strokeColor=none;fillColor=none;align=left;verticalAlign=top;spacingLeft=4;spacingRight=4;overflow=hidden;rotatable=0;points=[[0,0.5],[1,0.5]];portConstraint=eastwest;labelBackgroundColor=none;fontSize=14;" vertex="1" parent="yHoqbMhk2SUwJ_CR07r3-312">
          <mxGeometry y="36" width="640" height="24" as="geometry" />
        </mxCell>
        <mxCell id="yHoqbMhk2SUwJ_CR07r3-315" value="" style="line;strokeWidth=1;fillColor=none;align=left;verticalAlign=middle;spacingTop=-1;spacingLeft=3;spacingRight=3;rotatable=0;labelPosition=right;points=[];portConstraint=eastwest;labelBackgroundColor=none;fontSize=14;" vertex="1" parent="yHoqbMhk2SUwJ_CR07r3-312">
          <mxGeometry y="60" width="640" height="8" as="geometry" />
        </mxCell>
        <mxCell id="yHoqbMhk2SUwJ_CR07r3-316" value="@GetMapping(path = &quot;/{client/clientId}&quot;)&#xa;+ getClientCreditCards(@PathVariable(&quot;clientId&quot;) clientId: Long); List&lt;CreditCard&gt;&#xa;@GetMapping(path = &quot;/{id}&quot;)&#xa;+ getCreditCard(@PathVariable(&quot;id&quot;) cardId: Long); CreditCard&#xa;@PostMapping(path = &quot;/{clientId}&quot;)&#xa;+ addCreditCard(@PathVariable(&quot;clientId&quot;) clientId: Long,@RequestBody creditCard: CreditCard);&#xa;@PutMapping(path = &quot;/{id}/active&quot;)&#xa;+ switchActiveStateOfCreditCard(@PathVariable(&quot;id&quot;) cardId:Long);&#xa;@DeleteMapping(path = &quot;/{id}&quot;)&#xa;+ deleteCreditCard(@PathVariable(&quot;id&quot;) cardId: Long);&#xa;" style="text;strokeColor=none;fillColor=none;align=left;verticalAlign=top;spacingLeft=4;spacingRight=4;overflow=hidden;rotatable=0;points=[[0,0.5],[1,0.5]];portConstraint=eastwest;labelBackgroundColor=none;fontSize=14;" vertex="1" parent="yHoqbMhk2SUwJ_CR07r3-312">
          <mxGeometry y="68" width="640" height="192" as="geometry" />
        </mxCell>
        <mxCell id="yHoqbMhk2SUwJ_CR07r3-318" value="(C) CyclicalTransferController " style="swimlane;fontStyle=1;align=center;verticalAlign=top;childLayout=stackLayout;horizontal=1;startSize=26;horizontalStack=0;resizeParent=1;resizeParentMax=0;resizeLast=0;collapsible=1;marginBottom=0;labelBackgroundColor=none;fontSize=14;strokeColor=default;fillColor=default;" vertex="1" parent="WIyWlLk6GJQsqaUBKTNV-1">
          <mxGeometry x="-2180" y="-2880" width="710" height="260" as="geometry" />
        </mxCell>
        <mxCell id="yHoqbMhk2SUwJ_CR07r3-319" value="" style="line;strokeWidth=1;rotatable=0;dashed=0;labelPosition=right;align=left;verticalAlign=middle;spacingTop=0;spacingLeft=6;points=[];portConstraint=eastwest;labelBackgroundColor=none;fontSize=14;fillColor=default;" vertex="1" parent="yHoqbMhk2SUwJ_CR07r3-318">
          <mxGeometry y="26" width="710" height="10" as="geometry" />
        </mxCell>
        <mxCell id="yHoqbMhk2SUwJ_CR07r3-320" value="- cyclicalTransferService: CyclicalTransferService&#xa;&#xa;" style="text;strokeColor=none;fillColor=none;align=left;verticalAlign=top;spacingLeft=4;spacingRight=4;overflow=hidden;rotatable=0;points=[[0,0.5],[1,0.5]];portConstraint=eastwest;labelBackgroundColor=none;fontSize=14;" vertex="1" parent="yHoqbMhk2SUwJ_CR07r3-318">
          <mxGeometry y="36" width="710" height="24" as="geometry" />
        </mxCell>
        <mxCell id="yHoqbMhk2SUwJ_CR07r3-321" value="" style="line;strokeWidth=1;fillColor=none;align=left;verticalAlign=middle;spacingTop=-1;spacingLeft=3;spacingRight=3;rotatable=0;labelPosition=right;points=[];portConstraint=eastwest;labelBackgroundColor=none;fontSize=14;" vertex="1" parent="yHoqbMhk2SUwJ_CR07r3-318">
          <mxGeometry y="60" width="710" height="8" as="geometry" />
        </mxCell>
        <mxCell id="yHoqbMhk2SUwJ_CR07r3-322" value="@GetMapping(path = &quot;/{transferId}&quot;)&#xa;+ getTransfer(@PathVariable(&quot;transferId&quot;) transferId: Long); CyclicalTransfer&#xa;@GetMapping(path = &quot;/{client/clientId}&quot;)&#xa;+ getClientTransfers(@PathVariable(&quot;clientId&quot;) clientId: Long); List&lt;CyclicalTransfer&gt;&#xa;@PostMapping()&#xa;+ addTransfer(@RequestBody cyclicalTransfer: CyclicalTransfer);&#xa;@PutMapping(path = &quot;/{transferId}&quot;)&#xa;+ updateTransfer(@PathVariable(&quot;transferId&quot;) transferId:Long,@RequestBody cyclicalTransfer: CyclicalTransfer);&#xa;@DeleteMapping(path = &quot;/{transferId}&quot;)&#xa;+ deleteTransfer(@PathVariable(&quot;transferId&quot;) transferId: Long);&#xa;" style="text;strokeColor=none;fillColor=none;align=left;verticalAlign=top;spacingLeft=4;spacingRight=4;overflow=hidden;rotatable=0;points=[[0,0.5],[1,0.5]];portConstraint=eastwest;labelBackgroundColor=none;fontSize=14;" vertex="1" parent="yHoqbMhk2SUwJ_CR07r3-318">
          <mxGeometry y="68" width="710" height="192" as="geometry" />
        </mxCell>
        <mxCell id="yHoqbMhk2SUwJ_CR07r3-324" value="(C) EmployeeController " style="swimlane;fontStyle=1;align=center;verticalAlign=top;childLayout=stackLayout;horizontal=1;startSize=26;horizontalStack=0;resizeParent=1;resizeParentMax=0;resizeLast=0;collapsible=1;marginBottom=0;labelBackgroundColor=none;fontSize=14;strokeColor=default;fillColor=default;" vertex="1" parent="WIyWlLk6GJQsqaUBKTNV-1">
          <mxGeometry x="-2640" y="-2600" width="640" height="270" as="geometry" />
        </mxCell>
        <mxCell id="yHoqbMhk2SUwJ_CR07r3-325" value="" style="line;strokeWidth=1;rotatable=0;dashed=0;labelPosition=right;align=left;verticalAlign=middle;spacingTop=0;spacingLeft=6;points=[];portConstraint=eastwest;labelBackgroundColor=none;fontSize=14;fillColor=default;" vertex="1" parent="yHoqbMhk2SUwJ_CR07r3-324">
          <mxGeometry y="26" width="640" height="10" as="geometry" />
        </mxCell>
        <mxCell id="yHoqbMhk2SUwJ_CR07r3-326" value="- employeeService: EmployeeService&#xa;&#xa;" style="text;strokeColor=none;fillColor=none;align=left;verticalAlign=top;spacingLeft=4;spacingRight=4;overflow=hidden;rotatable=0;points=[[0,0.5],[1,0.5]];portConstraint=eastwest;labelBackgroundColor=none;fontSize=14;" vertex="1" parent="yHoqbMhk2SUwJ_CR07r3-324">
          <mxGeometry y="36" width="640" height="24" as="geometry" />
        </mxCell>
        <mxCell id="yHoqbMhk2SUwJ_CR07r3-327" value="" style="line;strokeWidth=1;fillColor=none;align=left;verticalAlign=middle;spacingTop=-1;spacingLeft=3;spacingRight=3;rotatable=0;labelPosition=right;points=[];portConstraint=eastwest;labelBackgroundColor=none;fontSize=14;" vertex="1" parent="yHoqbMhk2SUwJ_CR07r3-324">
          <mxGeometry y="60" width="640" height="8" as="geometry" />
        </mxCell>
        <mxCell id="yHoqbMhk2SUwJ_CR07r3-328" value="@GetMapping(path = &quot;/filtered&quot;)&#xa;+ getEmployeesSorted(@RequestBody body:NameAndPersonalNumBody); List&lt;Employee&gt;&#xa;@GetMapping(path = &quot;/{id}&quot;)&#xa;+ getEmployee(@PathVariable(&quot;id&quot;) id: Long); Employee&#xa;@PostMapping()&#xa;+ addNewEmployee(@RequestBody body: EmployeeUserBody);&#xa;@PutMapping(path = &quot;/{id}&quot;)&#xa;+ updateEmployee(@PathVariable(&quot;id&quot;) id:Long,@RequestBody body: EmployeeUserBody);&#xa;@DeleteMapping(path = &quot;/{id}&quot;)&#xa;+ deleteEmployee(@PathVariable(&quot;id&quot;) id: Long);&#xa;" style="text;strokeColor=none;fillColor=none;align=left;verticalAlign=top;spacingLeft=4;spacingRight=4;overflow=hidden;rotatable=0;points=[[0,0.5],[1,0.5]];portConstraint=eastwest;labelBackgroundColor=none;fontSize=14;" vertex="1" parent="yHoqbMhk2SUwJ_CR07r3-324">
          <mxGeometry y="68" width="640" height="202" as="geometry" />
        </mxCell>
        <mxCell id="yHoqbMhk2SUwJ_CR07r3-330" value="(C) LoanRateController " style="swimlane;fontStyle=1;align=center;verticalAlign=top;childLayout=stackLayout;horizontal=1;startSize=26;horizontalStack=0;resizeParent=1;resizeParentMax=0;resizeLast=0;collapsible=1;marginBottom=0;labelBackgroundColor=none;fontSize=14;strokeColor=default;fillColor=default;" vertex="1" parent="WIyWlLk6GJQsqaUBKTNV-1">
          <mxGeometry x="720" y="-2480" width="640" height="130" as="geometry" />
        </mxCell>
        <mxCell id="yHoqbMhk2SUwJ_CR07r3-331" value="" style="line;strokeWidth=1;rotatable=0;dashed=0;labelPosition=right;align=left;verticalAlign=middle;spacingTop=0;spacingLeft=6;points=[];portConstraint=eastwest;labelBackgroundColor=none;fontSize=14;fillColor=default;" vertex="1" parent="yHoqbMhk2SUwJ_CR07r3-330">
          <mxGeometry y="26" width="640" height="10" as="geometry" />
        </mxCell>
        <mxCell id="yHoqbMhk2SUwJ_CR07r3-332" value="- loanRateService: LoanRateService&#xa;&#xa;" style="text;strokeColor=none;fillColor=none;align=left;verticalAlign=top;spacingLeft=4;spacingRight=4;overflow=hidden;rotatable=0;points=[[0,0.5],[1,0.5]];portConstraint=eastwest;labelBackgroundColor=none;fontSize=14;" vertex="1" parent="yHoqbMhk2SUwJ_CR07r3-330">
          <mxGeometry y="36" width="640" height="24" as="geometry" />
        </mxCell>
        <mxCell id="yHoqbMhk2SUwJ_CR07r3-333" value="" style="line;strokeWidth=1;fillColor=none;align=left;verticalAlign=middle;spacingTop=-1;spacingLeft=3;spacingRight=3;rotatable=0;labelPosition=right;points=[];portConstraint=eastwest;labelBackgroundColor=none;fontSize=14;" vertex="1" parent="yHoqbMhk2SUwJ_CR07r3-330">
          <mxGeometry y="60" width="640" height="8" as="geometry" />
        </mxCell>
        <mxCell id="yHoqbMhk2SUwJ_CR07r3-334" value="@GetMapping(path = &quot;/loan/{loanId}&quot;)&#xa;+ getLoanRates(@PathVariable(&quot;loanId&quot;)loanId: Long); List&lt;LoanRate&gt;&#xa;&#xa;" style="text;strokeColor=none;fillColor=none;align=left;verticalAlign=top;spacingLeft=4;spacingRight=4;overflow=hidden;rotatable=0;points=[[0,0.5],[1,0.5]];portConstraint=eastwest;labelBackgroundColor=none;fontSize=14;" vertex="1" parent="yHoqbMhk2SUwJ_CR07r3-330">
          <mxGeometry y="68" width="640" height="62" as="geometry" />
        </mxCell>
        <mxCell id="yHoqbMhk2SUwJ_CR07r3-336" value="(C) LoanController " style="swimlane;fontStyle=1;align=center;verticalAlign=top;childLayout=stackLayout;horizontal=1;startSize=26;horizontalStack=0;resizeParent=1;resizeParentMax=0;resizeLast=0;collapsible=1;marginBottom=0;labelBackgroundColor=none;fontSize=14;strokeColor=default;fillColor=default;" vertex="1" parent="WIyWlLk6GJQsqaUBKTNV-1">
          <mxGeometry x="1308.94" y="-2850" width="640" height="260" as="geometry" />
        </mxCell>
        <mxCell id="yHoqbMhk2SUwJ_CR07r3-337" value="" style="line;strokeWidth=1;rotatable=0;dashed=0;labelPosition=right;align=left;verticalAlign=middle;spacingTop=0;spacingLeft=6;points=[];portConstraint=eastwest;labelBackgroundColor=none;fontSize=14;fillColor=default;" vertex="1" parent="yHoqbMhk2SUwJ_CR07r3-336">
          <mxGeometry y="26" width="640" height="10" as="geometry" />
        </mxCell>
        <mxCell id="yHoqbMhk2SUwJ_CR07r3-338" value="- loanService: LoanService&#xa;&#xa;" style="text;strokeColor=none;fillColor=none;align=left;verticalAlign=top;spacingLeft=4;spacingRight=4;overflow=hidden;rotatable=0;points=[[0,0.5],[1,0.5]];portConstraint=eastwest;labelBackgroundColor=none;fontSize=14;" vertex="1" parent="yHoqbMhk2SUwJ_CR07r3-336">
          <mxGeometry y="36" width="640" height="24" as="geometry" />
        </mxCell>
        <mxCell id="yHoqbMhk2SUwJ_CR07r3-339" value="" style="line;strokeWidth=1;fillColor=none;align=left;verticalAlign=middle;spacingTop=-1;spacingLeft=3;spacingRight=3;rotatable=0;labelPosition=right;points=[];portConstraint=eastwest;labelBackgroundColor=none;fontSize=14;" vertex="1" parent="yHoqbMhk2SUwJ_CR07r3-336">
          <mxGeometry y="60" width="640" height="8" as="geometry" />
        </mxCell>
        <mxCell id="yHoqbMhk2SUwJ_CR07r3-340" value="@GetMapping(path = &quot;/{loanId}&quot;)&#xa;+ getLoan(@PathVariable(&quot;loanId&quot;) loanId: Long); Loan&#xa;@PostMapping()&#xa;+ addLoan(@RequestBody body: Loan);&#xa;@PatchMapping(path = &quot;/{loanId}&quot;)&#xa;+ setInactive(@PathVariable(&quot;loanId&quot;) loanId: Long);&#xa;@DeleteMapping(path = &quot;/{loanId}&quot;)&#xa;+ deleteUser(@PathVariable(&quot;loanId&quot;) loanId: Long);&#xa;@PatchMapping(path = &quot;/pay-rate/{clientId}&quot;)&#xa;+ payLoanRate(@PathVariable(&quot;clientId&quot;)clientId: Long);&#xa;" style="text;strokeColor=none;fillColor=none;align=left;verticalAlign=top;spacingLeft=4;spacingRight=4;overflow=hidden;rotatable=0;points=[[0,0.5],[1,0.5]];portConstraint=eastwest;labelBackgroundColor=none;fontSize=14;" vertex="1" parent="yHoqbMhk2SUwJ_CR07r3-336">
          <mxGeometry y="68" width="640" height="192" as="geometry" />
        </mxCell>
        <mxCell id="yHoqbMhk2SUwJ_CR07r3-342" value="(C) OrderController " style="swimlane;fontStyle=1;align=center;verticalAlign=top;childLayout=stackLayout;horizontal=1;startSize=26;horizontalStack=0;resizeParent=1;resizeParentMax=0;resizeLast=0;collapsible=1;marginBottom=0;labelBackgroundColor=none;fontSize=14;strokeColor=default;fillColor=default;" vertex="1" parent="WIyWlLk6GJQsqaUBKTNV-1">
          <mxGeometry x="1850" y="-2550" width="640" height="220" as="geometry" />
        </mxCell>
        <mxCell id="yHoqbMhk2SUwJ_CR07r3-343" value="" style="line;strokeWidth=1;rotatable=0;dashed=0;labelPosition=right;align=left;verticalAlign=middle;spacingTop=0;spacingLeft=6;points=[];portConstraint=eastwest;labelBackgroundColor=none;fontSize=14;fillColor=default;" vertex="1" parent="yHoqbMhk2SUwJ_CR07r3-342">
          <mxGeometry y="26" width="640" height="10" as="geometry" />
        </mxCell>
        <mxCell id="yHoqbMhk2SUwJ_CR07r3-344" value="- orderService: OrderService&#xa;&#xa;" style="text;strokeColor=none;fillColor=none;align=left;verticalAlign=top;spacingLeft=4;spacingRight=4;overflow=hidden;rotatable=0;points=[[0,0.5],[1,0.5]];portConstraint=eastwest;labelBackgroundColor=none;fontSize=14;" vertex="1" parent="yHoqbMhk2SUwJ_CR07r3-342">
          <mxGeometry y="36" width="640" height="24" as="geometry" />
        </mxCell>
        <mxCell id="yHoqbMhk2SUwJ_CR07r3-345" value="" style="line;strokeWidth=1;fillColor=none;align=left;verticalAlign=middle;spacingTop=-1;spacingLeft=3;spacingRight=3;rotatable=0;labelPosition=right;points=[];portConstraint=eastwest;labelBackgroundColor=none;fontSize=14;" vertex="1" parent="yHoqbMhk2SUwJ_CR07r3-342">
          <mxGeometry y="60" width="640" height="8" as="geometry" />
        </mxCell>
        <mxCell id="yHoqbMhk2SUwJ_CR07r3-346" value="@GetMapping(path = &quot;/{orderId}&quot;)&#xa;+ getOrder(@PathVariable(&quot;orderId&quot;) orderId: Long); Order&#xa;@PostMapping()&#xa;+ addOrder(@RequestBody order: Order);&#xa;@PutMapping(path = &quot;/{orderId}&quot;)&#xa;+ finishOrder(@PathVariable(&quot;orderId&quot;)orderId:Long);&#xa;@DeleteMapping(path = &quot;/{orderId}&quot;)&#xa;+ deleteOrder(@PathVariable(&quot;orderId&quot;) orderId: Long);&#xa;" style="text;strokeColor=none;fillColor=none;align=left;verticalAlign=top;spacingLeft=4;spacingRight=4;overflow=hidden;rotatable=0;points=[[0,0.5],[1,0.5]];portConstraint=eastwest;labelBackgroundColor=none;fontSize=14;" vertex="1" parent="yHoqbMhk2SUwJ_CR07r3-342">
          <mxGeometry y="68" width="640" height="152" as="geometry" />
        </mxCell>
        <mxCell id="yHoqbMhk2SUwJ_CR07r3-348" value="(C) VisitController " style="swimlane;fontStyle=1;align=center;verticalAlign=top;childLayout=stackLayout;horizontal=1;startSize=26;horizontalStack=0;resizeParent=1;resizeParentMax=0;resizeLast=0;collapsible=1;marginBottom=0;labelBackgroundColor=none;fontSize=14;strokeColor=default;fillColor=default;" vertex="1" parent="WIyWlLk6GJQsqaUBKTNV-1">
          <mxGeometry x="2240.01" y="-2850" width="640" height="220" as="geometry" />
        </mxCell>
        <mxCell id="yHoqbMhk2SUwJ_CR07r3-349" value="" style="line;strokeWidth=1;rotatable=0;dashed=0;labelPosition=right;align=left;verticalAlign=middle;spacingTop=0;spacingLeft=6;points=[];portConstraint=eastwest;labelBackgroundColor=none;fontSize=14;fillColor=default;" vertex="1" parent="yHoqbMhk2SUwJ_CR07r3-348">
          <mxGeometry y="26" width="640" height="10" as="geometry" />
        </mxCell>
        <mxCell id="yHoqbMhk2SUwJ_CR07r3-350" value="- visitService: VisitService&#xa;" style="text;strokeColor=none;fillColor=none;align=left;verticalAlign=top;spacingLeft=4;spacingRight=4;overflow=hidden;rotatable=0;points=[[0,0.5],[1,0.5]];portConstraint=eastwest;labelBackgroundColor=none;fontSize=14;" vertex="1" parent="yHoqbMhk2SUwJ_CR07r3-348">
          <mxGeometry y="36" width="640" height="24" as="geometry" />
        </mxCell>
        <mxCell id="yHoqbMhk2SUwJ_CR07r3-351" value="" style="line;strokeWidth=1;fillColor=none;align=left;verticalAlign=middle;spacingTop=-1;spacingLeft=3;spacingRight=3;rotatable=0;labelPosition=right;points=[];portConstraint=eastwest;labelBackgroundColor=none;fontSize=14;" vertex="1" parent="yHoqbMhk2SUwJ_CR07r3-348">
          <mxGeometry y="60" width="640" height="8" as="geometry" />
        </mxCell>
        <mxCell id="yHoqbMhk2SUwJ_CR07r3-352" value="@GetMapping(path = &quot;/{id}&quot;)&#xa;+ getVisit(@PathVariable(&quot;id&quot;) id: Long); Visit&#xa;@PostMapping()&#xa;+ addVisit(@RequestBody visit:Visit);&#xa;@PutMapping(path = &quot;/{id}/closed&quot;)&#xa;+ updateVisit(@PathVariable(&quot;id&quot;) id:Long);&#xa;@DeleteMapping(path = &quot;/{id}&quot;)&#xa;+ deleteVisit(@PathVariable(&quot;id&quot;) id: Long);&#xa;" style="text;strokeColor=none;fillColor=none;align=left;verticalAlign=top;spacingLeft=4;spacingRight=4;overflow=hidden;rotatable=0;points=[[0,0.5],[1,0.5]];portConstraint=eastwest;labelBackgroundColor=none;fontSize=14;" vertex="1" parent="yHoqbMhk2SUwJ_CR07r3-348">
          <mxGeometry y="68" width="640" height="152" as="geometry" />
        </mxCell>
        <mxCell id="yHoqbMhk2SUwJ_CR07r3-353" value="(C) TransferController " style="swimlane;fontStyle=1;align=center;verticalAlign=top;childLayout=stackLayout;horizontal=1;startSize=26;horizontalStack=0;resizeParent=1;resizeParentMax=0;resizeLast=0;collapsible=1;marginBottom=0;labelBackgroundColor=none;fontSize=14;strokeColor=default;fillColor=default;" vertex="1" parent="WIyWlLk6GJQsqaUBKTNV-1">
          <mxGeometry x="2709.75" y="-2550" width="770.25" height="180" as="geometry" />
        </mxCell>
        <mxCell id="yHoqbMhk2SUwJ_CR07r3-354" value="" style="line;strokeWidth=1;rotatable=0;dashed=0;labelPosition=right;align=left;verticalAlign=middle;spacingTop=0;spacingLeft=6;points=[];portConstraint=eastwest;labelBackgroundColor=none;fontSize=14;fillColor=default;" vertex="1" parent="yHoqbMhk2SUwJ_CR07r3-353">
          <mxGeometry y="26" width="770.25" height="10" as="geometry" />
        </mxCell>
        <mxCell id="yHoqbMhk2SUwJ_CR07r3-355" value="- transferService: TransferService&#xa;" style="text;strokeColor=none;fillColor=none;align=left;verticalAlign=top;spacingLeft=4;spacingRight=4;overflow=hidden;rotatable=0;points=[[0,0.5],[1,0.5]];portConstraint=eastwest;labelBackgroundColor=none;fontSize=14;" vertex="1" parent="yHoqbMhk2SUwJ_CR07r3-353">
          <mxGeometry y="36" width="770.25" height="24" as="geometry" />
        </mxCell>
        <mxCell id="yHoqbMhk2SUwJ_CR07r3-356" value="" style="line;strokeWidth=1;fillColor=none;align=left;verticalAlign=middle;spacingTop=-1;spacingLeft=3;spacingRight=3;rotatable=0;labelPosition=right;points=[];portConstraint=eastwest;labelBackgroundColor=none;fontSize=14;" vertex="1" parent="yHoqbMhk2SUwJ_CR07r3-353">
          <mxGeometry y="60" width="770.25" height="8" as="geometry" />
        </mxCell>
        <mxCell id="yHoqbMhk2SUwJ_CR07r3-357" value="@GetMapping(path = &quot;/client/{client_Id}&quot;)&#xa;+ getTransfers(@PathVariable(&quot;client_Id&quot;) client_Id: Long,@RequestBody body:FilterTransferFromClient); List&lt;Transfer&gt;&#xa;@PostMapping()&#xa;+ addTransfer(@RequestBody transfer:Transfer);&#xa;@DeleteMapping(path = &quot;/{transferId}&quot;)&#xa;+ deleteTransfer(@PathVariable(&quot;transferId&quot;) transferId: Long);&#xa;" style="text;strokeColor=none;fillColor=none;align=left;verticalAlign=top;spacingLeft=4;spacingRight=4;overflow=hidden;rotatable=0;points=[[0,0.5],[1,0.5]];portConstraint=eastwest;labelBackgroundColor=none;fontSize=14;" vertex="1" parent="yHoqbMhk2SUwJ_CR07r3-353">
          <mxGeometry y="68" width="770.25" height="112" as="geometry" />
        </mxCell>
        <mxCell id="yHoqbMhk2SUwJ_CR07r3-360" value="(C) MainController " style="swimlane;fontStyle=1;align=center;verticalAlign=top;childLayout=stackLayout;horizontal=1;startSize=26;horizontalStack=0;resizeParent=1;resizeParentMax=0;resizeLast=0;collapsible=1;marginBottom=0;labelBackgroundColor=none;fontSize=14;strokeColor=default;fillColor=default;" vertex="1" parent="WIyWlLk6GJQsqaUBKTNV-1">
          <mxGeometry x="3140" y="-2320" width="420" height="90" as="geometry" />
        </mxCell>
        <mxCell id="yHoqbMhk2SUwJ_CR07r3-361" value="" style="line;strokeWidth=1;rotatable=0;dashed=0;labelPosition=right;align=left;verticalAlign=middle;spacingTop=0;spacingLeft=6;points=[];portConstraint=eastwest;labelBackgroundColor=none;fontSize=14;fillColor=default;" vertex="1" parent="yHoqbMhk2SUwJ_CR07r3-360">
          <mxGeometry y="26" width="420" height="10" as="geometry" />
        </mxCell>
        <mxCell id="yHoqbMhk2SUwJ_CR07r3-363" value="" style="line;strokeWidth=1;fillColor=none;align=left;verticalAlign=middle;spacingTop=-1;spacingLeft=3;spacingRight=3;rotatable=0;labelPosition=right;points=[];portConstraint=eastwest;labelBackgroundColor=none;fontSize=14;" vertex="1" parent="yHoqbMhk2SUwJ_CR07r3-360">
          <mxGeometry y="36" width="420" height="8" as="geometry" />
        </mxCell>
        <mxCell id="yHoqbMhk2SUwJ_CR07r3-364" value="@GetMapping()&#xa;+ redirect(); RedirectView&#xa;&#xa;" style="text;strokeColor=none;fillColor=none;align=left;verticalAlign=top;spacingLeft=4;spacingRight=4;overflow=hidden;rotatable=0;points=[[0,0.5],[1,0.5]];portConstraint=eastwest;labelBackgroundColor=none;fontSize=14;" vertex="1" parent="yHoqbMhk2SUwJ_CR07r3-360">
          <mxGeometry y="44" width="420" height="46" as="geometry" />
        </mxCell>
        <mxCell id="yHoqbMhk2SUwJ_CR07r3-371" style="edgeStyle=orthogonalEdgeStyle;rounded=0;sketch=0;jumpStyle=gap;orthogonalLoop=1;jettySize=auto;html=1;fontSize=14;endArrow=none;endFill=0;endSize=20;strokeColor=#FFFFFF;strokeWidth=3;" edge="1" parent="WIyWlLk6GJQsqaUBKTNV-1" source="yHoqbMhk2SUwJ_CR07r3-365">
          <mxGeometry relative="1" as="geometry">
            <mxPoint x="480" y="-1410" as="targetPoint" />
            <Array as="points">
              <mxPoint x="545" y="-1640" />
              <mxPoint x="480" y="-1640" />
              <mxPoint x="480" y="-1410" />
            </Array>
          </mxGeometry>
        </mxCell>
        <mxCell id="yHoqbMhk2SUwJ_CR07r3-372" style="edgeStyle=orthogonalEdgeStyle;rounded=0;sketch=0;jumpStyle=gap;orthogonalLoop=1;jettySize=auto;html=1;entryX=0.25;entryY=0;entryDx=0;entryDy=0;fontSize=14;endArrow=none;endFill=0;endSize=20;strokeColor=#FFFFFF;strokeWidth=3;" edge="1" parent="WIyWlLk6GJQsqaUBKTNV-1" source="yHoqbMhk2SUwJ_CR07r3-365" target="yHoqbMhk2SUwJ_CR07r3-237">
          <mxGeometry relative="1" as="geometry">
            <Array as="points">
              <mxPoint x="560" y="-1640" />
              <mxPoint x="973" y="-1640" />
            </Array>
          </mxGeometry>
        </mxCell>
        <mxCell id="yHoqbMhk2SUwJ_CR07r3-373" style="edgeStyle=orthogonalEdgeStyle;rounded=0;sketch=0;jumpStyle=gap;orthogonalLoop=1;jettySize=auto;html=1;entryX=0.75;entryY=0;entryDx=0;entryDy=0;fontSize=14;endArrow=none;endFill=0;endSize=20;strokeColor=#FFFFFF;strokeWidth=3;" edge="1" parent="WIyWlLk6GJQsqaUBKTNV-1" source="yHoqbMhk2SUwJ_CR07r3-365" target="yHoqbMhk2SUwJ_CR07r3-191">
          <mxGeometry relative="1" as="geometry">
            <Array as="points">
              <mxPoint x="460" y="-1640" />
              <mxPoint x="-123" y="-1640" />
            </Array>
          </mxGeometry>
        </mxCell>
        <mxCell id="yHoqbMhk2SUwJ_CR07r3-374" style="edgeStyle=orthogonalEdgeStyle;rounded=0;sketch=0;jumpStyle=gap;orthogonalLoop=1;jettySize=auto;html=1;entryX=0.75;entryY=0;entryDx=0;entryDy=0;fontSize=14;endArrow=none;endFill=0;endSize=20;strokeColor=#FFFFFF;strokeWidth=3;" edge="1" parent="WIyWlLk6GJQsqaUBKTNV-1" source="yHoqbMhk2SUwJ_CR07r3-365" target="yHoqbMhk2SUwJ_CR07r3-198">
          <mxGeometry relative="1" as="geometry">
            <Array as="points">
              <mxPoint x="400" y="-1670" />
              <mxPoint x="-723" y="-1670" />
            </Array>
          </mxGeometry>
        </mxCell>
        <mxCell id="yHoqbMhk2SUwJ_CR07r3-375" style="edgeStyle=orthogonalEdgeStyle;rounded=0;sketch=0;jumpStyle=gap;orthogonalLoop=1;jettySize=auto;html=1;entryX=0.75;entryY=0;entryDx=0;entryDy=0;fontSize=14;endArrow=none;endFill=0;endSize=20;strokeColor=#FFFFFF;strokeWidth=3;" edge="1" parent="WIyWlLk6GJQsqaUBKTNV-1" source="yHoqbMhk2SUwJ_CR07r3-365" target="yHoqbMhk2SUwJ_CR07r3-205">
          <mxGeometry relative="1" as="geometry">
            <Array as="points">
              <mxPoint x="340" y="-1770" />
              <mxPoint x="-1288" y="-1770" />
            </Array>
          </mxGeometry>
        </mxCell>
        <mxCell id="yHoqbMhk2SUwJ_CR07r3-376" style="edgeStyle=orthogonalEdgeStyle;rounded=0;sketch=0;jumpStyle=gap;orthogonalLoop=1;jettySize=auto;html=1;entryX=0.75;entryY=0;entryDx=0;entryDy=0;fontSize=14;endArrow=none;endFill=0;endSize=20;strokeColor=#FFFFFF;strokeWidth=3;" edge="1" parent="WIyWlLk6GJQsqaUBKTNV-1" source="yHoqbMhk2SUwJ_CR07r3-365" target="yHoqbMhk2SUwJ_CR07r3-211">
          <mxGeometry relative="1" as="geometry">
            <Array as="points">
              <mxPoint x="-1792" y="-1910" />
            </Array>
          </mxGeometry>
        </mxCell>
        <mxCell id="yHoqbMhk2SUwJ_CR07r3-377" style="edgeStyle=orthogonalEdgeStyle;rounded=0;sketch=0;jumpStyle=gap;orthogonalLoop=1;jettySize=auto;html=1;entryX=0.75;entryY=0;entryDx=0;entryDy=0;fontSize=14;endArrow=none;endFill=0;endSize=20;strokeColor=#FFFFFF;strokeWidth=3;" edge="1" parent="WIyWlLk6GJQsqaUBKTNV-1" source="yHoqbMhk2SUwJ_CR07r3-365" target="yHoqbMhk2SUwJ_CR07r3-218">
          <mxGeometry relative="1" as="geometry">
            <Array as="points">
              <mxPoint x="-2303" y="-2020" />
            </Array>
          </mxGeometry>
        </mxCell>
        <mxCell id="yHoqbMhk2SUwJ_CR07r3-378" style="edgeStyle=orthogonalEdgeStyle;rounded=0;sketch=0;jumpStyle=gap;orthogonalLoop=1;jettySize=auto;html=1;entryX=0.25;entryY=0;entryDx=0;entryDy=0;fontSize=14;endArrow=none;endFill=0;endSize=20;strokeColor=#FFFFFF;strokeWidth=3;" edge="1" parent="WIyWlLk6GJQsqaUBKTNV-1" source="yHoqbMhk2SUwJ_CR07r3-365" target="yHoqbMhk2SUwJ_CR07r3-244">
          <mxGeometry relative="1" as="geometry">
            <Array as="points">
              <mxPoint x="600" y="-1670" />
              <mxPoint x="1628" y="-1670" />
            </Array>
          </mxGeometry>
        </mxCell>
        <mxCell id="yHoqbMhk2SUwJ_CR07r3-379" style="edgeStyle=orthogonalEdgeStyle;rounded=0;sketch=0;jumpStyle=gap;orthogonalLoop=1;jettySize=auto;html=1;entryX=0.25;entryY=0;entryDx=0;entryDy=0;fontSize=14;endArrow=none;endFill=0;endSize=20;strokeColor=#FFFFFF;strokeWidth=3;" edge="1" parent="WIyWlLk6GJQsqaUBKTNV-1" source="yHoqbMhk2SUwJ_CR07r3-365" target="yHoqbMhk2SUwJ_CR07r3-252">
          <mxGeometry relative="1" as="geometry">
            <Array as="points">
              <mxPoint x="650" y="-1710" />
              <mxPoint x="2081" y="-1710" />
            </Array>
          </mxGeometry>
        </mxCell>
        <mxCell id="yHoqbMhk2SUwJ_CR07r3-380" style="edgeStyle=orthogonalEdgeStyle;rounded=0;sketch=0;jumpStyle=gap;orthogonalLoop=1;jettySize=auto;html=1;entryX=0.25;entryY=0;entryDx=0;entryDy=0;fontSize=14;endArrow=none;endFill=0;endSize=20;strokeColor=#FFFFFF;strokeWidth=3;" edge="1" parent="WIyWlLk6GJQsqaUBKTNV-1" source="yHoqbMhk2SUwJ_CR07r3-365" target="yHoqbMhk2SUwJ_CR07r3-258">
          <mxGeometry relative="1" as="geometry">
            <Array as="points">
              <mxPoint x="2479" y="-1910" />
            </Array>
          </mxGeometry>
        </mxCell>
        <mxCell id="yHoqbMhk2SUwJ_CR07r3-381" style="edgeStyle=orthogonalEdgeStyle;rounded=0;sketch=0;jumpStyle=gap;orthogonalLoop=1;jettySize=auto;html=1;entryX=0.25;entryY=0;entryDx=0;entryDy=0;fontSize=14;endArrow=none;endFill=0;endSize=20;strokeColor=#FFFFFF;strokeWidth=3;" edge="1" parent="WIyWlLk6GJQsqaUBKTNV-1" source="yHoqbMhk2SUwJ_CR07r3-365" target="yHoqbMhk2SUwJ_CR07r3-264">
          <mxGeometry relative="1" as="geometry">
            <Array as="points">
              <mxPoint x="2912" y="-1970" />
            </Array>
          </mxGeometry>
        </mxCell>
        <mxCell id="yHoqbMhk2SUwJ_CR07r3-365" value="(C) DictionaryController " style="swimlane;fontStyle=1;align=center;verticalAlign=top;childLayout=stackLayout;horizontal=1;startSize=26;horizontalStack=0;resizeParent=1;resizeParentMax=0;resizeLast=0;collapsible=1;marginBottom=0;labelBackgroundColor=none;fontSize=14;strokeColor=default;fillColor=default;" vertex="1" parent="WIyWlLk6GJQsqaUBKTNV-1">
          <mxGeometry x="190" y="-2330" width="710" height="460" as="geometry" />
        </mxCell>
        <mxCell id="yHoqbMhk2SUwJ_CR07r3-366" value="" style="line;strokeWidth=1;rotatable=0;dashed=0;labelPosition=right;align=left;verticalAlign=middle;spacingTop=0;spacingLeft=6;points=[];portConstraint=eastwest;labelBackgroundColor=none;fontSize=14;fillColor=default;" vertex="1" parent="yHoqbMhk2SUwJ_CR07r3-365">
          <mxGeometry y="26" width="710" height="10" as="geometry" />
        </mxCell>
        <mxCell id="yHoqbMhk2SUwJ_CR07r3-367" value="- cyclicalTransferService: CyclicalTransferService&#xa;- creditCardService: CreditCardService&#xa;- appUserService: AppUserService&#xa;- clientService: ClientService&#xa;- employeeService: EmployeeService&#xa;- announcementService: AnnouncementService&#xa;- visitService: VisitService&#xa;- orderService: OrderService&#xa;- transferService: TransferService&#xa;- loanService: LoanService&#xa;- loanRateService: LoanRateService&#xa;&#xa;" style="text;strokeColor=none;fillColor=none;align=left;verticalAlign=top;spacingLeft=4;spacingRight=4;overflow=hidden;rotatable=0;points=[[0,0.5],[1,0.5]];portConstraint=eastwest;labelBackgroundColor=none;fontSize=14;" vertex="1" parent="yHoqbMhk2SUwJ_CR07r3-365">
          <mxGeometry y="36" width="710" height="194" as="geometry" />
        </mxCell>
        <mxCell id="yHoqbMhk2SUwJ_CR07r3-368" value="" style="line;strokeWidth=1;fillColor=none;align=left;verticalAlign=middle;spacingTop=-1;spacingLeft=3;spacingRight=3;rotatable=0;labelPosition=right;points=[];portConstraint=eastwest;labelBackgroundColor=none;fontSize=14;" vertex="1" parent="yHoqbMhk2SUwJ_CR07r3-365">
          <mxGeometry y="230" width="710" height="8" as="geometry" />
        </mxCell>
        <mxCell id="yHoqbMhk2SUwJ_CR07r3-369" value="@GetMapping(path = &quot;/cyclical-transfers&quot;) + getCyclicalTransfers(); List&lt;CyclicalTransfer&gt;&#xa;@GetMapping(path = &quot;/credit-cards&quot;) + getCreditCards(); List&lt;CreditCard&gt;&#xa;@GetMapping(path = &quot;/users&quot;) + getUsers(); List&lt;AppUser&gt;&#xa;@GetMapping(path = &quot;/clients&quot;) + getClients(); List&lt;Client&gt;&#xa;@GetMapping(path = &quot;/employees&quot;) + getEmployees(); List&lt;Employee&gt;&#xa;@GetMapping(path = &quot;/announcements&quot;) + getAnnouncements(); List&lt;Announcement&gt;&#xa;@GetMapping(path = &quot;/visits&quot;) + getVisits(); List&lt;Visit&gt;&#xa;@GetMapping(path = &quot;/orders&quot;) + getOrders(); List&lt;Order&gt;&#xa;@GetMapping(path = &quot;/orders/for-employees&quot;) + getOrdersForEmployees(); List&lt;Order&gt;&#xa;@GetMapping(path = &quot;/transfers&quot;) + getTransfers(); List&lt;Transfer&gt;&#xa;@GetMapping(path = &quot;/loans&quot;) + getLoans(); List&lt;Loan&gt;&#xa;@GetMapping(path = &quot;/loans-rates&quot;) + getRates(); List&lt;LoanRate&gt;&#xa;" style="text;strokeColor=none;fillColor=none;align=left;verticalAlign=top;spacingLeft=4;spacingRight=4;overflow=hidden;rotatable=0;points=[[0,0.5],[1,0.5]];portConstraint=eastwest;labelBackgroundColor=none;fontSize=14;" vertex="1" parent="yHoqbMhk2SUwJ_CR07r3-365">
          <mxGeometry y="238" width="710" height="222" as="geometry" />
        </mxCell>
      </root>
    </mxGraphModel>
  </diagram>
</mxfile>
